<svg xmlns="http://www.w3.org/2000/svg" viewBox="-11.2 -11.2 22.4 22.4"><title>June 2024 — libration loop, to scale</title><circle r="1" fill="#3a86ff"/><polyline points="0.88,1.83 0.84,1.76 0.80,1.69 0.76,1.63 0.71,1.56 0.67,1.49 0.63,1.42 0.58,1.35 0.54,1.28 0.50,1.22 0.45,1.15 0.41,1.08 0.37,1.01 0.32,0.94 0.28,0.87 0.24,0.80 0.19,0.73 0.15,0.66 0.10,0.59 0.06,0.52 0.02,0.45 -0.03,0.38 -0.07,0.31 -0.12,0.24 -0.16,0.17 -0.21,0.11 -0.25,0.04 -0.30,-0.03 -0.34,-0.10 -0.38,-0.17 -0.43,-0.24 -0.47,-0.31 -0.52,-0.38 -0.56,-0.45 -0.61,-0.52 -0.65,-0.59 -0.70,-0.66 -0.74,-0.73 -0.79,-0.80 -0.83,-0.87 -0.88,-0.94 -0.92,-1.01 -0.97,-1.08 -1.02,-1.15 -1.06,-1.22 -1.11,-1.28 -1.15,-1.35 -1.20,-1.42 -1.24,-1.49 -1.29,-1.56 -1.33,-1.63 -1.38,-1.69 -1.42,-1.76 -1.47,-1.83 -1.51,-1.90 -1.56,-1.96 -1.60,-2.03 -1.65,-2.10 -1.70,-2.16 -1.74,-2.23 -1.79,-2.29 -1.83,-2.36 -1.88,-2.43 -1.92,-2.49 -1.97,-2.56 -2.01,-2.62 -2.06,-2.69 -2.10,-2.75 -2.15,-2.81 -2.19,-2.88 -2.23,-2.94 -2.28,-3.00 -2.32,-3.07 -2.37,-3.13 -2.41,-3.19 -2.46,-3.25 -2.50,-3.31 -2.54,-3.37 -2.59,-3.43 -2.63,-3.50 -2.68,-3.56 -2.72,-3.61 -2.76,-3.67 -2.81,-3.73 -2.85,-3.79 -2.89,-3.85 -2.93,-3.91 -2.98,-3.96 -3.02,-4.02 -3.06,-4.08 -3.10,-4.13 -3.15,-4.19 -3.19,-4.24 -3.23,-4.30 -3.27,-4.35 -3.31,-4.41 -3.35,-4.46 -3.40,-4.51 -3.44,-4.57 -3.48,-4.62 -3.52,-4.67 -3.56,-4.72 -3.60,-4.77 -3.64,-4.82 -3.68,-4.87 -3.71,-4.92 -3.75,-4.97 -3.79,-5.02 -3.83,-5.06 -3.87,-5.11 -3.91,-5.16 -3.94,-5.20 -3.98,-5.25 -4.02,-5.29 -4.05,-5.34 -4.09,-5.38 -4.13,-5.43 -4.16,-5.47 -4.20,-5.51 -4.23,-5.55 -4.27,-5.59 -4.30,-5.64 -4.34,-5.68 -4.37,-5.71 -4.40,-5.75 -4.44,-5.79 -4.47,-5.83 -4.50,-5.87 -4.53,-5.90 -4.57,-5.94 -4.60,-5.98 -4.63,-6.01 -4.66,-6.04 -4.69,-6.08 -4.72,-6.11 -4.75,-6.14 -4.78,-6.18 -4.81,-6.21 -4.83,-6.24 -4.86,-6.27 -4.89,-6.30 -4.91,-6.33 -4.94,-6.35 -4.97,-6.38 -4.99,-6.41 -5.02,-6.44 -5.04,-6.46 -5.07,-6.49 -5.09,-6.51 -5.11,-6.53 -5.13,-6.56 -5.16,-6.58 -5.18,-6.60 -5.20,-6.62 -5.22,-6.64 -5.24,-6.66 -5.26,-6.68 -5.28,-6.70 -5.30,-6.72 -5.31,-6.74 -5.33,-6.76 -5.35,-6.77 -5.36,-6.79 -5.38,-6.80 -5.39,-6.82 -5.41,-6.83 -5.42,-6.84 -5.44,-6.86 -5.45,-6.87 -5.46,-6.88 -5.47,-6.89 -5.49,-6.90 -5.50,-6.91 -5.51,-6.92 -5.52,-6.93 -5.52,-6.93 -5.53,-6.94 -5.54,-6.95 -5.55,-6.95 -5.55,-6.96 -5.56,-6.96 -5.56,-6.96 -5.57,-6.97 -5.57,-6.97 -5.58,-6.97 -5.58,-6.97 -5.58,-6.97 -5.58,-6.97 -5.58,-6.97 -5.58,-6.97 -5.58,-6.97 -5.58,-6.96 -5.58,-6.96 -5.58,-6.95 -5.57,-6.95 -5.57,-6.94 -5.57,-6.94 -5.56,-6.93 -5.56,-6.92 -5.55,-6.92 -5.54,-6.91 -5.54,-6.90 -5.53,-6.89 -5.52,-6.88 -5.51,-6.87 -5.50,-6.86 -5.49,-6.84 -5.48,-6.83 -5.46,-6.82 -5.45,-6.80 -5.44,-6.79 -5.42,-6.77 -5.41,-6.76 -5.39,-6.74 -5.38,-6.73 -5.36,-6.71 -5.34,-6.69 -5.32,-6.67 -5.31,-6.65 -5.29,-6.63 -5.27,-6.61 -5.24,-6.59 -5.22,-6.57 -5.20,-6.55 -5.18,-6.52 -5.15,-6.50 -5.13,-6.48 -5.11,-6.45 -5.08,-6.43 -5.05,-6.40 -5.03,-6.38 -5.00,-6.35 -4.97,-6.32 -4.94,-6.30 -4.92,-6.27 -4.89,-6.24 -4.85,-6.21 -4.82,-6.18 -4.79,-6.15 -4.76,-6.12 -4.73,-6.09 -4.69,-6.06 -4.66,-6.02 -4.62,-5.99 -4.59,-5.96 -4.55,-5.92 -4.52,-5.89 -4.48,-5.85 -4.44,-5.82 -4.40,-5.78 -4.36,-5.75 -4.32,-5.71 -4.28,-5.67 -4.24,-5.63 -4.20,-5.60 -4.16,-5.56 -4.12,-5.52 -4.08,-5.48 -4.03,-5.44 -3.99,-5.40 -3.94,-5.36 -3.90,-5.32 -3.85,-5.27 -3.81,-5.23 -3.76,-5.19 -3.71,-5.15 -3.67,-5.10 -3.62,-5.06 -3.57,-5.02 -3.52,-4.97 -3.47,-4.93 -3.42,-4.88 -3.37,-4.83 -3.32,-4.79 -3.27,-4.74 -3.22,-4.69 -3.16,-4.65 -3.11,-4.60 -3.06,-4.55 -3.00,-4.50 -2.95,-4.45 -2.90,-4.40 -2.84,-4.35 -2.79,-4.30 -2.73,-4.25 -2.68,-4.20 -2.62,-4.15 -2.56,-4.10 -2.51,-4.05 -2.45,-4.00 -2.39,-3.94 -2.33,-3.89 -2.27,-3.84 -2.21,-3.78 -2.16,-3.73 -2.10,-3.68 -2.04,-3.62 -1.98,-3.57 -1.92,-3.51 -1.86,-3.46 -1.80,-3.40 -1.74,-3.35 -1.67,-3.29 -1.61,-3.24 -1.55,-3.18 -1.49,-3.12 -1.43,-3.07 -1.36,-3.01 -1.30,-2.95 -1.24,-2.89 -1.18,-2.84 -1.11,-2.78 -1.05,-2.72 -0.99,-2.66 -0.92,-2.60 -0.86,-2.54 -0.80,-2.48 -0.73,-2.42 -0.67,-2.36 -0.61,-2.30 -0.54,-2.24 -0.48,-2.18 -0.41,-2.12 -0.35,-2.06 -0.28,-2.00 -0.22,-1.94 -0.16,-1.88 -0.09,-1.82 -0.03,-1.76 0.04,-1.70 0.10,-1.64 0.17,-1.58 0.23,-1.51 0.30,-1.45 0.36,-1.39 0.43,-1.33 0.49,-1.27 0.55,-1.20 0.62,-1.14 0.68,-1.08 0.75,-1.02 0.81,-0.95 0.87,-0.89 0.94,-0.83 1.00,-0.76 1.06,-0.70 1.13,-0.64 1.19,-0.58 1.25,-0.51 1.32,-0.45 1.38,-0.39 1.44,-0.32 1.50,-0.26 1.57,-0.20 1.63,-0.13 1.69,-0.07 1.75,-0.01 1.81,0.06 1.87,0.12 1.93,0.18 1.99,0.25 2.05,0.31 2.11,0.37 2.17,0.44 2.23,0.50 2.29,0.56 2.35,0.63 2.41,0.69 2.47,0.75 2.52,0.81 2.58,0.88 2.64,0.94 2.69,1.00 2.75,1.06 2.81,1.13 2.86,1.19 2.92,1.25 2.97,1.31 3.03,1.38 3.08,1.44 3.13,1.50 3.19,1.56 3.24,1.62 3.29,1.69 3.34,1.75 3.39,1.81 3.45,1.87 3.50,1.93 3.55,1.99 3.60,2.05 3.64,2.11 3.69,2.17 3.74,2.23 3.79,2.29 3.84,2.35 3.88,2.41 3.93,2.47 3.97,2.53 4.02,2.59 4.06,2.65 4.11,2.71 4.15,2.76 4.19,2.82 4.23,2.88 4.28,2.94 4.32,2.99 4.36,3.05 4.40,3.11 4.44,3.16 4.48,3.22 4.51,3.28 4.55,3.33 4.59,3.39 4.63,3.44 4.66,3.50 4.70,3.55 4.73,3.61 4.77,3.66 4.80,3.71 4.83,3.77 4.86,3.82 4.90,3.87 4.93,3.93 4.96,3.98 4.99,4.03 5.02,4.08 5.04,4.13 5.07,4.18 5.10,4.23 5.13,4.28 5.15,4.33 5.18,4.38 5.20,4.43 5.22,4.48 5.25,4.53 5.27,4.57 5.29,4.62 5.31,4.67 5.33,4.71 5.35,4.76 5.37,4.81 5.39,4.85 5.41,4.90 5.43,4.94 5.44,4.98 5.46,5.03 5.48,5.07 5.49,5.11 5.50,5.15 5.52,5.20 5.53,5.24 5.54,5.28 5.55,5.32 5.56,5.36 5.57,5.40 5.58,5.44 5.59,5.47 5.60,5.51 5.61,5.55 5.61,5.59 5.62,5.62 5.63,5.66 5.63,5.69 5.63,5.73 5.64,5.76 5.64,5.80 5.64,5.83 5.64,5.86 5.65,5.90 5.65,5.93 5.65,5.96 5.64,5.99 5.64,6.02 5.64,6.05 5.64,6.08 5.63,6.11 5.63,6.13 5.63,6.16 5.62,6.19 5.61,6.21 5.61,6.24 5.60,6.26 5.59,6.29 5.58,6.31 5.57,6.34 5.57,6.36 5.56,6.38 5.54,6.40 5.53,6.42 5.52,6.44 5.51,6.46 5.50,6.48 5.48,6.50 5.47,6.52 5.45,6.53 5.44,6.55 5.42,6.57 5.41,6.58 5.39,6.60 5.37,6.61 5.35,6.62 5.33,6.64 5.32,6.65 5.30,6.66 5.28,6.67 5.26,6.68 5.23,6.69 5.21,6.70 5.19,6.71 5.17,6.72 5.15,6.72 5.12,6.73 5.10,6.74 5.07,6.74 5.05,6.75 5.02,6.75 5.00,6.75 4.97,6.76 4.95,6.76 4.92,6.76 4.89,6.76 4.86,6.76 4.83,6.76 4.81,6.76 4.78,6.76 4.75,6.75 4.72,6.75 4.69,6.74 4.66,6.74 4.63,6.73 4.59,6.73 4.56,6.72 4.53,6.71 4.50,6.71 4.47,6.70 4.43,6.69 4.40,6.68 4.36,6.67 4.33,6.66 4.30,6.64 4.26,6.63 4.23,6.62 4.19,6.60 4.16,6.59 4.12,6.57 4.08,6.56 4.05,6.54 4.01,6.52 3.97,6.51 3.94,6.49 3.90,6.47 3.86,6.45 3.82,6.43 3.79,6.41 3.75,6.38 3.71,6.36 3.67,6.34 3.63,6.32 3.59,6.29 3.55,6.27 3.51,6.24 3.47,6.21 3.43,6.19 3.39,6.16 3.35,6.13 3.31,6.10 3.27,6.07 3.23,6.04 3.19,6.01 3.15,5.98 3.11,5.95 3.06,5.92 3.02,5.88 2.98,5.85 2.94,5.81 2.90,5.78 2.86,5.74 2.81,5.71 2.77,5.67 2.73,5.63 2.69,5.60 2.64,5.56 2.60,5.52 2.56,5.48 2.52,5.44 2.47,5.40 2.43,5.36 2.39,5.32 2.34,5.27 2.30,5.23 2.26,5.19 2.21,5.14 2.17,5.10 2.13,5.05 2.09,5.01 2.04,4.96 2.00,4.91 1.96,4.87 1.91,4.82 1.87,4.77 1.83,4.72 1.78,4.67 1.74,4.62 1.70,4.57 1.65,4.52 1.61,4.47 1.57,4.42 1.52,4.37 1.48,4.32 1.44,4.26 1.39,4.21 1.35,4.16 1.31,4.10 1.26,4.05 1.22,3.99 1.18,3.94 1.13,3.88 1.09,3.83 1.05,3.77 1.01,3.71 0.96,3.65 0.92,3.60 0.88,3.54 0.84,3.48 0.79,3.42 0.75,3.36 0.71,3.30 0.67,3.24 0.62,3.18 0.58,3.12 0.54,3.06 0.50,3.00 0.45,2.94 0.41,2.88 0.37,2.81 0.33,2.75 0.29,2.69 0.25,2.63 0.20,2.56 0.16,2.50 0.12,2.43 0.08,2.37 0.04,2.31 -0.00,2.24 -0.04,2.18 -0.08,2.11 -0.12,2.05 -0.17,1.98 -0.21,1.91 -0.25,1.85 -0.29,1.78 -0.33,1.72 -0.37,1.65 -0.41,1.58 -0.45,1.52 -0.49,1.45 -0.53,1.38 -0.57,1.32 -0.61,1.25 -0.65,1.18 -0.69,1.11 -0.72,1.04 -0.76,0.98 -0.80,0.91 -0.84,0.84 -0.88,0.77 -0.92,0.70 -0.96,0.64 -1.00,0.57 -1.03,0.50 -1.07,0.43 -1.11,0.36 -1.15,0.29 -1.19,0.22 -1.23,0.16 -1.26,0.09 -1.30,0.02 -1.34,-0.05 -1.38,-0.12 -1.41,-0.19 -1.45,-0.26 -1.49,-0.32 -1.52,-0.39 -1.56,-0.46 -1.60,-0.53 -1.63,-0.60 -1.67,-0.67 -1.71,-0.74 -1.74,-0.80 -1.78,-0.87 -1.82,-0.94 -1.85,-1.01 -1.89,-1.08 -1.92,-1.14 -1.96,-1.21 -1.99,-1.28 -2.03,-1.35 -2.07,-1.41 -2.10,-1.48 -2.14,-1.55 -2.17,-1.61 -2.21,-1.68 -2.24,-1.75 -2.27,-1.81 -2.31,-1.88 -2.34,-1.95 -2.38,-2.01 -2.41,-2.08 -2.45,-2.14 -2.48,-2.21 -2.51,-2.27 -2.55,-2.34 -2.58,-2.40 -2.61,-2.47 -2.65,-2.53 -2.68,-2.59 -2.71,-2.66 -2.75,-2.72 -2.78,-2.78 -2.81,-2.84 -2.84,-2.91" fill="none" stroke="#ff3b30" stroke-width="1" vector-effect="non-scaling-stroke" stroke-linejoin="round" stroke-linecap="round"/></svg>
