<svg xmlns="http://www.w3.org/2000/svg" viewBox="-11.2 -11.2 22.4 22.4"><title>February 2024 — libration loop, to scale</title><circle r="1" fill="#3a86ff"/><polyline points="5.31,0.17 5.37,0.23 5.42,0.29 5.48,0.36 5.54,0.42 5.59,0.48 5.65,0.55 5.70,0.61 5.76,0.67 5.81,0.74 5.86,0.80 5.92,0.86 5.97,0.92 6.02,0.99 6.07,1.05 6.12,1.11 6.18,1.18 6.23,1.24 6.28,1.30 6.33,1.36 6.37,1.42 6.42,1.49 6.47,1.55 6.52,1.61 6.56,1.67 6.61,1.73 6.66,1.79 6.70,1.86 6.75,1.92 6.79,1.98 6.83,2.04 6.88,2.10 6.92,2.16 6.96,2.22 7.00,2.28 7.04,2.34 7.08,2.40 7.12,2.46 7.16,2.52 7.19,2.58 7.23,2.64 7.27,2.69 7.30,2.75 7.34,2.81 7.37,2.87 7.41,2.93 7.44,2.98 7.47,3.04 7.50,3.10 7.53,3.15 7.56,3.21 7.59,3.27 7.62,3.32 7.65,3.38 7.68,3.43 7.70,3.49 7.73,3.54 7.76,3.60 7.78,3.65 7.80,3.70 7.83,3.76 7.85,3.81 7.87,3.86 7.89,3.91 7.91,3.97 7.93,4.02 7.94,4.07 7.96,4.12 7.98,4.17 7.99,4.22 8.01,4.27 8.02,4.32 8.03,4.37 8.05,4.42 8.06,4.46 8.07,4.51 8.08,4.56 8.09,4.61 8.10,4.65 8.10,4.70 8.11,4.74 8.11,4.79 8.12,4.83 8.12,4.88 8.13,4.92 8.13,4.97 8.13,5.01 8.13,5.05 8.13,5.09 8.13,5.13 8.12,5.18 8.12,5.22 8.12,5.26 8.11,5.30 8.10,5.34 8.10,5.37 8.09,5.41 8.08,5.45 8.07,5.49 8.06,5.52 8.05,5.56 8.04,5.59 8.03,5.63 8.01,5.66 8.00,5.70 7.98,5.73 7.96,5.76 7.95,5.80 7.93,5.83 7.91,5.86 7.89,5.89 7.87,5.92 7.85,5.95 7.82,5.98 7.80,6.01 7.77,6.03 7.75,6.06 7.72,6.09 7.70,6.11 7.67,6.14 7.64,6.16 7.61,6.19 7.58,6.21 7.55,6.23 7.51,6.26 7.48,6.28 7.45,6.30 7.41,6.32 7.38,6.34 7.34,6.36 7.30,6.38 7.26,6.39 7.23,6.41 7.19,6.43 7.14,6.44 7.10,6.46 7.06,6.47 7.02,6.49 6.97,6.50 6.93,6.51 6.88,6.53 6.84,6.54 6.79,6.55 6.74,6.56 6.69,6.57 6.64,6.57 6.59,6.58 6.54,6.59 6.49,6.60 6.44,6.60 6.39,6.61 6.33,6.61 6.28,6.62 6.22,6.62 6.17,6.62 6.11,6.62 6.05,6.62 5.99,6.62 5.93,6.62 5.88,6.62 5.82,6.62 5.75,6.62 5.69,6.61 5.63,6.61 5.57,6.60 5.51,6.60 5.44,6.59 5.38,6.59 5.31,6.58 5.25,6.57 5.18,6.56 5.11,6.55 5.05,6.54 4.98,6.53 4.91,6.52 4.84,6.51 4.77,6.49 4.70,6.48 4.63,6.46 4.56,6.45 4.49,6.43 4.42,6.42 4.34,6.40 4.27,6.38 4.20,6.36 4.12,6.34 4.05,6.32 3.97,6.30 3.90,6.28 3.82,6.26 3.75,6.23 3.67,6.21 3.60,6.18 3.52,6.16 3.44,6.13 3.36,6.11 3.29,6.08 3.21,6.05 3.13,6.02 3.05,5.99 2.97,5.96 2.89,5.93 2.81,5.90 2.73,5.87 2.65,5.84 2.57,5.80 2.49,5.77 2.41,5.73 2.33,5.70 2.25,5.66 2.17,5.63 2.08,5.59 2.00,5.55 1.92,5.51 1.84,5.47 1.76,5.43 1.67,5.39 1.59,5.35 1.51,5.31 1.43,5.27 1.34,5.23 1.26,5.18 1.18,5.14 1.10,5.09 1.01,5.05 0.93,5.00 0.85,4.96 0.77,4.91 0.68,4.86 0.60,4.81 0.52,4.77 0.43,4.72 0.35,4.67 0.27,4.62 0.19,4.57 0.10,4.51 0.02,4.46 -0.06,4.41 -0.14,4.36 -0.22,4.30 -0.31,4.25 -0.39,4.20 -0.47,4.14 -0.55,4.09 -0.63,4.03 -0.71,3.97 -0.79,3.92 -0.87,3.86 -0.95,3.80 -1.03,3.74 -1.11,3.69 -1.19,3.63 -1.27,3.57 -1.35,3.51 -1.43,3.45 -1.51,3.39 -1.59,3.33 -1.66,3.27 -1.74,3.21 -1.82,3.14 -1.90,3.08 -1.97,3.02 -2.05,2.96 -2.12,2.89 -2.20,2.83 -2.27,2.76 -2.35,2.70 -2.42,2.64 -2.50,2.57 -2.57,2.51 -2.65,2.44 -2.72,2.37 -2.79,2.31 -2.86,2.24 -2.93,2.18 -3.01,2.11 -3.08,2.04 -3.15,1.97 -3.22,1.91 -3.29,1.84 -3.35,1.77 -3.42,1.70 -3.49,1.64 -3.56,1.57 -3.62,1.50 -3.69,1.43 -3.76,1.36 -3.82,1.29 -3.89,1.22 -3.95,1.15 -4.02,1.08 -4.08,1.01 -4.14,0.94 -4.20,0.87 -4.27,0.80 -4.33,0.73 -4.39,0.66 -4.45,0.59 -4.51,0.52 -4.56,0.45 -4.62,0.38 -4.68,0.31 -4.74,0.24 -4.79,0.17 -4.85,0.10 -4.91,0.03 -4.96,-0.04 -5.01,-0.11 -5.07,-0.18 -5.12,-0.25 -5.17,-0.32 -5.23,-0.39 -5.28,-0.46 -5.33,-0.53 -5.38,-0.60 -5.43,-0.67 -5.47,-0.74 -5.52,-0.81 -5.57,-0.88 -5.62,-0.95 -5.66,-1.02 -5.71,-1.09 -5.75,-1.16 -5.80,-1.23 -5.84,-1.30 -5.88,-1.37 -5.93,-1.44 -5.97,-1.51 -6.01,-1.58 -6.05,-1.64 -6.09,-1.71 -6.13,-1.78 -6.17,-1.85 -6.20,-1.92 -6.24,-1.99 -6.28,-2.05 -6.31,-2.12 -6.35,-2.19 -6.38,-2.25 -6.42,-2.32 -6.45,-2.39 -6.48,-2.45 -6.51,-2.52 -6.54,-2.58 -6.58,-2.65 -6.61,-2.71 -6.63,-2.78 -6.66,-2.84 -6.69,-2.91 -6.72,-2.97 -6.75,-3.04 -6.77,-3.10 -6.80,-3.16 -6.82,-3.22 -6.85,-3.29 -6.87,-3.35 -6.89,-3.41 -6.91,-3.47 -6.94,-3.53 -6.96,-3.59 -6.98,-3.65 -7.00,-3.71 -7.02,-3.77 -7.03,-3.83 -7.05,-3.89 -7.07,-3.95 -7.08,-4.01 -7.10,-4.07 -7.12,-4.12 -7.13,-4.18 -7.14,-4.24 -7.16,-4.29 -7.17,-4.35 -7.18,-4.40 -7.19,-4.46 -7.20,-4.51 -7.22,-4.57 -7.22,-4.62 -7.23,-4.68 -7.24,-4.73 -7.25,-4.78 -7.26,-4.83 -7.26,-4.88 -7.27,-4.93 -7.28,-4.98 -7.28,-5.03 -7.28,-5.08 -7.29,-5.13 -7.29,-5.18 -7.29,-5.23 -7.30,-5.28 -7.30,-5.32 -7.30,-5.37 -7.30,-5.42 -7.30,-5.46 -7.30,-5.51 -7.30,-5.55 -7.29,-5.60 -7.29,-5.64 -7.29,-5.68 -7.29,-5.73 -7.28,-5.77 -7.28,-5.81 -7.27,-5.85 -7.27,-5.89 -7.26,-5.93 -7.25,-5.97 -7.24,-6.01 -7.24,-6.05 -7.23,-6.09 -7.22,-6.12 -7.21,-6.16 -7.20,-6.20 -7.19,-6.23 -7.18,-6.27 -7.17,-6.30 -7.15,-6.34 -7.14,-6.37 -7.13,-6.40 -7.12,-6.43 -7.10,-6.47 -7.09,-6.50 -7.07,-6.53 -7.06,-6.56 -7.04,-6.59 -7.02,-6.61 -7.01,-6.64 -6.99,-6.67 -6.97,-6.70 -6.95,-6.72 -6.93,-6.75 -6.91,-6.78 -6.90,-6.80 -6.87,-6.82 -6.85,-6.85 -6.83,-6.87 -6.81,-6.89 -6.79,-6.91 -6.77,-6.94 -6.74,-6.96 -6.72,-6.98 -6.70,-7.00 -6.67,-7.01 -6.65,-7.03 -6.62,-7.05 -6.60,-7.07 -6.57,-7.08 -6.55,-7.10 -6.52,-7.11 -6.49,-7.13 -6.46,-7.14 -6.44,-7.16 -6.41,-7.17 -6.38,-7.18 -6.35,-7.19 -6.32,-7.20 -6.29,-7.21 -6.26,-7.22 -6.23,-7.23 -6.20,-7.24 -6.17,-7.25 -6.13,-7.26 -6.10,-7.26 -6.07,-7.27 -6.04,-7.27 -6.00,-7.28 -5.97,-7.28 -5.93,-7.29 -5.90,-7.29 -5.86,-7.29 -5.83,-7.29 -5.79,-7.29 -5.76,-7.29 -5.72,-7.29 -5.68,-7.29 -5.65,-7.29 -5.61,-7.29 -5.57,-7.29 -5.53,-7.28 -5.49,-7.28 -5.46,-7.28 -5.42,-7.27 -5.38,-7.27 -5.34,-7.26 -5.30,-7.25 -5.26,-7.25 -5.22,-7.24 -5.17,-7.23 -5.13,-7.22 -5.09,-7.21 -5.05,-7.20 -5.01,-7.19 -4.96,-7.18 -4.92,-7.17 -4.88,-7.15 -4.83,-7.14 -4.79,-7.13 -4.74,-7.11 -4.70,-7.10 -4.65,-7.08 -4.61,-7.07 -4.56,-7.05 -4.52,-7.03 -4.47,-7.02 -4.42,-7.00 -4.38,-6.98 -4.33,-6.96 -4.28,-6.94 -4.24,-6.92 -4.19,-6.90 -4.14,-6.88 -4.09,-6.85 -4.04,-6.83 -3.99,-6.81 -3.94,-6.78 -3.89,-6.76 -3.84,-6.74 -3.79,-6.71 -3.74,-6.68 -3.69,-6.66 -3.64,-6.63 -3.59,-6.60 -3.54,-6.57 -3.49,-6.55 -3.43,-6.52 -3.38,-6.49 -3.33,-6.46 -3.28,-6.43 -3.22,-6.39 -3.17,-6.36 -3.12,-6.33 -3.06,-6.30 -3.01,-6.27 -2.95,-6.23 -2.90,-6.20 -2.84,-6.16 -2.79,-6.13 -2.73,-6.09 -2.68,-6.06 -2.62,-6.02 -2.57,-5.98 -2.51,-5.94 -2.45,-5.91 -2.40,-5.87 -2.34,-5.83 -2.28,-5.79 -2.23,-5.75 -2.17,-5.71 -2.11,-5.67 -2.05,-5.63 -2.00,-5.59 -1.94,-5.54 -1.88,-5.50 -1.82,-5.46 -1.76,-5.41 -1.70,-5.37 -1.64,-5.33 -1.58,-5.28 -1.52,-5.24 -1.46,-5.19 -1.40,-5.14 -1.34,-5.10 -1.28,-5.05 -1.22,-5.00 -1.16,-4.96 -1.10,-4.91 -1.04,-4.86 -0.98,-4.81 -0.92,-4.76 -0.86,-4.71 -0.79,-4.66 -0.73,-4.61 -0.67,-4.56 -0.61,-4.51 -0.55,-4.46 -0.48,-4.41 -0.42,-4.36 -0.36,-4.31 -0.30,-4.25 -0.23,-4.20 -0.17,-4.15 -0.11,-4.09 -0.04,-4.04 0.02,-3.99 0.08,-3.93 0.15,-3.88 0.21,-3.82 0.27,-3.77 0.34,-3.71 0.40,-3.65 0.47,-3.60 0.53,-3.54 0.59,-3.49 0.66,-3.43 0.72,-3.37 0.79,-3.31 0.85,-3.26 0.92,-3.20 0.98,-3.14 1.04,-3.08 1.11,-3.02 1.17,-2.96 1.24,-2.90 1.30,-2.84 1.37,-2.78 1.43,-2.72 1.50,-2.66 1.56,-2.60 1.63,-2.54 1.69,-2.48 1.76,-2.42 1.82,-2.36 1.89,-2.30 1.95,-2.24 2.02,-2.17 2.08,-2.11 2.15,-2.05 2.21,-1.99 2.28,-1.93 2.34,-1.86 2.41,-1.80 2.47,-1.74 2.53,-1.68 2.60,-1.61 2.66,-1.55 2.73,-1.49 2.79,-1.42 2.86,-1.36 2.92,-1.30 2.98,-1.23 3.05,-1.17 3.11,-1.10 3.18,-1.04 3.24,-0.98 3.30,-0.91 3.37,-0.85 3.43,-0.78 3.49,-0.72 3.56,-0.66 3.62,-0.59 3.68,-0.53 3.74,-0.46 3.81,-0.40 3.87,-0.33 3.93,-0.27 3.99,-0.20 4.06,-0.14 4.12,-0.07 4.18,-0.01 4.24,0.06 4.30,0.12 4.36,0.18 4.42,0.25 4.48,0.31 4.54,0.38 4.60,0.44 4.66,0.51 4.72,0.57 4.78,0.64 4.84,0.70 4.90,0.76 4.96,0.83 5.01,0.89 5.07,0.96 5.13,1.02 5.19,1.08 5.24,1.15 5.30,1.21 5.36,1.28 5.41,1.34 5.47,1.40 5.52,1.47 5.58,1.53 5.63,1.59 5.69,1.65 5.74,1.72 5.79,1.78 5.85,1.84 5.90,1.91 5.95,1.97 6.00,2.03 6.06,2.09 6.11,2.15 6.16,2.21 6.21,2.28 6.26,2.34 6.31,2.40 6.36,2.46 6.41,2.52 6.45,2.58 6.50,2.64 6.55,2.70 6.60,2.76 6.64,2.82 6.69,2.88 6.73,2.94 6.78,2.99" fill="none" stroke="#ff3b30" stroke-width="1" vector-effect="non-scaling-stroke" stroke-linejoin="round" stroke-linecap="round"/></svg>
