<svg xmlns="http://www.w3.org/2000/svg" viewBox="-11.2 -11.2 22.4 22.4"><title>August 2024 — libration loop, to scale</title><circle r="1" fill="#3a86ff"/><polyline points="-5.83,-6.86 -5.83,-6.88 -5.83,-6.89 -5.84,-6.90 -5.84,-6.92 -5.84,-6.93 -5.84,-6.94 -5.84,-6.95 -5.84,-6.96 -5.84,-6.97 -5.84,-6.98 -5.84,-6.99 -5.84,-6.99 -5.84,-7.00 -5.84,-7.01 -5.84,-7.01 -5.83,-7.02 -5.83,-7.02 -5.83,-7.03 -5.82,-7.03 -5.82,-7.03 -5.81,-7.03 -5.81,-7.03 -5.80,-7.04 -5.80,-7.04 -5.79,-7.03 -5.79,-7.03 -5.78,-7.03 -5.77,-7.03 -5.76,-7.03 -5.76,-7.02 -5.75,-7.02 -5.74,-7.01 -5.73,-7.01 -5.72,-7.00 -5.71,-6.99 -5.70,-6.99 -5.69,-6.98 -5.68,-6.97 -5.67,-6.96 -5.66,-6.95 -5.64,-6.94 -5.63,-6.93 -5.62,-6.92 -5.60,-6.90 -5.59,-6.89 -5.57,-6.88 -5.56,-6.86 -5.54,-6.85 -5.53,-6.83 -5.51,-6.82 -5.50,-6.80 -5.48,-6.78 -5.46,-6.77 -5.44,-6.75 -5.42,-6.73 -5.41,-6.71 -5.39,-6.69 -5.37,-6.67 -5.35,-6.65 -5.33,-6.63 -5.30,-6.60 -5.28,-6.58 -5.26,-6.56 -5.24,-6.53 -5.22,-6.51 -5.19,-6.48 -5.17,-6.46 -5.14,-6.43 -5.12,-6.40 -5.10,-6.38 -5.07,-6.35 -5.04,-6.32 -5.02,-6.29 -4.99,-6.26 -4.96,-6.23 -4.94,-6.20 -4.91,-6.17 -4.88,-6.14 -4.85,-6.11 -4.82,-6.07 -4.79,-6.04 -4.76,-6.01 -4.73,-5.97 -4.70,-5.94 -4.67,-5.90 -4.63,-5.87 -4.60,-5.83 -4.57,-5.79 -4.53,-5.76 -4.50,-5.72 -4.46,-5.68 -4.43,-5.64 -4.39,-5.60 -4.36,-5.56 -4.32,-5.52 -4.29,-5.48 -4.25,-5.44 -4.21,-5.40 -4.17,-5.36 -4.13,-5.32 -4.09,-5.28 -4.06,-5.23 -4.02,-5.19 -3.97,-5.14 -3.93,-5.10 -3.89,-5.06 -3.85,-5.01 -3.81,-4.96 -3.77,-4.92 -3.72,-4.87 -3.68,-4.83 -3.64,-4.78 -3.59,-4.73 -3.55,-4.68 -3.50,-4.63 -3.46,-4.59 -3.41,-4.54 -3.36,-4.49 -3.32,-4.44 -3.27,-4.39 -3.22,-4.34 -3.17,-4.29 -3.13,-4.23 -3.08,-4.18 -3.03,-4.13 -2.98,-4.08 -2.93,-4.03 -2.88,-3.97 -2.83,-3.92 -2.78,-3.87 -2.72,-3.81 -2.67,-3.76 -2.62,-3.70 -2.57,-3.65 -2.51,-3.59 -2.46,-3.54 -2.41,-3.48 -2.35,-3.43 -2.30,-3.37 -2.24,-3.31 -2.19,-3.26 -2.13,-3.20 -2.08,-3.14 -2.02,-3.08 -1.96,-3.03 -1.91,-2.97 -1.85,-2.91 -1.79,-2.85 -1.73,-2.79 -1.67,-2.73 -1.62,-2.68 -1.56,-2.62 -1.50,-2.56 -1.44,-2.50 -1.38,-2.44 -1.32,-2.38 -1.26,-2.32 -1.20,-2.26 -1.14,-2.20 -1.08,-2.13 -1.01,-2.07 -0.95,-2.01 -0.89,-1.95 -0.83,-1.89 -0.77,-1.83 -0.70,-1.77 -0.64,-1.70 -0.58,-1.64 -0.52,-1.58 -0.45,-1.52 -0.39,-1.45 -0.32,-1.39 -0.26,-1.33 -0.20,-1.27 -0.13,-1.20 -0.07,-1.14 -0.00,-1.08 0.06,-1.01 0.13,-0.95 0.19,-0.89 0.26,-0.82 0.32,-0.76 0.39,-0.70 0.45,-0.63 0.52,-0.57 0.59,-0.51 0.65,-0.44 0.72,-0.38 0.78,-0.32 0.85,-0.25 0.92,-0.19 0.98,-0.12 1.05,-0.06 1.11,0.00 1.18,0.07 1.25,0.13 1.31,0.19 1.38,0.26 1.45,0.32 1.51,0.39 1.58,0.45 1.65,0.51 1.71,0.58 1.78,0.64 1.84,0.70 1.91,0.77 1.98,0.83 2.04,0.89 2.11,0.96 2.18,1.02 2.24,1.08 2.31,1.15 2.37,1.21 2.44,1.27 2.50,1.33 2.57,1.40 2.63,1.46 2.70,1.52 2.76,1.58 2.83,1.65 2.89,1.71 2.96,1.77 3.02,1.83 3.09,1.89 3.15,1.95 3.21,2.02 3.28,2.08 3.34,2.14 3.40,2.20 3.47,2.26 3.53,2.32 3.59,2.38 3.65,2.44 3.72,2.50 3.78,2.56 3.84,2.62 3.90,2.68 3.96,2.74 4.02,2.80 4.08,2.85 4.14,2.91 4.20,2.97 4.26,3.03 4.32,3.09 4.37,3.14 4.43,3.20 4.49,3.26 4.55,3.31 4.60,3.37 4.66,3.43 4.71,3.48 4.77,3.54 4.83,3.59 4.88,3.65 4.93,3.70 4.99,3.76 5.04,3.81 5.09,3.86 5.15,3.92 5.20,3.97 5.25,4.02 5.30,4.07 5.35,4.13 5.40,4.18 5.45,4.23 5.50,4.28 5.55,4.33 5.59,4.38 5.64,4.43 5.69,4.48 5.73,4.53 5.78,4.58 5.82,4.63 5.87,4.68 5.91,4.72 5.96,4.77 6.00,4.82 6.04,4.86 6.08,4.91 6.12,4.96 6.16,5.00 6.20,5.05 6.24,5.09 6.28,5.13 6.32,5.18 6.36,5.22 6.39,5.26 6.43,5.31 6.46,5.35 6.50,5.39 6.53,5.43 6.56,5.47 6.60,5.51 6.63,5.55 6.66,5.59 6.69,5.63 6.72,5.66 6.75,5.70 6.77,5.74 6.80,5.78 6.83,5.81 6.85,5.85 6.88,5.88 6.90,5.92 6.93,5.95 6.95,5.98 6.97,6.02 6.99,6.05 7.02,6.08 7.04,6.11 7.05,6.14 7.07,6.17 7.09,6.20 7.11,6.23 7.12,6.26 7.14,6.29 7.15,6.32 7.17,6.34 7.18,6.37 7.19,6.40 7.20,6.42 7.21,6.45 7.22,6.47 7.23,6.50 7.24,6.52 7.25,6.54 7.26,6.56 7.26,6.58 7.27,6.60 7.27,6.62 7.27,6.64 7.28,6.66 7.28,6.68 7.28,6.70 7.28,6.72 7.28,6.73 7.28,6.75 7.28,6.76 7.27,6.78 7.27,6.79 7.26,6.80 7.26,6.82 7.25,6.83 7.24,6.84 7.24,6.85 7.23,6.86 7.22,6.87 7.21,6.88 7.20,6.89 7.18,6.90 7.17,6.90 7.16,6.91 7.14,6.91 7.13,6.92 7.11,6.92 7.09,6.93 7.08,6.93 7.06,6.93 7.04,6.93 7.02,6.94 7.00,6.94 6.98,6.94 6.95,6.93 6.93,6.93 6.91,6.93 6.88,6.93 6.86,6.92 6.83,6.92 6.80,6.91 6.78,6.91 6.75,6.90 6.72,6.90 6.69,6.89 6.66,6.88 6.62,6.87 6.59,6.86 6.56,6.85 6.53,6.84 6.49,6.83 6.46,6.81 6.42,6.80 6.38,6.79 6.35,6.77 6.31,6.76 6.27,6.74 6.23,6.72 6.19,6.71 6.15,6.69 6.11,6.67 6.06,6.65 6.02,6.63 5.98,6.61 5.93,6.59 5.89,6.57 5.84,6.55 5.80,6.52 5.75,6.50 5.70,6.47 5.65,6.45 5.61,6.42 5.56,6.40 5.51,6.37 5.46,6.34 5.41,6.31 5.35,6.28 5.30,6.25 5.25,6.22 5.20,6.19 5.14,6.16 5.09,6.13 5.03,6.09 4.98,6.06 4.92,6.02 4.86,5.99 4.81,5.95 4.75,5.92 4.69,5.88 4.63,5.84 4.57,5.80 4.51,5.76 4.45,5.73 4.39,5.68 4.33,5.64 4.27,5.60 4.21,5.56 4.15,5.52 4.09,5.48 4.02,5.43 3.96,5.39 3.90,5.34 3.83,5.30 3.77,5.25 3.70,5.20 3.64,5.16 3.57,5.11 3.50,5.06 3.44,5.01 3.37,4.96 3.30,4.91 3.24,4.86 3.17,4.81 3.10,4.76 3.03,4.71 2.97,4.65 2.90,4.60 2.83,4.55 2.76,4.49 2.69,4.44 2.62,4.38 2.55,4.33 2.48,4.27 2.41,4.22 2.34,4.16 2.27,4.10 2.20,4.04 2.13,3.99 2.06,3.93 1.98,3.87 1.91,3.81 1.84,3.75 1.77,3.69 1.70,3.63 1.63,3.56 1.55,3.50 1.48,3.44 1.41,3.38 1.34,3.32 1.26,3.25 1.19,3.19 1.12,3.12 1.05,3.06 0.97,3.00 0.90,2.93 0.83,2.87 0.76,2.80 0.68,2.73 0.61,2.67 0.54,2.60 0.47,2.53 0.39,2.47 0.32,2.40 0.25,2.33 0.18,2.26 0.10,2.20 0.03,2.13 -0.04,2.06 -0.11,1.99 -0.19,1.92 -0.26,1.85 -0.33,1.78 -0.40,1.71 -0.47,1.64 -0.54,1.57 -0.62,1.50 -0.69,1.43 -0.76,1.36 -0.83,1.29 -0.90,1.22 -0.97,1.15 -1.04,1.08 -1.11,1.00 -1.18,0.93 -1.25,0.86 -1.32,0.79 -1.39,0.72 -1.46,0.65 -1.53,0.57 -1.60,0.50 -1.67,0.43 -1.73,0.36 -1.80,0.29 -1.87,0.21 -1.94,0.14 -2.00,0.07 -2.07,-0.00 -2.14,-0.07 -2.20,-0.15 -2.27,-0.22 -2.34,-0.29 -2.40,-0.36 -2.47,-0.44 -2.53,-0.51 -2.60,-0.58 -2.66,-0.65 -2.72,-0.72 -2.79,-0.79 -2.85,-0.87 -2.91,-0.94 -2.98,-1.01 -3.04,-1.08 -3.10,-1.15 -3.16,-1.22 -3.22,-1.29 -3.28,-1.36 -3.34,-1.44 -3.40,-1.51 -3.46,-1.58 -3.52,-1.65 -3.58,-1.72 -3.64,-1.79 -3.70,-1.86 -3.75,-1.92 -3.81,-1.99 -3.87,-2.06 -3.92,-2.13 -3.98,-2.20 -4.04,-2.27 -4.09,-2.34 -4.15,-2.40 -4.20,-2.47 -4.25,-2.54 -4.31,-2.61 -4.36,-2.67 -4.41,-2.74 -4.46,-2.81 -4.52,-2.87 -4.57,-2.94 -4.62,-3.00 -4.67,-3.07 -4.72,-3.13 -4.77,-3.20 -4.82,-3.26 -4.86,-3.32 -4.91,-3.39 -4.96,-3.45 -5.01,-3.51 -5.05,-3.57 -5.10,-3.63 -5.14,-3.70 -5.19,-3.76 -5.23,-3.82 -5.28,-3.88 -5.32,-3.94 -5.36,-4.00 -5.41,-4.06 -5.45,-4.11 -5.49,-4.17 -5.53,-4.23 -5.57,-4.29 -5.61,-4.34 -5.65,-4.40 -5.69,-4.46 -5.73,-4.51 -5.76,-4.57 -5.80,-4.62 -5.84,-4.67 -5.88,-4.73 -5.91,-4.78 -5.95,-4.83 -5.98,-4.89 -6.02,-4.94 -6.05,-4.99 -6.08,-5.04 -6.12,-5.09 -6.15,-5.14 -6.18,-5.19 -6.21,-5.24 -6.24,-5.28 -6.27,-5.33 -6.30,-5.38 -6.33,-5.42 -6.36,-5.47 -6.39,-5.52 -6.42,-5.56 -6.44,-5.60 -6.47,-5.65 -6.50,-5.69 -6.52,-5.73 -6.55,-5.78 -6.57,-5.82 -6.59,-5.86 -6.62,-5.90 -6.64,-5.94 -6.66,-5.98 -6.69,-6.02 -6.71,-6.05 -6.73,-6.09 -6.75,-6.13 -6.77,-6.16 -6.79,-6.20 -6.81,-6.23 -6.82,-6.27 -6.84,-6.30 -6.86,-6.33 -6.88,-6.37 -6.89,-6.40 -6.91,-6.43 -6.92,-6.46 -6.94,-6.49 -6.95,-6.52 -6.97,-6.55 -6.98,-6.58 -6.99,-6.60 -7.00,-6.63 -7.01,-6.66 -7.03,-6.68 -7.04,-6.71 -7.05,-6.73 -7.06,-6.76 -7.06,-6.78 -7.07,-6.80 -7.08,-6.82 -7.09,-6.85 -7.09,-6.87 -7.10,-6.89 -7.11,-6.90 -7.11,-6.92 -7.12,-6.94 -7.12,-6.96 -7.13,-6.98 -7.13,-6.99 -7.13,-7.01 -7.13,-7.02 -7.14,-7.04 -7.14,-7.05 -7.14,-7.06 -7.14,-7.07 -7.14,-7.09 -7.14,-7.10 -7.14,-7.11 -7.14,-7.12 -7.13,-7.13 -7.13,-7.13 -7.13,-7.14 -7.12,-7.15 -7.12,-7.15 -7.12,-7.16 -7.11,-7.17 -7.11,-7.17 -7.10,-7.17 -7.09,-7.18 -7.09,-7.18 -7.08,-7.18 -7.07,-7.18 -7.06,-7.18 -7.05,-7.18 -7.04,-7.18 -7.03,-7.18 -7.02,-7.18 -7.01,-7.18 -7.00,-7.17 -6.99,-7.17 -6.98,-7.16 -6.96,-7.16 -6.95,-7.15 -6.94,-7.15 -6.92,-7.14 -6.91,-7.13 -6.89,-7.12 -6.88,-7.11 -6.86,-7.11 -6.85,-7.10 -6.83,-7.08 -6.81,-7.07 -6.79,-7.06 -6.78,-7.05 -6.76,-7.03 -6.74,-7.02 -6.72,-7.01 -6.70,-6.99 -6.68,-6.98 -6.66,-6.96 -6.63,-6.94 -6.61,-6.92 -6.59,-6.91 -6.57,-6.89 -6.54,-6.87 -6.52,-6.85 -6.50,-6.83 -6.47,-6.81 -6.45,-6.79 -6.42,-6.76 -6.39,-6.74 -6.37,-6.72 -6.34,-6.69 -6.31,-6.67 -6.29,-6.64 -6.26,-6.62 -6.23,-6.59 -6.20,-6.57 -6.17,-6.54 -6.14,-6.51 -6.11,-6.48 -6.08,-6.45 -6.05,-6.42 -6.02,-6.39 -5.98,-6.36 -5.95,-6.33 -5.92,-6.30 -5.89,-6.27 -5.85,-6.24 -5.82,-6.20 -5.78,-6.17 -5.75,-6.13 -5.71,-6.10 -5.68,-6.06 -5.64,-6.03 -5.60,-5.99 -5.57,-5.96 -5.53,-5.92 -5.49,-5.88 -5.45,-5.84 -5.41,-5.80 -5.38,-5.76" fill="none" stroke="#ff3b30" stroke-width="1" vector-effect="non-scaling-stroke" stroke-linejoin="round" stroke-linecap="round"/></svg>
