<svg xmlns="http://www.w3.org/2000/svg" viewBox="-11.2 -11.2 22.4 22.4"><title>January 2024 — libration loop, to scale</title><circle r="1" fill="#3a86ff"/><polyline points="-0.05,-5.19 0.02,-5.14 0.08,-5.10 0.14,-5.05 0.20,-5.01 0.26,-4.96 0.33,-4.92 0.39,-4.87 0.45,-4.82 0.51,-4.78 0.58,-4.73 0.64,-4.68 0.70,-4.63 0.77,-4.58 0.83,-4.54 0.89,-4.49 0.96,-4.44 1.02,-4.39 1.08,-4.34 1.15,-4.28 1.21,-4.23 1.28,-4.18 1.34,-4.13 1.40,-4.08 1.47,-4.03 1.53,-3.97 1.60,-3.92 1.66,-3.87 1.73,-3.81 1.79,-3.76 1.85,-3.70 1.92,-3.65 1.98,-3.60 2.05,-3.54 2.11,-3.48 2.17,-3.43 2.24,-3.37 2.30,-3.32 2.37,-3.26 2.43,-3.20 2.49,-3.15 2.56,-3.09 2.62,-3.03 2.69,-2.97 2.75,-2.92 2.81,-2.86 2.88,-2.80 2.94,-2.74 3.00,-2.68 3.06,-2.62 3.13,-2.56 3.19,-2.50 3.25,-2.44 3.31,-2.38 3.37,-2.32 3.44,-2.26 3.50,-2.20 3.56,-2.14 3.62,-2.08 3.68,-2.02 3.74,-1.96 3.80,-1.90 3.86,-1.84 3.92,-1.78 3.98,-1.71 4.04,-1.65 4.10,-1.59 4.15,-1.53 4.21,-1.47 4.27,-1.40 4.33,-1.34 4.38,-1.28 4.44,-1.22 4.50,-1.15 4.55,-1.09 4.61,-1.03 4.66,-0.96 4.72,-0.90 4.77,-0.84 4.82,-0.77 4.88,-0.71 4.93,-0.65 4.98,-0.58 5.03,-0.52 5.09,-0.46 5.14,-0.39 5.19,-0.33 5.24,-0.27 5.29,-0.20 5.34,-0.14 5.38,-0.08 5.43,-0.01 5.48,0.05 5.53,0.11 5.57,0.18 5.62,0.24 5.66,0.31 5.71,0.37 5.75,0.43 5.80,0.50 5.84,0.56 5.88,0.62 5.92,0.69 5.96,0.75 6.00,0.81 6.04,0.88 6.08,0.94 6.12,1.00 6.16,1.06 6.20,1.13 6.23,1.19 6.27,1.25 6.30,1.32 6.34,1.38 6.37,1.44 6.40,1.50 6.44,1.56 6.47,1.63 6.50,1.69 6.53,1.75 6.56,1.81 6.59,1.87 6.62,1.93 6.64,1.99 6.67,2.05 6.70,2.12 6.72,2.18 6.75,2.24 6.77,2.30 6.79,2.36 6.82,2.42 6.84,2.47 6.86,2.53 6.88,2.59 6.90,2.65 6.91,2.71 6.93,2.77 6.95,2.83 6.96,2.88 6.98,2.94 6.99,3.00 7.01,3.06 7.02,3.11 7.03,3.17 7.04,3.22 7.05,3.28 7.06,3.34 7.07,3.39 7.08,3.45 7.08,3.50 7.09,3.56 7.09,3.61 7.10,3.66 7.10,3.72 7.10,3.77 7.11,3.82 7.11,3.87 7.11,3.93 7.11,3.98 7.10,4.03 7.10,4.08 7.10,4.13 7.09,4.18 7.09,4.23 7.08,4.28 7.08,4.33 7.07,4.38 7.06,4.42 7.05,4.47 7.04,4.52 7.03,4.57 7.02,4.61 7.01,4.66 6.99,4.70 6.98,4.75 6.96,4.79 6.95,4.84 6.93,4.88 6.91,4.92 6.89,4.97 6.87,5.01 6.85,5.05 6.83,5.09 6.81,5.13 6.79,5.17 6.77,5.21 6.74,5.25 6.72,5.29 6.69,5.33 6.66,5.36 6.64,5.40 6.61,5.44 6.58,5.47 6.55,5.51 6.52,5.55 6.49,5.58 6.45,5.61 6.42,5.65 6.39,5.68 6.35,5.71 6.32,5.74 6.28,5.77 6.24,5.80 6.21,5.83 6.17,5.86 6.13,5.89 6.09,5.92 6.05,5.95 6.01,5.97 5.97,6.00 5.92,6.03 5.88,6.05 5.84,6.08 5.79,6.10 5.75,6.12 5.70,6.15 5.65,6.17 5.61,6.19 5.56,6.21 5.51,6.23 5.46,6.25 5.41,6.27 5.36,6.29 5.31,6.30 5.26,6.32 5.21,6.34 5.15,6.35 5.10,6.37 5.04,6.38 4.99,6.39 4.94,6.41 4.88,6.42 4.82,6.43 4.77,6.44 4.71,6.45 4.65,6.46 4.59,6.47 4.53,6.48 4.48,6.48 4.42,6.49 4.36,6.50 4.29,6.50 4.23,6.51 4.17,6.51 4.11,6.51 4.05,6.52 3.98,6.52 3.92,6.52 3.86,6.52 3.79,6.52 3.73,6.52 3.66,6.52 3.60,6.51 3.53,6.51 3.47,6.51 3.40,6.50 3.34,6.50 3.27,6.49 3.20,6.48 3.13,6.48 3.07,6.47 3.00,6.46 2.93,6.45 2.86,6.44 2.79,6.43 2.73,6.42 2.66,6.40 2.59,6.39 2.52,6.38 2.45,6.36 2.38,6.35 2.31,6.33 2.24,6.32 2.17,6.30 2.10,6.28 2.03,6.26 1.96,6.24 1.88,6.22 1.81,6.20 1.74,6.18 1.67,6.16 1.60,6.14 1.53,6.11 1.46,6.09 1.39,6.06 1.32,6.04 1.24,6.01 1.17,5.99 1.10,5.96 1.03,5.93 0.96,5.90 0.89,5.87 0.82,5.84 0.75,5.81 0.67,5.78 0.60,5.75 0.53,5.72 0.46,5.68 0.39,5.65 0.32,5.61 0.25,5.58 0.18,5.54 0.11,5.51 0.04,5.47 -0.03,5.43 -0.10,5.39 -0.17,5.36 -0.24,5.32 -0.31,5.28 -0.38,5.24 -0.45,5.19 -0.52,5.15 -0.59,5.11 -0.66,5.07 -0.72,5.02 -0.79,4.98 -0.86,4.94 -0.93,4.89 -0.99,4.85 -1.06,4.80 -1.13,4.75 -1.19,4.71 -1.26,4.66 -1.33,4.61 -1.39,4.56 -1.46,4.51 -1.52,4.46 -1.59,4.41 -1.65,4.36 -1.72,4.31 -1.78,4.26 -1.84,4.21 -1.90,4.15 -1.97,4.10 -2.03,4.05 -2.09,3.99 -2.15,3.94 -2.21,3.88 -2.28,3.83 -2.34,3.77 -2.40,3.72 -2.46,3.66 -2.51,3.60 -2.57,3.55 -2.63,3.49 -2.69,3.43 -2.75,3.37 -2.80,3.31 -2.86,3.26 -2.92,3.20 -2.97,3.14 -3.03,3.08 -3.08,3.02 -3.14,2.96 -3.19,2.89 -3.24,2.83 -3.30,2.77 -3.35,2.71 -3.40,2.65 -3.45,2.58 -3.51,2.52 -3.56,2.46 -3.61,2.39 -3.66,2.33 -3.71,2.27 -3.75,2.20 -3.80,2.14 -3.85,2.07 -3.90,2.01 -3.95,1.94 -3.99,1.88 -4.04,1.81 -4.08,1.75 -4.13,1.68 -4.17,1.62 -4.22,1.55 -4.26,1.48 -4.30,1.42 -4.34,1.35 -4.39,1.28 -4.43,1.22 -4.47,1.15 -4.51,1.08 -4.55,1.01 -4.59,0.95 -4.63,0.88 -4.67,0.81 -4.70,0.74 -4.74,0.68 -4.78,0.61 -4.81,0.54 -4.85,0.47 -4.88,0.40 -4.92,0.34 -4.95,0.27 -4.99,0.20 -5.02,0.13 -5.05,0.06 -5.09,-0.00 -5.12,-0.07 -5.15,-0.14 -5.18,-0.21 -5.21,-0.28 -5.24,-0.34 -5.27,-0.41 -5.30,-0.48 -5.32,-0.55 -5.35,-0.62 -5.38,-0.68 -5.41,-0.75 -5.43,-0.82 -5.46,-0.89 -5.48,-0.96 -5.51,-1.02 -5.53,-1.09 -5.56,-1.16 -5.58,-1.22 -5.60,-1.29 -5.62,-1.36 -5.65,-1.43 -5.67,-1.49 -5.69,-1.56 -5.71,-1.62 -5.73,-1.69 -5.75,-1.76 -5.77,-1.82 -5.78,-1.89 -5.80,-1.95 -5.82,-2.02 -5.84,-2.08 -5.85,-2.15 -5.87,-2.21 -5.88,-2.28 -5.90,-2.34 -5.91,-2.41 -5.93,-2.47 -5.94,-2.53 -5.96,-2.60 -5.97,-2.66 -5.98,-2.72 -5.99,-2.79 -6.00,-2.85 -6.02,-2.91 -6.03,-2.97 -6.04,-3.03 -6.05,-3.09 -6.06,-3.16 -6.06,-3.22 -6.07,-3.28 -6.08,-3.34 -6.09,-3.40 -6.10,-3.46 -6.10,-3.51 -6.11,-3.57 -6.11,-3.63 -6.12,-3.69 -6.13,-3.75 -6.13,-3.80 -6.13,-3.86 -6.14,-3.92 -6.14,-3.97 -6.15,-4.03 -6.15,-4.09 -6.15,-4.14 -6.15,-4.20 -6.15,-4.25 -6.16,-4.30 -6.16,-4.36 -6.16,-4.41 -6.16,-4.46 -6.16,-4.52 -6.16,-4.57 -6.15,-4.62 -6.15,-4.67 -6.15,-4.72 -6.15,-4.77 -6.15,-4.82 -6.14,-4.87 -6.14,-4.92 -6.14,-4.97 -6.13,-5.02 -6.13,-5.06 -6.12,-5.11 -6.12,-5.16 -6.11,-5.20 -6.11,-5.25 -6.10,-5.29 -6.09,-5.34 -6.09,-5.38 -6.08,-5.43 -6.07,-5.47 -6.06,-5.51 -6.05,-5.55 -6.05,-5.60 -6.04,-5.64 -6.03,-5.68 -6.02,-5.72 -6.01,-5.76 -6.00,-5.80 -5.99,-5.84 -5.98,-5.87 -5.96,-5.91 -5.95,-5.95 -5.94,-5.99 -5.93,-6.02 -5.92,-6.06 -5.90,-6.09 -5.89,-6.13 -5.88,-6.16 -5.86,-6.20 -5.85,-6.23 -5.83,-6.26 -5.82,-6.29 -5.80,-6.32 -5.79,-6.35 -5.77,-6.38 -5.75,-6.41 -5.74,-6.44 -5.72,-6.47 -5.70,-6.50 -5.69,-6.53 -5.67,-6.55 -5.65,-6.58 -5.63,-6.60 -5.61,-6.63 -5.59,-6.65 -5.57,-6.68 -5.55,-6.70 -5.53,-6.72 -5.51,-6.75 -5.49,-6.77 -5.47,-6.79 -5.45,-6.81 -5.43,-6.83 -5.40,-6.85 -5.38,-6.87 -5.36,-6.89 -5.34,-6.90 -5.31,-6.92 -5.29,-6.94 -5.26,-6.95 -5.24,-6.97 -5.22,-6.98 -5.19,-7.00 -5.17,-7.01 -5.14,-7.02 -5.11,-7.03 -5.09,-7.05 -5.06,-7.06 -5.03,-7.07 -5.01,-7.08 -4.98,-7.09 -4.95,-7.09 -4.92,-7.10 -4.89,-7.11 -4.86,-7.12 -4.84,-7.12 -4.81,-7.13 -4.78,-7.13 -4.75,-7.14 -4.71,-7.14 -4.68,-7.15 -4.65,-7.15 -4.62,-7.15 -4.59,-7.15 -4.56,-7.15 -4.52,-7.15 -4.49,-7.15 -4.46,-7.15 -4.42,-7.15 -4.39,-7.15 -4.36,-7.14 -4.32,-7.14 -4.29,-7.14 -4.25,-7.13 -4.22,-7.13 -4.18,-7.12 -4.14,-7.12 -4.11,-7.11 -4.07,-7.10 -4.03,-7.09 -4.00,-7.09 -3.96,-7.08 -3.92,-7.07 -3.88,-7.06 -3.84,-7.05 -3.80,-7.03 -3.76,-7.02 -3.72,-7.01 -3.68,-7.00 -3.64,-6.98 -3.60,-6.97 -3.56,-6.95 -3.52,-6.94 -3.48,-6.92 -3.43,-6.91 -3.39,-6.89 -3.35,-6.87 -3.30,-6.85 -3.26,-6.83 -3.22,-6.81 -3.17,-6.79 -3.13,-6.77 -3.08,-6.75 -3.04,-6.73 -2.99,-6.71 -2.95,-6.69 -2.90,-6.66 -2.85,-6.64 -2.81,-6.62 -2.76,-6.59 -2.71,-6.57 -2.66,-6.54 -2.61,-6.51 -2.57,-6.49 -2.52,-6.46 -2.47,-6.43 -2.42,-6.40 -2.37,-6.37 -2.32,-6.34 -2.27,-6.31 -2.22,-6.28 -2.17,-6.25 -2.11,-6.22 -2.06,-6.19 -2.01,-6.16 -1.96,-6.12 -1.91,-6.09 -1.85,-6.06 -1.80,-6.02 -1.75,-5.99 -1.69,-5.95 -1.64,-5.92 -1.58,-5.88 -1.53,-5.84 -1.47,-5.81 -1.42,-5.77 -1.36,-5.73 -1.31,-5.69 -1.25,-5.65 -1.19,-5.61 -1.14,-5.57 -1.08,-5.53 -1.02,-5.49 -0.97,-5.45 -0.91,-5.41 -0.85,-5.37 -0.79,-5.33 -0.73,-5.28 -0.67,-5.24 -0.61,-5.20 -0.56,-5.15 -0.50,-5.11 -0.44,-5.06 -0.38,-5.02 -0.32,-4.97 -0.26,-4.92 -0.19,-4.88 -0.13,-4.83 -0.07,-4.78 -0.01,-4.74 0.05,-4.69 0.11,-4.64 0.17,-4.59 0.24,-4.54 0.30,-4.49 0.36,-4.44 0.42,-4.39 0.49,-4.34 0.55,-4.29 0.61,-4.24 0.68,-4.19 0.74,-4.14 0.80,-4.08 0.87,-4.03 0.93,-3.98 0.99,-3.93 1.06,-3.87 1.12,-3.82 1.19,-3.77 1.25,-3.71 1.32,-3.66 1.38,-3.60 1.45,-3.55 1.51,-3.49 1.58,-3.44 1.64,-3.38 1.71,-3.32 1.77,-3.27 1.84,-3.21 1.90,-3.15 1.97,-3.10 2.03,-3.04 2.10,-2.98 2.16,-2.92 2.23,-2.86 2.29,-2.81 2.36,-2.75 2.42,-2.69 2.49,-2.63 2.56,-2.57 2.62,-2.51 2.69,-2.45 2.75,-2.39 2.82,-2.33 2.88,-2.27 2.95,-2.21 3.01,-2.15 3.08,-2.09 3.14,-2.03 3.21,-1.97 3.27,-1.91 3.34,-1.85 3.40,-1.78 3.47,-1.72 3.53,-1.66 3.59,-1.60 3.66,-1.54 3.72,-1.47 3.79,-1.41 3.85,-1.35 3.91,-1.29 3.98,-1.23 4.04,-1.16 4.10,-1.10 4.17,-1.04 4.23,-0.97 4.29,-0.91 4.35,-0.85 4.41,-0.79 4.48,-0.72 4.54,-0.66 4.60,-0.60 4.66,-0.53 4.72,-0.47 4.78,-0.41 4.84,-0.34 4.90,-0.28 4.96,-0.22 5.02,-0.15 5.08,-0.09 5.14,-0.02 5.19,0.04 5.25,0.10 5.31,0.17" fill="none" stroke="#ff3b30" stroke-width="1" vector-effect="non-scaling-stroke" stroke-linejoin="round" stroke-linecap="round"/></svg>
