<svg xmlns="http://www.w3.org/2000/svg" viewBox="-11.2 -11.2 22.4 22.4"><title>November 2024 — libration loop, to scale</title><circle r="1" fill="#3a86ff"/><polyline points="1.82,3.43 1.88,3.48 1.94,3.54 2.00,3.60 2.06,3.65 2.12,3.71 2.17,3.76 2.23,3.82 2.29,3.87 2.34,3.93 2.40,3.98 2.46,4.04 2.51,4.09 2.57,4.15 2.62,4.20 2.68,4.25 2.73,4.30 2.79,4.36 2.84,4.41 2.90,4.46 2.95,4.51 3.00,4.56 3.05,4.61 3.11,4.66 3.16,4.71 3.21,4.76 3.26,4.81 3.31,4.86 3.37,4.90 3.42,4.95 3.47,5.00 3.52,5.05 3.57,5.09 3.62,5.14 3.66,5.18 3.71,5.23 3.76,5.27 3.81,5.32 3.86,5.36 3.90,5.41 3.95,5.45 4.00,5.49 4.04,5.53 4.09,5.58 4.14,5.62 4.18,5.66 4.23,5.70 4.27,5.74 4.31,5.78 4.36,5.82 4.40,5.85 4.44,5.89 4.49,5.93 4.53,5.97 4.57,6.00 4.61,6.04 4.65,6.07 4.69,6.11 4.74,6.14 4.78,6.18 4.82,6.21 4.85,6.25 4.89,6.28 4.93,6.31 4.97,6.34 5.01,6.37 5.05,6.40 5.08,6.43 5.12,6.46 5.16,6.49 5.19,6.52 5.23,6.55 5.26,6.57 5.30,6.60 5.33,6.63 5.37,6.65 5.40,6.68 5.43,6.70 5.47,6.72 5.50,6.75 5.53,6.77 5.56,6.79 5.59,6.81 5.62,6.84 5.65,6.86 5.68,6.88 5.71,6.90 5.74,6.91 5.77,6.93 5.80,6.95 5.83,6.97 5.86,6.98 5.88,7.00 5.91,7.01 5.94,7.03 5.96,7.04 5.99,7.06 6.01,7.07 6.04,7.08 6.06,7.09 6.09,7.10 6.11,7.11 6.13,7.12 6.15,7.13 6.18,7.14 6.20,7.15 6.22,7.16 6.24,7.16 6.26,7.17 6.28,7.17 6.30,7.18 6.32,7.18 6.34,7.19 6.36,7.19 6.38,7.19 6.39,7.19 6.41,7.19 6.43,7.19 6.44,7.19 6.46,7.19 6.47,7.19 6.49,7.19 6.50,7.19 6.52,7.18 6.53,7.18 6.55,7.18 6.56,7.17 6.57,7.16 6.58,7.16 6.59,7.15 6.60,7.14 6.62,7.13 6.63,7.13 6.63,7.12 6.64,7.11 6.65,7.09 6.66,7.08 6.67,7.07 6.68,7.06 6.68,7.04 6.69,7.03 6.70,7.01 6.70,7.00 6.71,6.98 6.71,6.97 6.71,6.95 6.72,6.93 6.72,6.91 6.72,6.89 6.73,6.87 6.73,6.85 6.73,6.83 6.73,6.81 6.73,6.79 6.73,6.77 6.73,6.74 6.73,6.72 6.73,6.69 6.73,6.67 6.72,6.64 6.72,6.61 6.72,6.59 6.71,6.56 6.71,6.53 6.70,6.50 6.70,6.47 6.69,6.44 6.69,6.41 6.68,6.38 6.67,6.35 6.66,6.32 6.65,6.28 6.65,6.25 6.64,6.21 6.63,6.18 6.62,6.14 6.61,6.11 6.59,6.07 6.58,6.03 6.57,5.99 6.56,5.96 6.54,5.92 6.53,5.88 6.51,5.84 6.50,5.80 6.48,5.75 6.47,5.71 6.45,5.67 6.44,5.63 6.42,5.58 6.40,5.54 6.38,5.50 6.36,5.45 6.34,5.40 6.32,5.36 6.30,5.31 6.28,5.26 6.26,5.22 6.24,5.17 6.21,5.12 6.19,5.07 6.17,5.02 6.14,4.97 6.12,4.92 6.09,4.87 6.07,4.82 6.04,4.76 6.01,4.71 5.99,4.66 5.96,4.60 5.93,4.55 5.90,4.50 5.87,4.44 5.84,4.39 5.81,4.33 5.78,4.27 5.75,4.22 5.72,4.16 5.68,4.10 5.65,4.04 5.62,3.99 5.58,3.93 5.55,3.87 5.51,3.81 5.48,3.75 5.44,3.69 5.40,3.63 5.37,3.57 5.33,3.50 5.29,3.44 5.25,3.38 5.21,3.32 5.17,3.25 5.13,3.19 5.09,3.13 5.05,3.06 5.01,3.00 4.96,2.93 4.92,2.87 4.88,2.80 4.83,2.74 4.79,2.67 4.74,2.61 4.70,2.54 4.65,2.47 4.60,2.41 4.56,2.34 4.51,2.27 4.46,2.21 4.41,2.14 4.36,2.07 4.31,2.00 4.26,1.93 4.21,1.86 4.16,1.80 4.11,1.73 4.06,1.66 4.01,1.59 3.95,1.52 3.90,1.45 3.85,1.38 3.79,1.31 3.74,1.24 3.68,1.17 3.63,1.10 3.57,1.03 3.51,0.96 3.46,0.89 3.40,0.81 3.34,0.74 3.28,0.67 3.22,0.60 3.17,0.53 3.11,0.46 3.05,0.39 2.99,0.32 2.92,0.24 2.86,0.17 2.80,0.10 2.74,0.03 2.68,-0.04 2.61,-0.11 2.55,-0.18 2.49,-0.26 2.42,-0.33 2.36,-0.40 2.29,-0.47 2.23,-0.54 2.16,-0.61 2.10,-0.68 2.03,-0.75 1.97,-0.83 1.90,-0.90 1.83,-0.97 1.76,-1.04 1.70,-1.11 1.63,-1.18 1.56,-1.25 1.49,-1.32 1.42,-1.39 1.35,-1.46 1.29,-1.53 1.22,-1.60 1.15,-1.67 1.08,-1.74 1.01,-1.81 0.94,-1.87 0.86,-1.94 0.79,-2.01 0.72,-2.08 0.65,-2.15 0.58,-2.21 0.51,-2.28 0.43,-2.35 0.36,-2.42 0.29,-2.48 0.22,-2.55 0.15,-2.62 0.07,-2.68 -0.00,-2.75 -0.07,-2.81 -0.15,-2.88 -0.22,-2.94 -0.29,-3.01 -0.37,-3.07 -0.44,-3.13 -0.51,-3.20 -0.59,-3.26 -0.66,-3.32 -0.74,-3.38 -0.81,-3.44 -0.88,-3.51 -0.96,-3.57 -1.03,-3.63 -1.11,-3.69 -1.18,-3.75 -1.25,-3.81 -1.33,-3.87 -1.40,-3.92 -1.48,-3.98 -1.55,-4.04 -1.62,-4.10 -1.70,-4.15 -1.77,-4.21 -1.85,-4.26 -1.92,-4.32 -1.99,-4.37 -2.07,-4.43 -2.14,-4.48 -2.21,-4.54 -2.29,-4.59 -2.36,-4.64 -2.43,-4.69 -2.50,-4.74 -2.58,-4.79 -2.65,-4.84 -2.72,-4.89 -2.79,-4.94 -2.86,-4.99 -2.94,-5.04 -3.01,-5.09 -3.08,-5.13 -3.15,-5.18 -3.22,-5.22 -3.29,-5.27 -3.36,-5.31 -3.43,-5.36 -3.50,-5.40 -3.57,-5.44 -3.64,-5.49 -3.71,-5.53 -3.77,-5.57 -3.84,-5.61 -3.91,-5.65 -3.98,-5.69 -4.04,-5.73 -4.11,-5.76 -4.18,-5.80 -4.24,-5.84 -4.31,-5.87 -4.37,-5.91 -4.44,-5.94 -4.50,-5.98 -4.56,-6.01 -4.63,-6.04 -4.69,-6.08 -4.75,-6.11 -4.81,-6.14 -4.87,-6.17 -4.94,-6.20 -5.00,-6.23 -5.06,-6.25 -5.11,-6.28 -5.17,-6.31 -5.23,-6.33 -5.29,-6.36 -5.35,-6.38 -5.40,-6.41 -5.46,-6.43 -5.52,-6.46 -5.57,-6.48 -5.62,-6.50 -5.68,-6.52 -5.73,-6.54 -5.78,-6.56 -5.84,-6.58 -5.89,-6.60 -5.94,-6.61 -5.99,-6.63 -6.04,-6.65 -6.09,-6.66 -6.13,-6.68 -6.18,-6.69 -6.23,-6.70 -6.28,-6.71 -6.32,-6.73 -6.37,-6.74 -6.41,-6.75 -6.45,-6.76 -6.50,-6.77 -6.54,-6.77 -6.58,-6.78 -6.62,-6.79 -6.66,-6.80 -6.70,-6.80 -6.74,-6.81 -6.78,-6.81 -6.81,-6.81 -6.85,-6.82 -6.88,-6.82 -6.92,-6.82 -6.95,-6.82 -6.99,-6.82 -7.02,-6.82 -7.05,-6.82 -7.08,-6.82 -7.11,-6.82 -7.14,-6.81 -7.17,-6.81 -7.20,-6.80 -7.22,-6.80 -7.25,-6.79 -7.27,-6.79 -7.30,-6.78 -7.32,-6.77 -7.35,-6.76 -7.37,-6.75 -7.39,-6.74 -7.41,-6.73 -7.43,-6.72 -7.45,-6.71 -7.47,-6.70 -7.48,-6.69 -7.50,-6.67 -7.51,-6.66 -7.53,-6.64 -7.54,-6.63 -7.56,-6.61 -7.57,-6.59 -7.58,-6.58 -7.59,-6.56 -7.60,-6.54 -7.61,-6.52 -7.62,-6.50 -7.62,-6.48 -7.63,-6.46 -7.63,-6.44 -7.64,-6.42 -7.64,-6.39 -7.64,-6.37 -7.65,-6.35 -7.65,-6.32 -7.65,-6.30 -7.65,-6.27 -7.65,-6.24 -7.64,-6.22 -7.64,-6.19 -7.64,-6.16 -7.63,-6.13 -7.63,-6.10 -7.62,-6.07 -7.61,-6.04 -7.60,-6.01 -7.60,-5.98 -7.59,-5.95 -7.57,-5.92 -7.56,-5.88 -7.55,-5.85 -7.54,-5.82 -7.52,-5.78 -7.51,-5.75 -7.49,-5.71 -7.48,-5.68 -7.46,-5.64 -7.44,-5.60 -7.42,-5.56 -7.40,-5.53 -7.38,-5.49 -7.36,-5.45 -7.34,-5.41 -7.32,-5.37 -7.30,-5.33 -7.27,-5.29 -7.25,-5.25 -7.22,-5.21 -7.19,-5.16 -7.17,-5.12 -7.14,-5.08 -7.11,-5.03 -7.08,-4.99 -7.05,-4.95 -7.02,-4.90 -6.99,-4.86 -6.96,-4.81 -6.92,-4.76 -6.89,-4.72 -6.86,-4.67 -6.82,-4.62 -6.79,-4.58 -6.75,-4.53 -6.71,-4.48 -6.67,-4.43 -6.64,-4.38 -6.60,-4.33 -6.56,-4.28 -6.52,-4.23 -6.48,-4.18 -6.43,-4.13 -6.39,-4.08 -6.35,-4.03 -6.30,-3.97 -6.26,-3.92 -6.22,-3.87 -6.17,-3.82 -6.12,-3.76 -6.08,-3.71 -6.03,-3.66 -5.98,-3.60 -5.94,-3.55 -5.89,-3.49 -5.84,-3.44 -5.79,-3.38 -5.74,-3.33 -5.69,-3.27 -5.64,-3.21 -5.58,-3.16 -5.53,-3.10 -5.48,-3.04 -5.43,-2.99 -5.37,-2.93 -5.32,-2.87 -5.26,-2.81 -5.21,-2.76 -5.15,-2.70 -5.10,-2.64 -5.04,-2.58 -4.98,-2.52 -4.93,-2.46 -4.87,-2.40 -4.81,-2.34 -4.75,-2.28 -4.69,-2.22 -4.63,-2.16 -4.57,-2.10 -4.51,-2.04 -4.45,-1.98 -4.39,-1.92 -4.33,-1.86 -4.27,-1.80 -4.21,-1.74 -4.15,-1.67 -4.09,-1.61 -4.03,-1.55 -3.96,-1.49 -3.90,-1.43 -3.84,-1.36 -3.77,-1.30 -3.71,-1.24 -3.65,-1.18 -3.58,-1.11 -3.52,-1.05 -3.45,-0.99 -3.39,-0.93 -3.32,-0.86 -3.26,-0.80 -3.19,-0.74 -3.13,-0.67 -3.06,-0.61 -3.00,-0.55 -2.93,-0.49 -2.87,-0.42 -2.80,-0.36 -2.73,-0.30 -2.67,-0.23 -2.60,-0.17 -2.54,-0.11 -2.47,-0.04 -2.40,0.02 -2.34,0.08 -2.27,0.15 -2.20,0.21 -2.14,0.27 -2.07,0.34 -2.00,0.40 -1.94,0.46 -1.87,0.53 -1.80,0.59 -1.74,0.65 -1.67,0.72 -1.60,0.78 -1.54,0.84 -1.47,0.91 -1.40,0.97 -1.34,1.03 -1.27,1.09 -1.20,1.16 -1.14,1.22 -1.07,1.28 -1.01,1.34 -0.94,1.41 -0.87,1.47 -0.81,1.53 -0.74,1.59 -0.68,1.66 -0.61,1.72 -0.55,1.78 -0.48,1.84 -0.42,1.90 -0.35,1.96 -0.29,2.02 -0.22,2.08 -0.16,2.14 -0.10,2.20 -0.03,2.26 0.03,2.33 0.10,2.38 0.16,2.44 0.22,2.50 0.28,2.56 0.35,2.62 0.41,2.68 0.47,2.74 0.53,2.80 0.59,2.86 0.66,2.92 0.72,2.97 0.78,3.03 0.84,3.09 0.90,3.15 0.96,3.20 1.02,3.26 1.08,3.31 1.14,3.37 1.19,3.43 1.25,3.48 1.31,3.54 1.37,3.59 1.43,3.65 1.48,3.70 1.54,3.76 1.60,3.81 1.65,3.86 1.71,3.92 1.76,3.97 1.82,4.02 1.87,4.07 1.93,4.13 1.98,4.18 2.03,4.23 2.09,4.28 2.14,4.33 2.19,4.38 2.24,4.43 2.30,4.48 2.35,4.53 2.40,4.58 2.45,4.63 2.50,4.67 2.55,4.72 2.60,4.77 2.65,4.82 2.69,4.86 2.74,4.91 2.79,4.96 2.84,5.00 2.88,5.05 2.93,5.09 2.98,5.13 3.02,5.18 3.07,5.22 3.11,5.26 3.16,5.31 3.20,5.35 3.24,5.39 3.29,5.43 3.33,5.47 3.37,5.51 3.41,5.55 3.45,5.59 3.49,5.63 3.54,5.67 3.58,5.71 3.61,5.74 3.65,5.78 3.69,5.82 3.73,5.85 3.77,5.89 3.81,5.92 3.84,5.96 3.88,5.99 3.91,6.03 3.95,6.06 3.98,6.09 4.02,6.12 4.05,6.16 4.09,6.19 4.12,6.22 4.15,6.25 4.19,6.28 4.22,6.31 4.25,6.33" fill="none" stroke="#ff3b30" stroke-width="1" vector-effect="non-scaling-stroke" stroke-linejoin="round" stroke-linecap="round"/></svg>
