<svg xmlns="http://www.w3.org/2000/svg" viewBox="-11.2 -11.2 22.4 22.4"><title>May 2024 — libration loop, to scale</title><circle r="1" fill="#3a86ff"/><polyline points="5.50,6.54 5.47,6.51 5.44,6.49 5.41,6.46 5.38,6.43 5.35,6.40 5.32,6.37 5.28,6.34 5.25,6.31 5.22,6.28 5.19,6.25 5.15,6.21 5.12,6.18 5.08,6.14 5.05,6.11 5.01,6.07 4.98,6.04 4.94,6.00 4.91,5.96 4.87,5.93 4.83,5.89 4.79,5.85 4.76,5.81 4.72,5.77 4.68,5.73 4.64,5.69 4.60,5.64 4.56,5.60 4.52,5.56 4.48,5.51 4.44,5.47 4.40,5.42 4.36,5.38 4.31,5.33 4.27,5.29 4.23,5.24 4.19,5.19 4.14,5.14 4.10,5.09 4.05,5.04 4.01,4.99 3.96,4.94 3.92,4.89 3.87,4.84 3.83,4.79 3.78,4.74 3.74,4.68 3.69,4.63 3.64,4.58 3.59,4.52 3.55,4.47 3.50,4.41 3.45,4.35 3.40,4.30 3.35,4.24 3.30,4.18 3.25,4.13 3.20,4.07 3.15,4.01 3.10,3.95 3.05,3.89 3.00,3.83 2.95,3.77 2.89,3.71 2.84,3.65 2.79,3.59 2.74,3.53 2.68,3.46 2.63,3.40 2.58,3.34 2.52,3.28 2.47,3.21 2.41,3.15 2.36,3.08 2.31,3.02 2.25,2.95 2.19,2.89 2.14,2.82 2.08,2.76 2.03,2.69 1.97,2.62 1.91,2.56 1.86,2.49 1.80,2.42 1.74,2.35 1.69,2.29 1.63,2.22 1.57,2.15 1.51,2.08 1.45,2.01 1.40,1.94 1.34,1.87 1.28,1.80 1.22,1.73 1.16,1.66 1.10,1.59 1.04,1.52 0.98,1.45 0.92,1.38 0.86,1.31 0.80,1.24 0.74,1.17 0.68,1.10 0.62,1.03 0.56,0.96 0.50,0.88 0.44,0.81 0.38,0.74 0.32,0.67 0.26,0.60 0.20,0.53 0.13,0.45 0.07,0.38 0.01,0.31 -0.05,0.24 -0.11,0.17 -0.17,0.09 -0.24,0.02 -0.30,-0.05 -0.36,-0.12 -0.42,-0.20 -0.48,-0.27 -0.54,-0.34 -0.61,-0.41 -0.67,-0.48 -0.73,-0.56 -0.79,-0.63 -0.85,-0.70 -0.92,-0.77 -0.98,-0.84 -1.04,-0.92 -1.10,-0.99 -1.16,-1.06 -1.22,-1.13 -1.29,-1.20 -1.35,-1.27 -1.41,-1.34 -1.47,-1.41 -1.53,-1.48 -1.59,-1.55 -1.65,-1.63 -1.71,-1.70 -1.78,-1.77 -1.84,-1.84 -1.90,-1.90 -1.96,-1.97 -2.02,-2.04 -2.08,-2.11 -2.14,-2.18 -2.20,-2.25 -2.26,-2.32 -2.32,-2.39 -2.38,-2.45 -2.44,-2.52 -2.50,-2.59 -2.56,-2.65 -2.62,-2.72 -2.67,-2.79 -2.73,-2.85 -2.79,-2.92 -2.85,-2.98 -2.91,-3.05 -2.96,-3.11 -3.02,-3.18 -3.08,-3.24 -3.14,-3.31 -3.19,-3.37 -3.25,-3.43 -3.30,-3.50 -3.36,-3.56 -3.41,-3.62 -3.47,-3.68 -3.52,-3.74 -3.58,-3.80 -3.63,-3.86 -3.69,-3.92 -3.74,-3.98 -3.79,-4.04 -3.85,-4.10 -3.90,-4.16 -3.95,-4.22 -4.00,-4.28 -4.05,-4.33 -4.11,-4.39 -4.16,-4.44 -4.21,-4.50 -4.26,-4.56 -4.31,-4.61 -4.35,-4.66 -4.40,-4.72 -4.45,-4.77 -4.50,-4.82 -4.55,-4.88 -4.59,-4.93 -4.64,-4.98 -4.69,-5.03 -4.73,-5.08 -4.78,-5.13 -4.82,-5.18 -4.86,-5.23 -4.91,-5.27 -4.95,-5.32 -4.99,-5.37 -5.04,-5.41 -5.08,-5.46 -5.12,-5.51 -5.16,-5.55 -5.20,-5.59 -5.24,-5.64 -5.28,-5.68 -5.32,-5.72 -5.35,-5.77 -5.39,-5.81 -5.43,-5.85 -5.46,-5.89 -5.50,-5.93 -5.53,-5.97 -5.57,-6.00 -5.60,-6.04 -5.64,-6.08 -5.67,-6.12 -5.70,-6.15 -5.73,-6.19 -5.76,-6.22 -5.79,-6.26 -5.82,-6.29 -5.85,-6.32 -5.88,-6.35 -5.91,-6.39 -5.93,-6.42 -5.96,-6.45 -5.99,-6.48 -6.01,-6.51 -6.04,-6.53 -6.06,-6.56 -6.08,-6.59 -6.11,-6.62 -6.13,-6.64 -6.15,-6.67 -6.17,-6.69 -6.19,-6.72 -6.21,-6.74 -6.23,-6.76 -6.24,-6.78 -6.26,-6.81 -6.28,-6.83 -6.29,-6.85 -6.31,-6.87 -6.32,-6.89 -6.34,-6.90 -6.35,-6.92 -6.36,-6.94 -6.37,-6.95 -6.38,-6.97 -6.39,-6.98 -6.40,-7.00 -6.41,-7.01 -6.42,-7.03 -6.43,-7.04 -6.43,-7.05 -6.44,-7.06 -6.44,-7.07 -6.45,-7.08 -6.45,-7.09 -6.46,-7.10 -6.46,-7.11 -6.46,-7.11 -6.46,-7.12 -6.46,-7.13 -6.46,-7.13 -6.46,-7.14 -6.45,-7.14 -6.45,-7.14 -6.45,-7.15 -6.44,-7.15 -6.44,-7.15 -6.43,-7.15 -6.43,-7.15 -6.42,-7.15 -6.41,-7.15 -6.40,-7.15 -6.39,-7.14 -6.38,-7.14 -6.37,-7.14 -6.36,-7.13 -6.35,-7.13 -6.33,-7.12 -6.32,-7.11 -6.31,-7.11 -6.29,-7.10 -6.27,-7.09 -6.26,-7.08 -6.24,-7.07 -6.22,-7.06 -6.20,-7.05 -6.18,-7.04 -6.16,-7.03 -6.14,-7.02 -6.12,-7.00 -6.10,-6.99 -6.07,-6.98 -6.05,-6.96 -6.03,-6.95 -6.00,-6.93 -5.98,-6.91 -5.95,-6.90 -5.92,-6.88 -5.89,-6.86 -5.87,-6.84 -5.84,-6.82 -5.81,-6.80 -5.78,-6.78 -5.75,-6.76 -5.71,-6.74 -5.68,-6.71 -5.65,-6.69 -5.61,-6.67 -5.58,-6.64 -5.55,-6.62 -5.51,-6.59 -5.47,-6.57 -5.44,-6.54 -5.40,-6.51 -5.36,-6.49 -5.32,-6.46 -5.28,-6.43 -5.24,-6.40 -5.20,-6.37 -5.16,-6.34 -5.12,-6.31 -5.08,-6.28 -5.04,-6.25 -4.99,-6.22 -4.95,-6.18 -4.91,-6.15 -4.86,-6.12 -4.82,-6.08 -4.77,-6.05 -4.72,-6.01 -4.68,-5.98 -4.63,-5.94 -4.58,-5.90 -4.53,-5.87 -4.48,-5.83 -4.43,-5.79 -4.39,-5.75 -4.33,-5.71 -4.28,-5.67 -4.23,-5.63 -4.18,-5.59 -4.13,-5.55 -4.08,-5.51 -4.02,-5.47 -3.97,-5.42 -3.92,-5.38 -3.86,-5.34 -3.81,-5.30 -3.75,-5.25 -3.70,-5.21 -3.64,-5.16 -3.59,-5.12 -3.53,-5.07 -3.47,-5.02 -3.42,-4.98 -3.36,-4.93 -3.30,-4.88 -3.24,-4.84 -3.18,-4.79 -3.12,-4.74 -3.07,-4.69 -3.01,-4.64 -2.95,-4.59 -2.89,-4.54 -2.83,-4.49 -2.77,-4.44 -2.71,-4.39 -2.64,-4.34 -2.58,-4.29 -2.52,-4.23 -2.46,-4.18 -2.40,-4.13 -2.34,-4.08 -2.27,-4.02 -2.21,-3.97 -2.15,-3.91 -2.09,-3.86 -2.02,-3.81 -1.96,-3.75 -1.90,-3.70 -1.83,-3.64 -1.77,-3.58 -1.71,-3.53 -1.64,-3.47 -1.58,-3.41 -1.51,-3.36 -1.45,-3.30 -1.39,-3.24 -1.32,-3.18 -1.26,-3.13 -1.19,-3.07 -1.13,-3.01 -1.06,-2.95 -1.00,-2.89 -0.93,-2.83 -0.87,-2.77 -0.81,-2.71 -0.74,-2.65 -0.68,-2.59 -0.61,-2.53 -0.55,-2.47 -0.48,-2.41 -0.42,-2.35 -0.35,-2.29 -0.29,-2.23 -0.22,-2.17 -0.16,-2.11 -0.10,-2.04 -0.03,-1.98 0.03,-1.92 0.10,-1.86 0.16,-1.80 0.22,-1.73 0.29,-1.67 0.35,-1.61 0.41,-1.54 0.48,-1.48 0.54,-1.42 0.60,-1.35 0.67,-1.29 0.73,-1.23 0.79,-1.16 0.85,-1.10 0.92,-1.04 0.98,-0.97 1.04,-0.91 1.10,-0.85 1.16,-0.78 1.22,-0.72 1.28,-0.65 1.34,-0.59 1.40,-0.52 1.46,-0.46 1.52,-0.40 1.58,-0.33 1.64,-0.27 1.70,-0.20 1.76,-0.14 1.82,-0.07 1.88,-0.01 1.93,0.06 1.99,0.12 2.05,0.19 2.10,0.25 2.16,0.31 2.22,0.38 2.27,0.44 2.33,0.51 2.38,0.57 2.44,0.64 2.49,0.70 2.55,0.76 2.60,0.83 2.65,0.89 2.71,0.96 2.76,1.02 2.81,1.08 2.86,1.15 2.91,1.21 2.97,1.28 3.02,1.34 3.07,1.40 3.12,1.47 3.16,1.53 3.21,1.59 3.26,1.65 3.31,1.72 3.36,1.78 3.40,1.84 3.45,1.90 3.50,1.97 3.54,2.03 3.59,2.09 3.63,2.15 3.68,2.21 3.72,2.27 3.76,2.34 3.81,2.40 3.85,2.46 3.89,2.52 3.93,2.58 3.97,2.64 4.01,2.70 4.05,2.76 4.09,2.82 4.13,2.88 4.17,2.93 4.21,2.99 4.25,3.05 4.28,3.11 4.32,3.17 4.36,3.23 4.39,3.28 4.43,3.34 4.46,3.40 4.50,3.45 4.53,3.51 4.56,3.57 4.59,3.62 4.63,3.68 4.66,3.73 4.69,3.79 4.72,3.84 4.75,3.89 4.78,3.95 4.81,4.00 4.83,4.05 4.86,4.11 4.89,4.16 4.91,4.21 4.94,4.26 4.97,4.31 4.99,4.36 5.01,4.42 5.04,4.47 5.06,4.52 5.08,4.56 5.11,4.61 5.13,4.66 5.15,4.71 5.17,4.76 5.19,4.81 5.21,4.85 5.23,4.90 5.25,4.94 5.27,4.99 5.28,5.04 5.30,5.08 5.32,5.12 5.33,5.17 5.35,5.21 5.36,5.25 5.38,5.30 5.39,5.34 5.40,5.38 5.42,5.42 5.43,5.46 5.44,5.50 5.45,5.54 5.46,5.58 5.47,5.62 5.48,5.66 5.49,5.70 5.50,5.73 5.51,5.77 5.51,5.81 5.52,5.84 5.53,5.88 5.53,5.91 5.54,5.94 5.54,5.98 5.55,6.01 5.55,6.04 5.56,6.07 5.56,6.11 5.56,6.14 5.56,6.17 5.56,6.20 5.57,6.23 5.57,6.25 5.57,6.28 5.57,6.31 5.57,6.34 5.56,6.36 5.56,6.39 5.56,6.41 5.56,6.44 5.56,6.46 5.55,6.48 5.55,6.51 5.54,6.53 5.54,6.55 5.53,6.57 5.53,6.59 5.52,6.61 5.51,6.63 5.51,6.65 5.50,6.67 5.49,6.68 5.48,6.70 5.48,6.72 5.47,6.73 5.46,6.75 5.45,6.76 5.44,6.77 5.43,6.79 5.42,6.80 5.40,6.81 5.39,6.82 5.38,6.83 5.37,6.84 5.35,6.85 5.34,6.86 5.33,6.87 5.31,6.87 5.30,6.88 5.28,6.88 5.27,6.89 5.25,6.89 5.24,6.90 5.22,6.90 5.20,6.90 5.19,6.90 5.17,6.91 5.15,6.91 5.13,6.91 5.12,6.91 5.10,6.90 5.08,6.90 5.06,6.90 5.04,6.89 5.02,6.89 5.00,6.89 4.98,6.88 4.96,6.87 4.94,6.87 4.92,6.86 4.89,6.85 4.87,6.84 4.85,6.83 4.83,6.82 4.80,6.81 4.78,6.80 4.76,6.79 4.73,6.78 4.71,6.76 4.68,6.75 4.66,6.73 4.64,6.72 4.61,6.70 4.59,6.69 4.56,6.67 4.53,6.65 4.51,6.63 4.48,6.61 4.45,6.59 4.43,6.57 4.40,6.55 4.37,6.53 4.35,6.51 4.32,6.48 4.29,6.46 4.26,6.43 4.23,6.41 4.20,6.38 4.18,6.36 4.15,6.33 4.12,6.30 4.09,6.27 4.06,6.24 4.03,6.21 4.00,6.18 3.97,6.15 3.94,6.12 3.91,6.09 3.88,6.06 3.84,6.02 3.81,5.99 3.78,5.96 3.75,5.92 3.72,5.89 3.69,5.85 3.65,5.81 3.62,5.78 3.59,5.74 3.55,5.70 3.52,5.66 3.49,5.62 3.46,5.58 3.42,5.54 3.39,5.50 3.35,5.46 3.32,5.41 3.29,5.37 3.25,5.33 3.22,5.28 3.18,5.24 3.15,5.19 3.11,5.15 3.08,5.10 3.04,5.05 3.01,5.01 2.97,4.96 2.93,4.91 2.90,4.86 2.86,4.81 2.83,4.76 2.79,4.71 2.75,4.66 2.72,4.61 2.68,4.56 2.64,4.51 2.60,4.45 2.57,4.40 2.53,4.35 2.49,4.29 2.45,4.24 2.42,4.18 2.38,4.13 2.34,4.07 2.30,4.01 2.26,3.96 2.23,3.90 2.19,3.84 2.15,3.79 2.11,3.73 2.07,3.67 2.03,3.61 1.99,3.55 1.95,3.49 1.91,3.43 1.87,3.37 1.83,3.31 1.79,3.25 1.75,3.19 1.71,3.12 1.67,3.06 1.63,3.00 1.59,2.94 1.55,2.87 1.51,2.81 1.47,2.75 1.43,2.68 1.39,2.62 1.35,2.55 1.30,2.49 1.26,2.42 1.22,2.36 1.18,2.29 1.14,2.23 1.10,2.16 1.05,2.10 1.01,2.03 0.97,1.96 0.93,1.90 0.88,1.83" fill="none" stroke="#ff3b30" stroke-width="1" vector-effect="non-scaling-stroke" stroke-linejoin="round" stroke-linecap="round"/></svg>
