<svg xmlns="http://www.w3.org/2000/svg" viewBox="-11.2 -11.2 22.4 22.4"><title>April 2024 — libration loop, to scale</title><circle r="1" fill="#3a86ff"/><polyline points="7.74,6.83 7.74,6.85 7.73,6.86 7.73,6.88 7.72,6.90 7.72,6.91 7.71,6.92 7.70,6.94 7.69,6.95 7.69,6.96 7.68,6.97 7.67,6.98 7.66,6.99 7.65,7.00 7.64,7.01 7.62,7.02 7.61,7.03 7.60,7.03 7.58,7.04 7.57,7.05 7.55,7.05 7.54,7.05 7.52,7.06 7.50,7.06 7.48,7.06 7.47,7.06 7.45,7.06 7.43,7.06 7.41,7.06 7.38,7.06 7.36,7.06 7.34,7.06 7.32,7.05 7.29,7.05 7.27,7.04 7.24,7.04 7.22,7.03 7.19,7.02 7.16,7.02 7.14,7.01 7.11,7.00 7.08,6.99 7.05,6.98 7.02,6.97 6.99,6.96 6.96,6.94 6.92,6.93 6.89,6.92 6.86,6.90 6.82,6.89 6.79,6.87 6.75,6.85 6.72,6.84 6.68,6.82 6.64,6.80 6.61,6.78 6.57,6.76 6.53,6.74 6.49,6.72 6.45,6.70 6.41,6.67 6.37,6.65 6.32,6.63 6.28,6.60 6.24,6.58 6.19,6.55 6.15,6.52 6.10,6.49 6.06,6.47 6.01,6.44 5.97,6.41 5.92,6.38 5.87,6.35 5.82,6.31 5.77,6.28 5.72,6.25 5.67,6.22 5.62,6.18 5.57,6.15 5.52,6.11 5.47,6.07 5.42,6.04 5.36,6.00 5.31,5.96 5.25,5.92 5.20,5.88 5.14,5.84 5.09,5.80 5.03,5.76 4.98,5.72 4.92,5.68 4.86,5.63 4.80,5.59 4.74,5.55 4.68,5.50 4.62,5.46 4.56,5.41 4.50,5.36 4.44,5.32 4.38,5.27 4.32,5.22 4.26,5.17 4.19,5.12 4.13,5.07 4.07,5.02 4.00,4.97 3.94,4.92 3.87,4.86 3.81,4.81 3.74,4.76 3.68,4.70 3.61,4.65 3.54,4.60 3.48,4.54 3.41,4.48 3.34,4.43 3.27,4.37 3.20,4.31 3.13,4.25 3.07,4.20 3.00,4.14 2.93,4.08 2.86,4.02 2.79,3.96 2.71,3.90 2.64,3.84 2.57,3.77 2.50,3.71 2.43,3.65 2.36,3.59 2.28,3.52 2.21,3.46 2.14,3.40 2.07,3.33 1.99,3.27 1.92,3.20 1.85,3.14 1.77,3.07 1.70,3.00 1.62,2.94 1.55,2.87 1.48,2.80 1.40,2.74 1.33,2.67 1.25,2.60 1.18,2.53 1.10,2.46 1.03,2.39 0.95,2.33 0.87,2.26 0.80,2.19 0.72,2.12 0.65,2.05 0.57,1.98 0.50,1.90 0.42,1.83 0.34,1.76 0.27,1.69 0.19,1.62 0.12,1.55 0.04,1.48 -0.04,1.40 -0.11,1.33 -0.19,1.26 -0.27,1.19 -0.34,1.11 -0.42,1.04 -0.49,0.97 -0.57,0.89 -0.65,0.82 -0.72,0.75 -0.80,0.67 -0.87,0.60 -0.95,0.53 -1.02,0.45 -1.10,0.38 -1.17,0.31 -1.25,0.23 -1.32,0.16 -1.40,0.09 -1.47,0.01 -1.55,-0.06 -1.62,-0.14 -1.70,-0.21 -1.77,-0.28 -1.84,-0.36 -1.92,-0.43 -1.99,-0.50 -2.06,-0.58 -2.14,-0.65 -2.21,-0.72 -2.28,-0.80 -2.35,-0.87 -2.43,-0.94 -2.50,-1.02 -2.57,-1.09 -2.64,-1.16 -2.71,-1.24 -2.78,-1.31 -2.85,-1.38 -2.92,-1.45 -2.99,-1.53 -3.06,-1.60 -3.13,-1.67 -3.20,-1.74 -3.26,-1.81 -3.33,-1.88 -3.40,-1.95 -3.47,-2.03 -3.53,-2.10 -3.60,-2.17 -3.67,-2.24 -3.73,-2.31 -3.80,-2.38 -3.86,-2.44 -3.93,-2.51 -3.99,-2.58 -4.05,-2.65 -4.12,-2.72 -4.18,-2.79 -4.24,-2.85 -4.30,-2.92 -4.36,-2.99 -4.42,-3.06 -4.48,-3.12 -4.54,-3.19 -4.60,-3.25 -4.66,-3.32 -4.72,-3.38 -4.78,-3.45 -4.83,-3.51 -4.89,-3.58 -4.95,-3.64 -5.00,-3.70 -5.06,-3.77 -5.11,-3.83 -5.17,-3.89 -5.22,-3.95 -5.27,-4.01 -5.32,-4.07 -5.37,-4.13 -5.43,-4.19 -5.48,-4.25 -5.53,-4.31 -5.58,-4.37 -5.62,-4.43 -5.67,-4.49 -5.72,-4.54 -5.77,-4.60 -5.81,-4.65 -5.86,-4.71 -5.90,-4.77 -5.95,-4.82 -5.99,-4.87 -6.03,-4.93 -6.08,-4.98 -6.12,-5.03 -6.16,-5.09 -6.20,-5.14 -6.24,-5.19 -6.28,-5.24 -6.32,-5.29 -6.35,-5.34 -6.39,-5.39 -6.43,-5.44 -6.46,-5.48 -6.50,-5.53 -6.53,-5.58 -6.56,-5.62 -6.60,-5.67 -6.63,-5.71 -6.66,-5.76 -6.69,-5.80 -6.72,-5.85 -6.75,-5.89 -6.78,-5.93 -6.81,-5.97 -6.83,-6.01 -6.86,-6.05 -6.89,-6.09 -6.91,-6.13 -6.93,-6.17 -6.96,-6.21 -6.98,-6.25 -7.00,-6.28 -7.02,-6.32 -7.04,-6.36 -7.06,-6.39 -7.08,-6.42 -7.10,-6.46 -7.12,-6.49 -7.14,-6.52 -7.15,-6.56 -7.17,-6.59 -7.18,-6.62 -7.19,-6.65 -7.21,-6.68 -7.22,-6.71 -7.23,-6.73 -7.24,-6.76 -7.25,-6.79 -7.26,-6.81 -7.27,-6.84 -7.28,-6.87 -7.28,-6.89 -7.29,-6.91 -7.30,-6.94 -7.30,-6.96 -7.31,-6.98 -7.31,-7.00 -7.31,-7.02 -7.31,-7.04 -7.31,-7.06 -7.31,-7.08 -7.31,-7.10 -7.31,-7.11 -7.31,-7.13 -7.31,-7.15 -7.30,-7.16 -7.30,-7.18 -7.29,-7.19 -7.29,-7.20 -7.28,-7.22 -7.28,-7.23 -7.27,-7.24 -7.26,-7.25 -7.25,-7.26 -7.24,-7.27 -7.23,-7.28 -7.22,-7.29 -7.21,-7.30 -7.19,-7.30 -7.18,-7.31 -7.16,-7.31 -7.15,-7.32 -7.13,-7.32 -7.12,-7.33 -7.10,-7.33 -7.08,-7.33 -7.06,-7.33 -7.04,-7.33 -7.02,-7.34 -7.00,-7.34 -6.98,-7.33 -6.96,-7.33 -6.94,-7.33 -6.91,-7.33 -6.89,-7.32 -6.87,-7.32 -6.84,-7.32 -6.81,-7.31 -6.79,-7.30 -6.76,-7.30 -6.73,-7.29 -6.70,-7.28 -6.68,-7.28 -6.65,-7.27 -6.62,-7.26 -6.58,-7.25 -6.55,-7.24 -6.52,-7.22 -6.49,-7.21 -6.45,-7.20 -6.42,-7.19 -6.38,-7.17 -6.35,-7.16 -6.31,-7.14 -6.28,-7.13 -6.24,-7.11 -6.20,-7.09 -6.16,-7.08 -6.13,-7.06 -6.09,-7.04 -6.05,-7.02 -6.01,-7.00 -5.97,-6.98 -5.92,-6.96 -5.88,-6.94 -5.84,-6.92 -5.80,-6.89 -5.75,-6.87 -5.71,-6.85 -5.66,-6.82 -5.62,-6.80 -5.57,-6.77 -5.53,-6.75 -5.48,-6.72 -5.43,-6.69 -5.39,-6.66 -5.34,-6.64 -5.29,-6.61 -5.24,-6.58 -5.19,-6.55 -5.14,-6.52 -5.09,-6.49 -5.04,-6.46 -4.99,-6.42 -4.94,-6.39 -4.89,-6.36 -4.83,-6.32 -4.78,-6.29 -4.73,-6.26 -4.68,-6.22 -4.62,-6.19 -4.57,-6.15 -4.51,-6.11 -4.46,-6.08 -4.40,-6.04 -4.35,-6.00 -4.29,-5.96 -4.24,-5.92 -4.18,-5.88 -4.12,-5.84 -4.06,-5.80 -4.01,-5.76 -3.95,-5.72 -3.89,-5.68 -3.83,-5.64 -3.77,-5.60 -3.72,-5.55 -3.66,-5.51 -3.60,-5.46 -3.54,-5.42 -3.48,-5.38 -3.42,-5.33 -3.36,-5.28 -3.29,-5.24 -3.23,-5.19 -3.17,-5.14 -3.11,-5.10 -3.05,-5.05 -2.99,-5.00 -2.93,-4.95 -2.86,-4.90 -2.80,-4.85 -2.74,-4.81 -2.68,-4.76 -2.61,-4.70 -2.55,-4.65 -2.49,-4.60 -2.42,-4.55 -2.36,-4.50 -2.30,-4.45 -2.23,-4.39 -2.17,-4.34 -2.11,-4.29 -2.04,-4.23 -1.98,-4.18 -1.91,-4.13 -1.85,-4.07 -1.78,-4.02 -1.72,-3.96 -1.66,-3.91 -1.59,-3.85 -1.53,-3.79 -1.46,-3.74 -1.40,-3.68 -1.33,-3.62 -1.27,-3.57 -1.20,-3.51 -1.14,-3.45 -1.07,-3.39 -1.01,-3.33 -0.94,-3.27 -0.88,-3.22 -0.81,-3.16 -0.75,-3.10 -0.68,-3.04 -0.62,-2.98 -0.55,-2.92 -0.49,-2.86 -0.43,-2.80 -0.36,-2.74 -0.30,-2.67 -0.23,-2.61 -0.17,-2.55 -0.10,-2.49 -0.04,-2.43 0.03,-2.37 0.09,-2.30 0.15,-2.24 0.22,-2.18 0.28,-2.12 0.34,-2.05 0.41,-1.99 0.47,-1.93 0.53,-1.86 0.60,-1.80 0.66,-1.74 0.72,-1.67 0.79,-1.61 0.85,-1.54 0.91,-1.48 0.97,-1.41 1.03,-1.35 1.10,-1.29 1.16,-1.22 1.22,-1.16 1.28,-1.09 1.34,-1.03 1.40,-0.96 1.46,-0.90 1.52,-0.83 1.58,-0.77 1.64,-0.70 1.70,-0.63 1.76,-0.57 1.82,-0.50 1.88,-0.44 1.94,-0.37 2.00,-0.31 2.06,-0.24 2.11,-0.18 2.17,-0.11 2.23,-0.04 2.29,0.02 2.34,0.09 2.40,0.15 2.46,0.22 2.51,0.28 2.57,0.35 2.62,0.42 2.68,0.48 2.73,0.55 2.79,0.61 2.84,0.68 2.90,0.74 2.95,0.81 3.00,0.87 3.06,0.94 3.11,1.00 3.16,1.07 3.22,1.13 3.27,1.20 3.32,1.26 3.37,1.33 3.42,1.39 3.47,1.46 3.52,1.52 3.57,1.58 3.62,1.65 3.67,1.71 3.72,1.78 3.77,1.84 3.81,1.90 3.86,1.97 3.91,2.03 3.96,2.09 4.00,2.16 4.05,2.22 4.09,2.28 4.14,2.34 4.18,2.40 4.23,2.47 4.27,2.53 4.32,2.59 4.36,2.65 4.40,2.71 4.45,2.77 4.49,2.83 4.53,2.89 4.57,2.95 4.61,3.01 4.65,3.07 4.69,3.13 4.73,3.19 4.77,3.25 4.81,3.31 4.85,3.37 4.89,3.42 4.93,3.48 4.96,3.54 5.00,3.60 5.04,3.65 5.07,3.71 5.11,3.77 5.14,3.82 5.18,3.88 5.21,3.93 5.25,3.99 5.28,4.04 5.31,4.10 5.35,4.15 5.38,4.20 5.41,4.26 5.44,4.31 5.47,4.36 5.50,4.41 5.53,4.47 5.56,4.52 5.59,4.57 5.62,4.62 5.65,4.67 5.67,4.72 5.70,4.77 5.73,4.82 5.75,4.86 5.78,4.91 5.81,4.96 5.83,5.01 5.86,5.05 5.88,5.10 5.90,5.15 5.93,5.19 5.95,5.24 5.97,5.28 5.99,5.33 6.01,5.37 6.04,5.41 6.06,5.46 6.08,5.50 6.10,5.54 6.11,5.58 6.13,5.62 6.15,5.66 6.17,5.70 6.19,5.74 6.20,5.78 6.22,5.82 6.23,5.86 6.25,5.89 6.27,5.93 6.28,5.97 6.29,6.00 6.31,6.04 6.32,6.07 6.33,6.10 6.35,6.14 6.36,6.17 6.37,6.20 6.38,6.24 6.39,6.27 6.40,6.30 6.41,6.33 6.42,6.36 6.43,6.39 6.43,6.42 6.44,6.44 6.45,6.47 6.46,6.50 6.46,6.52 6.47,6.55 6.47,6.57 6.48,6.60 6.48,6.62 6.49,6.65 6.49,6.67 6.49,6.69 6.49,6.71 6.50,6.73 6.50,6.75 6.50,6.77 6.50,6.79 6.50,6.81 6.50,6.83 6.50,6.84 6.50,6.86 6.50,6.88 6.49,6.89 6.49,6.91 6.49,6.92 6.49,6.93 6.48,6.95 6.48,6.96 6.47,6.97 6.47,6.98 6.46,6.99 6.45,7.00 6.45,7.01 6.44,7.02 6.43,7.02 6.43,7.03 6.42,7.04 6.41,7.04 6.40,7.05 6.39,7.05 6.38,7.05 6.37,7.06 6.36,7.06 6.35,7.06 6.33,7.06 6.32,7.06 6.31,7.06 6.30,7.06 6.28,7.06 6.27,7.05 6.25,7.05 6.24,7.05 6.22,7.04 6.21,7.04 6.19,7.03 6.17,7.02 6.16,7.02 6.14,7.01 6.12,7.00 6.10,6.99 6.08,6.98 6.06,6.97 6.04,6.96 6.02,6.95 6.00,6.93 5.98,6.92 5.96,6.91 5.94,6.89 5.92,6.88 5.89,6.86 5.87,6.84 5.85,6.83 5.82,6.81 5.80,6.79 5.77,6.77 5.75,6.75 5.72,6.73 5.69,6.71 5.67,6.69 5.64,6.66 5.61,6.64 5.59,6.62 5.56,6.59 5.53,6.57 5.50,6.54" fill="none" stroke="#ff3b30" stroke-width="1" vector-effect="non-scaling-stroke" stroke-linejoin="round" stroke-linecap="round"/></svg>
