<svg xmlns="http://www.w3.org/2000/svg" viewBox="-11.2 -11.2 22.4 22.4"><title>July 2024 — libration loop, to scale</title><circle r="1" fill="#3a86ff"/><polyline points="-2.84,-2.91 -2.88,-2.97 -2.91,-3.03 -2.94,-3.09 -2.97,-3.15 -3.01,-3.21 -3.04,-3.27 -3.07,-3.33 -3.10,-3.39 -3.13,-3.45 -3.16,-3.51 -3.19,-3.57 -3.23,-3.63 -3.26,-3.69 -3.29,-3.74 -3.32,-3.80 -3.35,-3.86 -3.38,-3.92 -3.41,-3.97 -3.44,-4.03 -3.47,-4.08 -3.50,-4.14 -3.53,-4.19 -3.56,-4.25 -3.58,-4.30 -3.61,-4.35 -3.64,-4.41 -3.67,-4.46 -3.70,-4.51 -3.73,-4.56 -3.76,-4.61 -3.78,-4.66 -3.81,-4.71 -3.84,-4.76 -3.87,-4.81 -3.89,-4.86 -3.92,-4.91 -3.95,-4.96 -3.98,-5.00 -4.00,-5.05 -4.03,-5.10 -4.05,-5.14 -4.08,-5.19 -4.11,-5.23 -4.13,-5.28 -4.16,-5.32 -4.18,-5.36 -4.21,-5.40 -4.23,-5.45 -4.26,-5.49 -4.28,-5.53 -4.30,-5.57 -4.33,-5.61 -4.35,-5.65 -4.37,-5.69 -4.40,-5.73 -4.42,-5.76 -4.44,-5.80 -4.47,-5.84 -4.49,-5.87 -4.51,-5.91 -4.53,-5.94 -4.55,-5.98 -4.57,-6.01 -4.59,-6.05 -4.61,-6.08 -4.64,-6.11 -4.66,-6.14 -4.67,-6.17 -4.69,-6.20 -4.71,-6.23 -4.73,-6.26 -4.75,-6.29 -4.77,-6.32 -4.79,-6.34 -4.80,-6.37 -4.82,-6.40 -4.84,-6.42 -4.86,-6.45 -4.87,-6.47 -4.89,-6.49 -4.90,-6.52 -4.92,-6.54 -4.93,-6.56 -4.95,-6.58 -4.96,-6.60 -4.98,-6.62 -4.99,-6.64 -5.00,-6.66 -5.02,-6.68 -5.03,-6.70 -5.04,-6.71 -5.05,-6.73 -5.07,-6.74 -5.08,-6.76 -5.09,-6.77 -5.10,-6.79 -5.11,-6.80 -5.12,-6.81 -5.13,-6.82 -5.13,-6.84 -5.14,-6.85 -5.15,-6.86 -5.16,-6.87 -5.17,-6.87 -5.17,-6.88 -5.18,-6.89 -5.18,-6.90 -5.19,-6.90 -5.19,-6.91 -5.20,-6.91 -5.20,-6.92 -5.21,-6.92 -5.21,-6.92 -5.21,-6.92 -5.21,-6.93 -5.22,-6.93 -5.22,-6.93 -5.22,-6.93 -5.22,-6.93 -5.22,-6.92 -5.22,-6.92 -5.22,-6.92 -5.22,-6.92 -5.21,-6.91 -5.21,-6.91 -5.21,-6.90 -5.20,-6.90 -5.20,-6.89 -5.20,-6.88 -5.19,-6.87 -5.19,-6.87 -5.18,-6.86 -5.17,-6.85 -5.17,-6.84 -5.16,-6.83 -5.15,-6.82 -5.14,-6.80 -5.13,-6.79 -5.12,-6.78 -5.11,-6.76 -5.10,-6.75 -5.09,-6.73 -5.08,-6.72 -5.07,-6.70 -5.05,-6.69 -5.04,-6.67 -5.03,-6.65 -5.01,-6.63 -5.00,-6.61 -4.98,-6.59 -4.97,-6.57 -4.95,-6.55 -4.93,-6.53 -4.91,-6.51 -4.90,-6.49 -4.88,-6.46 -4.86,-6.44 -4.84,-6.42 -4.82,-6.39 -4.80,-6.37 -4.77,-6.34 -4.75,-6.31 -4.73,-6.29 -4.71,-6.26 -4.68,-6.23 -4.66,-6.20 -4.63,-6.17 -4.61,-6.14 -4.58,-6.11 -4.55,-6.08 -4.53,-6.05 -4.50,-6.02 -4.47,-5.99 -4.44,-5.96 -4.41,-5.92 -4.38,-5.89 -4.35,-5.85 -4.32,-5.82 -4.29,-5.78 -4.26,-5.75 -4.22,-5.71 -4.19,-5.68 -4.16,-5.64 -4.12,-5.60 -4.09,-5.56 -4.05,-5.53 -4.02,-5.49 -3.98,-5.45 -3.94,-5.41 -3.90,-5.37 -3.87,-5.33 -3.83,-5.28 -3.79,-5.24 -3.75,-5.20 -3.71,-5.16 -3.67,-5.12 -3.63,-5.07 -3.58,-5.03 -3.54,-4.98 -3.50,-4.94 -3.45,-4.89 -3.41,-4.85 -3.37,-4.80 -3.32,-4.76 -3.28,-4.71 -3.23,-4.66 -3.18,-4.62 -3.14,-4.57 -3.09,-4.52 -3.04,-4.47 -2.99,-4.42 -2.94,-4.37 -2.90,-4.32 -2.85,-4.27 -2.80,-4.22 -2.75,-4.17 -2.69,-4.12 -2.64,-4.07 -2.59,-4.02 -2.54,-3.97 -2.49,-3.92 -2.43,-3.86 -2.38,-3.81 -2.33,-3.76 -2.27,-3.70 -2.22,-3.65 -2.16,-3.60 -2.11,-3.54 -2.05,-3.49 -1.99,-3.43 -1.94,-3.38 -1.88,-3.32 -1.82,-3.27 -1.77,-3.21 -1.71,-3.15 -1.65,-3.10 -1.59,-3.04 -1.53,-2.98 -1.47,-2.93 -1.41,-2.87 -1.35,-2.81 -1.29,-2.75 -1.23,-2.70 -1.17,-2.64 -1.11,-2.58 -1.05,-2.52 -0.99,-2.46 -0.93,-2.40 -0.87,-2.34 -0.80,-2.28 -0.74,-2.22 -0.68,-2.16 -0.62,-2.10 -0.55,-2.04 -0.49,-1.98 -0.43,-1.92 -0.36,-1.86 -0.30,-1.80 -0.24,-1.74 -0.17,-1.68 -0.11,-1.62 -0.04,-1.56 0.02,-1.49 0.09,-1.43 0.15,-1.37 0.21,-1.31 0.28,-1.25 0.34,-1.19 0.41,-1.12 0.47,-1.06 0.54,-1.00 0.60,-0.94 0.67,-0.87 0.73,-0.81 0.80,-0.75 0.87,-0.69 0.93,-0.62 1.00,-0.56 1.06,-0.50 1.13,-0.43 1.19,-0.37 1.26,-0.31 1.32,-0.25 1.39,-0.18 1.45,-0.12 1.52,-0.06 1.58,0.01 1.65,0.07 1.71,0.13 1.78,0.19 1.84,0.26 1.90,0.32 1.97,0.38 2.03,0.45 2.10,0.51 2.16,0.57 2.22,0.63 2.29,0.70 2.35,0.76 2.41,0.82 2.48,0.88 2.54,0.95 2.60,1.01 2.66,1.07 2.72,1.13 2.79,1.20 2.85,1.26 2.91,1.32 2.97,1.38 3.03,1.44 3.09,1.50 3.15,1.57 3.21,1.63 3.27,1.69 3.33,1.75 3.39,1.81 3.44,1.87 3.50,1.93 3.56,1.99 3.62,2.05 3.67,2.11 3.73,2.17 3.78,2.23 3.84,2.29 3.90,2.35 3.95,2.41 4.00,2.47 4.06,2.53 4.11,2.59 4.16,2.64 4.22,2.70 4.27,2.76 4.32,2.82 4.37,2.88 4.42,2.93 4.47,2.99 4.52,3.05 4.57,3.10 4.62,3.16 4.67,3.22 4.71,3.27 4.76,3.33 4.81,3.38 4.85,3.44 4.90,3.49 4.94,3.55 4.99,3.60 5.03,3.65 5.07,3.71 5.12,3.76 5.16,3.81 5.20,3.87 5.24,3.92 5.28,3.97 5.32,4.02 5.36,4.07 5.40,4.12 5.43,4.17 5.47,4.22 5.51,4.27 5.54,4.32 5.58,4.37 5.61,4.42 5.64,4.47 5.68,4.52 5.71,4.56 5.74,4.61 5.77,4.66 5.80,4.70 5.83,4.75 5.86,4.80 5.89,4.84 5.91,4.88 5.94,4.93 5.97,4.97 5.99,5.02 6.02,5.06 6.04,5.10 6.06,5.14 6.08,5.19 6.11,5.23 6.13,5.27 6.15,5.31 6.17,5.35 6.18,5.39 6.20,5.43 6.22,5.46 6.24,5.50 6.25,5.54 6.27,5.58 6.28,5.61 6.29,5.65 6.31,5.68 6.32,5.72 6.33,5.75 6.34,5.79 6.35,5.82 6.36,5.85 6.36,5.89 6.37,5.92 6.38,5.95 6.38,5.98 6.39,6.01 6.39,6.04 6.40,6.07 6.40,6.10 6.40,6.13 6.40,6.15 6.40,6.18 6.40,6.21 6.40,6.23 6.40,6.26 6.39,6.28 6.39,6.31 6.39,6.33 6.38,6.35 6.37,6.37 6.37,6.40 6.36,6.42 6.35,6.44 6.34,6.46 6.33,6.48 6.32,6.50 6.31,6.51 6.30,6.53 6.29,6.55 6.28,6.56 6.26,6.58 6.25,6.60 6.23,6.61 6.21,6.62 6.20,6.64 6.18,6.65 6.16,6.66 6.14,6.67 6.12,6.68 6.10,6.69 6.08,6.70 6.06,6.71 6.04,6.72 6.01,6.73 5.99,6.73 5.97,6.74 5.94,6.74 5.91,6.75 5.89,6.75 5.86,6.76 5.83,6.76 5.80,6.76 5.77,6.76 5.75,6.76 5.71,6.76 5.68,6.76 5.65,6.76 5.62,6.76 5.59,6.76 5.55,6.76 5.52,6.75 5.48,6.75 5.45,6.74 5.41,6.74 5.38,6.73 5.34,6.72 5.30,6.71 5.26,6.71 5.23,6.70 5.19,6.69 5.15,6.68 5.11,6.66 5.07,6.65 5.02,6.64 4.98,6.63 4.94,6.61 4.90,6.60 4.85,6.58 4.81,6.57 4.77,6.55 4.72,6.53 4.68,6.52 4.63,6.50 4.59,6.48 4.54,6.46 4.49,6.44 4.44,6.42 4.40,6.39 4.35,6.37 4.30,6.35 4.25,6.32 4.20,6.30 4.15,6.28 4.10,6.25 4.05,6.22 4.00,6.20 3.95,6.17 3.90,6.14 3.85,6.11 3.80,6.08 3.74,6.05 3.69,6.02 3.64,5.99 3.58,5.96 3.53,5.92 3.48,5.89 3.42,5.86 3.37,5.82 3.31,5.79 3.26,5.75 3.20,5.71 3.15,5.68 3.09,5.64 3.04,5.60 2.98,5.56 2.92,5.52 2.87,5.48 2.81,5.44 2.75,5.40 2.70,5.36 2.64,5.32 2.58,5.27 2.53,5.23 2.47,5.18 2.41,5.14 2.35,5.09 2.29,5.05 2.24,5.00 2.18,4.96 2.12,4.91 2.06,4.86 2.00,4.81 1.95,4.76 1.89,4.71 1.83,4.66 1.77,4.61 1.71,4.56 1.65,4.51 1.59,4.46 1.53,4.41 1.48,4.35 1.42,4.30 1.36,4.25 1.30,4.19 1.24,4.14 1.18,4.08 1.12,4.03 1.06,3.97 1.01,3.91 0.95,3.86 0.89,3.80 0.83,3.74 0.77,3.68 0.71,3.63 0.65,3.57 0.60,3.51 0.54,3.45 0.48,3.39 0.42,3.33 0.36,3.27 0.31,3.21 0.25,3.15 0.19,3.08 0.13,3.02 0.08,2.96 0.02,2.90 -0.04,2.83 -0.10,2.77 -0.15,2.71 -0.21,2.64 -0.27,2.58 -0.32,2.51 -0.38,2.45 -0.43,2.38 -0.49,2.32 -0.55,2.25 -0.60,2.19 -0.66,2.12 -0.71,2.05 -0.77,1.99 -0.82,1.92 -0.88,1.85 -0.93,1.79 -0.98,1.72 -1.04,1.65 -1.09,1.58 -1.14,1.52 -1.20,1.45 -1.25,1.38 -1.30,1.31 -1.36,1.24 -1.41,1.17 -1.46,1.11 -1.51,1.04 -1.56,0.97 -1.62,0.90 -1.67,0.83 -1.72,0.76 -1.77,0.69 -1.82,0.62 -1.87,0.55 -1.92,0.48 -1.97,0.41 -2.02,0.34 -2.07,0.27 -2.11,0.20 -2.16,0.14 -2.21,0.07 -2.26,-0.00 -2.31,-0.07 -2.35,-0.14 -2.40,-0.21 -2.45,-0.28 -2.49,-0.35 -2.54,-0.42 -2.58,-0.49 -2.63,-0.56 -2.67,-0.63 -2.72,-0.70 -2.76,-0.77 -2.81,-0.84 -2.85,-0.91 -2.90,-0.98 -2.94,-1.05 -2.98,-1.11 -3.03,-1.18 -3.07,-1.25 -3.11,-1.32 -3.15,-1.39 -3.19,-1.46 -3.23,-1.52 -3.28,-1.59 -3.32,-1.66 -3.36,-1.73 -3.40,-1.80 -3.44,-1.86 -3.47,-1.93 -3.51,-2.00 -3.55,-2.06 -3.59,-2.13 -3.63,-2.20 -3.67,-2.26 -3.70,-2.33 -3.74,-2.39 -3.78,-2.46 -3.81,-2.52 -3.85,-2.59 -3.89,-2.65 -3.92,-2.72 -3.96,-2.78 -3.99,-2.84 -4.03,-2.91 -4.06,-2.97 -4.09,-3.03 -4.13,-3.09 -4.16,-3.16 -4.19,-3.22 -4.23,-3.28 -4.26,-3.34 -4.29,-3.40 -4.32,-3.46 -4.35,-3.52 -4.38,-3.58 -4.41,-3.64 -4.44,-3.70 -4.47,-3.76 -4.50,-3.82 -4.53,-3.87 -4.56,-3.93 -4.59,-3.99 -4.62,-4.04 -4.65,-4.10 -4.68,-4.16 -4.70,-4.21 -4.73,-4.27 -4.76,-4.32 -4.78,-4.38 -4.81,-4.43 -4.83,-4.48 -4.86,-4.54 -4.89,-4.59 -4.91,-4.64 -4.93,-4.69 -4.96,-4.74 -4.98,-4.79 -5.01,-4.84 -5.03,-4.89 -5.05,-4.94 -5.08,-4.99 -5.10,-5.04 -5.12,-5.09 -5.14,-5.13 -5.16,-5.18 -5.18,-5.23 -5.20,-5.27 -5.22,-5.32 -5.24,-5.36 -5.26,-5.40 -5.28,-5.45 -5.30,-5.49 -5.32,-5.53 -5.34,-5.58 -5.36,-5.62 -5.38,-5.66 -5.39,-5.70 -5.41,-5.74 -5.43,-5.78 -5.44,-5.82 -5.46,-5.85 -5.48,-5.89 -5.49,-5.93 -5.51,-5.96 -5.52,-6.00 -5.54,-6.03 -5.55,-6.07 -5.56,-6.10 -5.58,-6.14 -5.59,-6.17 -5.60,-6.20 -5.62,-6.23 -5.63,-6.27 -5.64,-6.30 -5.65,-6.33 -5.66,-6.36 -5.67,-6.38 -5.68,-6.41 -5.70,-6.44 -5.71,-6.47 -5.71,-6.49 -5.72,-6.52 -5.73,-6.54 -5.74,-6.57 -5.75,-6.59 -5.76,-6.62 -5.77,-6.64 -5.77,-6.66 -5.78,-6.68 -5.79,-6.70 -5.79,-6.72 -5.80,-6.74 -5.80,-6.76 -5.81,-6.78 -5.81,-6.80 -5.82,-6.81 -5.82,-6.83 -5.83,-6.85 -5.83,-6.86" fill="none" stroke="#ff3b30" stroke-width="1" vector-effect="non-scaling-stroke" stroke-linejoin="round" stroke-linecap="round"/></svg>
