<svg xmlns="http://www.w3.org/2000/svg" viewBox="-11.2 -11.2 22.4 22.4"><title>March 2024 — libration loop, to scale</title><circle r="1" fill="#3a86ff"/><polyline points="6.78,2.99 6.82,3.05 6.87,3.11 6.91,3.17 6.95,3.23 7.00,3.28 7.04,3.34 7.08,3.40 7.12,3.45 7.16,3.51 7.20,3.57 7.24,3.62 7.28,3.68 7.32,3.73 7.35,3.79 7.39,3.84 7.43,3.90 7.46,3.95 7.50,4.00 7.53,4.06 7.57,4.11 7.60,4.16 7.63,4.21 7.66,4.26 7.70,4.32 7.73,4.37 7.76,4.42 7.79,4.47 7.81,4.52 7.84,4.57 7.87,4.62 7.90,4.66 7.92,4.71 7.95,4.76 7.97,4.81 8.00,4.85 8.02,4.90 8.05,4.95 8.07,4.99 8.09,5.04 8.11,5.08 8.13,5.13 8.15,5.17 8.17,5.21 8.19,5.26 8.20,5.30 8.22,5.34 8.24,5.38 8.25,5.42 8.26,5.46 8.28,5.50 8.29,5.54 8.30,5.58 8.31,5.62 8.33,5.66 8.34,5.70 8.34,5.73 8.35,5.77 8.36,5.81 8.37,5.84 8.37,5.88 8.38,5.91 8.38,5.94 8.39,5.98 8.39,6.01 8.39,6.04 8.39,6.07 8.39,6.11 8.39,6.14 8.39,6.17 8.39,6.20 8.39,6.22 8.38,6.25 8.38,6.28 8.37,6.31 8.37,6.33 8.36,6.36 8.35,6.38 8.34,6.41 8.34,6.43 8.33,6.46 8.31,6.48 8.30,6.50 8.29,6.52 8.28,6.55 8.26,6.57 8.25,6.59 8.23,6.60 8.22,6.62 8.20,6.64 8.18,6.66 8.16,6.67 8.14,6.69 8.12,6.71 8.10,6.72 8.08,6.73 8.05,6.75 8.03,6.76 8.01,6.77 7.98,6.78 7.95,6.79 7.93,6.81 7.90,6.81 7.87,6.82 7.84,6.83 7.81,6.84 7.78,6.85 7.75,6.85 7.71,6.86 7.68,6.86 7.65,6.87 7.61,6.87 7.58,6.87 7.54,6.87 7.50,6.87 7.46,6.87 7.42,6.87 7.38,6.87 7.34,6.87 7.30,6.87 7.26,6.87 7.22,6.86 7.17,6.86 7.13,6.85 7.08,6.85 7.04,6.84 6.99,6.83 6.94,6.83 6.90,6.82 6.85,6.81 6.80,6.80 6.75,6.79 6.70,6.78 6.65,6.76 6.59,6.75 6.54,6.74 6.49,6.72 6.43,6.71 6.38,6.69 6.32,6.68 6.27,6.66 6.21,6.64 6.15,6.62 6.09,6.60 6.03,6.58 5.97,6.56 5.91,6.54 5.85,6.52 5.79,6.50 5.73,6.47 5.67,6.45 5.60,6.42 5.54,6.40 5.47,6.37 5.41,6.34 5.34,6.32 5.28,6.29 5.21,6.26 5.14,6.23 5.07,6.20 5.01,6.17 4.94,6.14 4.87,6.10 4.80,6.07 4.73,6.04 4.66,6.00 4.59,5.97 4.51,5.93 4.44,5.90 4.37,5.86 4.29,5.82 4.22,5.78 4.15,5.74 4.07,5.70 4.00,5.66 3.92,5.62 3.85,5.58 3.77,5.54 3.69,5.50 3.62,5.45 3.54,5.41 3.46,5.36 3.38,5.32 3.30,5.27 3.23,5.23 3.15,5.18 3.07,5.13 2.99,5.08 2.91,5.03 2.83,4.99 2.75,4.94 2.67,4.88 2.59,4.83 2.50,4.78 2.42,4.73 2.34,4.68 2.26,4.62 2.18,4.57 2.09,4.52 2.01,4.46 1.93,4.41 1.85,4.35 1.76,4.29 1.68,4.24 1.60,4.18 1.51,4.12 1.43,4.06 1.35,4.00 1.26,3.95 1.18,3.89 1.10,3.83 1.01,3.76 0.93,3.70 0.84,3.64 0.76,3.58 0.68,3.52 0.59,3.46 0.51,3.39 0.42,3.33 0.34,3.26 0.26,3.20 0.17,3.14 0.09,3.07 0.00,3.01 -0.08,2.94 -0.16,2.87 -0.25,2.81 -0.33,2.74 -0.41,2.67 -0.50,2.61 -0.58,2.54 -0.66,2.47 -0.75,2.40 -0.83,2.33 -0.91,2.27 -1.00,2.20 -1.08,2.13 -1.16,2.06 -1.24,1.99 -1.32,1.92 -1.40,1.85 -1.49,1.78 -1.57,1.71 -1.65,1.64 -1.73,1.57 -1.81,1.49 -1.89,1.42 -1.97,1.35 -2.05,1.28 -2.13,1.21 -2.21,1.14 -2.28,1.06 -2.36,0.99 -2.44,0.92 -2.52,0.85 -2.59,0.77 -2.67,0.70 -2.75,0.63 -2.82,0.56 -2.90,0.48 -2.97,0.41 -3.05,0.34 -3.12,0.26 -3.20,0.19 -3.27,0.12 -3.35,0.04 -3.42,-0.03 -3.49,-0.10 -3.56,-0.17 -3.63,-0.25 -3.70,-0.32 -3.78,-0.39 -3.85,-0.47 -3.91,-0.54 -3.98,-0.61 -4.05,-0.69 -4.12,-0.76 -4.19,-0.83 -4.26,-0.90 -4.32,-0.98 -4.39,-1.05 -4.45,-1.12 -4.52,-1.19 -4.58,-1.26 -4.65,-1.34 -4.71,-1.41 -4.77,-1.48 -4.83,-1.55 -4.90,-1.62 -4.96,-1.69 -5.02,-1.76 -5.08,-1.83 -5.14,-1.90 -5.20,-1.97 -5.25,-2.04 -5.31,-2.11 -5.37,-2.18 -5.42,-2.25 -5.48,-2.32 -5.53,-2.39 -5.59,-2.46 -5.64,-2.53 -5.70,-2.60 -5.75,-2.66 -5.80,-2.73 -5.85,-2.80 -5.90,-2.87 -5.95,-2.93 -6.00,-3.00 -6.05,-3.06 -6.10,-3.13 -6.14,-3.20 -6.19,-3.26 -6.24,-3.32 -6.28,-3.39 -6.33,-3.45 -6.37,-3.52 -6.41,-3.58 -6.45,-3.64 -6.50,-3.71 -6.54,-3.77 -6.58,-3.83 -6.62,-3.89 -6.66,-3.95 -6.69,-4.01 -6.73,-4.07 -6.77,-4.13 -6.80,-4.19 -6.84,-4.25 -6.87,-4.31 -6.91,-4.37 -6.94,-4.42 -6.97,-4.48 -7.01,-4.54 -7.04,-4.59 -7.07,-4.65 -7.10,-4.71 -7.13,-4.76 -7.15,-4.81 -7.18,-4.87 -7.21,-4.92 -7.23,-4.97 -7.26,-5.03 -7.28,-5.08 -7.31,-5.13 -7.33,-5.18 -7.35,-5.23 -7.38,-5.28 -7.40,-5.33 -7.42,-5.38 -7.44,-5.43 -7.45,-5.48 -7.47,-5.52 -7.49,-5.57 -7.51,-5.62 -7.52,-5.66 -7.54,-5.71 -7.55,-5.75 -7.57,-5.80 -7.58,-5.84 -7.59,-5.88 -7.60,-5.92 -7.61,-5.97 -7.62,-6.01 -7.63,-6.05 -7.64,-6.09 -7.65,-6.13 -7.66,-6.17 -7.66,-6.20 -7.67,-6.24 -7.68,-6.28 -7.68,-6.32 -7.68,-6.35 -7.69,-6.39 -7.69,-6.42 -7.69,-6.46 -7.69,-6.49 -7.69,-6.52 -7.69,-6.56 -7.69,-6.59 -7.69,-6.62 -7.69,-6.65 -7.68,-6.68 -7.68,-6.71 -7.68,-6.74 -7.67,-6.77 -7.66,-6.79 -7.66,-6.82 -7.65,-6.85 -7.64,-6.87 -7.63,-6.90 -7.63,-6.92 -7.62,-6.95 -7.61,-6.97 -7.59,-6.99 -7.58,-7.02 -7.57,-7.04 -7.56,-7.06 -7.54,-7.08 -7.53,-7.10 -7.51,-7.12 -7.50,-7.14 -7.48,-7.15 -7.47,-7.17 -7.45,-7.19 -7.43,-7.20 -7.41,-7.22 -7.39,-7.23 -7.37,-7.25 -7.35,-7.26 -7.33,-7.27 -7.31,-7.28 -7.29,-7.30 -7.26,-7.31 -7.24,-7.32 -7.22,-7.33 -7.19,-7.34 -7.17,-7.34 -7.14,-7.35 -7.12,-7.36 -7.09,-7.36 -7.06,-7.37 -7.03,-7.38 -7.00,-7.38 -6.98,-7.38 -6.95,-7.39 -6.92,-7.39 -6.89,-7.39 -6.85,-7.39 -6.82,-7.39 -6.79,-7.39 -6.76,-7.39 -6.72,-7.39 -6.69,-7.39 -6.66,-7.39 -6.62,-7.39 -6.59,-7.38 -6.55,-7.38 -6.51,-7.37 -6.48,-7.37 -6.44,-7.36 -6.40,-7.35 -6.36,-7.35 -6.33,-7.34 -6.29,-7.33 -6.25,-7.32 -6.21,-7.31 -6.17,-7.30 -6.12,-7.29 -6.08,-7.28 -6.04,-7.27 -6.00,-7.25 -5.96,-7.24 -5.91,-7.23 -5.87,-7.21 -5.83,-7.20 -5.78,-7.18 -5.74,-7.17 -5.69,-7.15 -5.65,-7.13 -5.60,-7.11 -5.55,-7.10 -5.51,-7.08 -5.46,-7.06 -5.41,-7.04 -5.36,-7.02 -5.31,-6.99 -5.27,-6.97 -5.22,-6.95 -5.17,-6.93 -5.12,-6.90 -5.07,-6.88 -5.02,-6.85 -4.97,-6.83 -4.92,-6.80 -4.86,-6.78 -4.81,-6.75 -4.76,-6.72 -4.71,-6.69 -4.65,-6.67 -4.60,-6.64 -4.55,-6.61 -4.49,-6.58 -4.44,-6.55 -4.39,-6.51 -4.33,-6.48 -4.28,-6.45 -4.22,-6.42 -4.17,-6.38 -4.11,-6.35 -4.05,-6.32 -4.00,-6.28 -3.94,-6.25 -3.88,-6.21 -3.83,-6.17 -3.77,-6.14 -3.71,-6.10 -3.65,-6.06 -3.60,-6.02 -3.54,-5.99 -3.48,-5.95 -3.42,-5.91 -3.36,-5.87 -3.30,-5.83 -3.24,-5.78 -3.18,-5.74 -3.13,-5.70 -3.07,-5.66 -3.01,-5.62 -2.94,-5.57 -2.88,-5.53 -2.82,-5.48 -2.76,-5.44 -2.70,-5.40 -2.64,-5.35 -2.58,-5.30 -2.52,-5.26 -2.46,-5.21 -2.39,-5.16 -2.33,-5.12 -2.27,-5.07 -2.21,-5.02 -2.15,-4.97 -2.08,-4.92 -2.02,-4.87 -1.96,-4.82 -1.90,-4.77 -1.83,-4.72 -1.77,-4.67 -1.71,-4.62 -1.64,-4.57 -1.58,-4.52 -1.52,-4.46 -1.45,-4.41 -1.39,-4.36 -1.33,-4.30 -1.26,-4.25 -1.20,-4.20 -1.13,-4.14 -1.07,-4.09 -1.01,-4.03 -0.94,-3.98 -0.88,-3.92 -0.81,-3.86 -0.75,-3.81 -0.69,-3.75 -0.62,-3.69 -0.56,-3.64 -0.49,-3.58 -0.43,-3.52 -0.36,-3.46 -0.30,-3.41 -0.24,-3.35 -0.17,-3.29 -0.11,-3.23 -0.04,-3.17 0.02,-3.11 0.09,-3.05 0.15,-2.99 0.22,-2.93 0.28,-2.87 0.34,-2.81 0.41,-2.75 0.47,-2.69 0.54,-2.63 0.60,-2.56 0.67,-2.50 0.73,-2.44 0.79,-2.38 0.86,-2.32 0.92,-2.25 0.99,-2.19 1.05,-2.13 1.11,-2.06 1.18,-2.00 1.24,-1.94 1.30,-1.87 1.37,-1.81 1.43,-1.75 1.49,-1.68 1.56,-1.62 1.62,-1.55 1.68,-1.49 1.75,-1.43 1.81,-1.36 1.87,-1.30 1.93,-1.23 1.99,-1.17 2.06,-1.10 2.12,-1.04 2.18,-0.97 2.24,-0.91 2.30,-0.84 2.37,-0.78 2.43,-0.71 2.49,-0.64 2.55,-0.58 2.61,-0.51 2.67,-0.45 2.73,-0.38 2.79,-0.32 2.85,-0.25 2.91,-0.19 2.97,-0.12 3.03,-0.05 3.09,0.01 3.15,0.08 3.21,0.14 3.27,0.21 3.33,0.27 3.38,0.34 3.44,0.41 3.50,0.47 3.56,0.54 3.61,0.60 3.67,0.67 3.73,0.73 3.79,0.80 3.84,0.86 3.90,0.93 3.95,0.99 4.01,1.06 4.07,1.12 4.12,1.19 4.18,1.25 4.23,1.32 4.28,1.38 4.34,1.45 4.39,1.51 4.45,1.58 4.50,1.64 4.55,1.70 4.60,1.77 4.66,1.83 4.71,1.90 4.76,1.96 4.81,2.02 4.86,2.08 4.91,2.15 4.96,2.21 5.01,2.27 5.06,2.34 5.11,2.40 5.16,2.46 5.21,2.52 5.26,2.58 5.31,2.64 5.35,2.70 5.40,2.77 5.45,2.83 5.50,2.89 5.54,2.95 5.59,3.01 5.63,3.07 5.68,3.13 5.72,3.18 5.77,3.24 5.81,3.30 5.85,3.36 5.90,3.42 5.94,3.48 5.98,3.53 6.02,3.59 6.06,3.65 6.11,3.70 6.15,3.76 6.19,3.82 6.23,3.87 6.27,3.93 6.30,3.98 6.34,4.04 6.38,4.09 6.42,4.15 6.46,4.20 6.49,4.25 6.53,4.30 6.56,4.36 6.60,4.41 6.63,4.46 6.67,4.51 6.70,4.56 6.74,4.61 6.77,4.66 6.80,4.71 6.83,4.76 6.86,4.81 6.89,4.86 6.92,4.91 6.95,4.96 6.98,5.00 7.01,5.05 7.04,5.10 7.07,5.14 7.10,5.19 7.12,5.23 7.15,5.28 7.18,5.32 7.20,5.37 7.23,5.41 7.25,5.45 7.27,5.50 7.30,5.54 7.32,5.58 7.34,5.62 7.36,5.66 7.38,5.70 7.40,5.74 7.42,5.78 7.44,5.82 7.46,5.86 7.48,5.89 7.50,5.93 7.51,5.97 7.53,6.00 7.55,6.04 7.56,6.07 7.57,6.11 7.59,6.14 7.60,6.17 7.62,6.21 7.63,6.24 7.64,6.27 7.65,6.30 7.66,6.33 7.67,6.36 7.68,6.39 7.69,6.42 7.70,6.45 7.70,6.47 7.71,6.50 7.72,6.53 7.72,6.55 7.73,6.58 7.73,6.60 7.74,6.63 7.74,6.65 7.74,6.67 7.74,6.69 7.74,6.72 7.74,6.74 7.74,6.76 7.74,6.78 7.74,6.79 7.74,6.81 7.74,6.83" fill="none" stroke="#ff3b30" stroke-width="1" vector-effect="non-scaling-stroke" stroke-linejoin="round" stroke-linecap="round"/></svg>
