<svg xmlns="http://www.w3.org/2000/svg" viewBox="-11.2 -11.2 22.4 22.4"><title>October 2024 — libration loop, to scale</title><circle r="1" fill="#3a86ff"/><polyline points="-3.02,-2.30 -2.96,-2.24 -2.90,-2.17 -2.83,-2.11 -2.77,-2.05 -2.71,-1.98 -2.64,-1.92 -2.58,-1.86 -2.51,-1.80 -2.45,-1.73 -2.39,-1.67 -2.32,-1.60 -2.26,-1.54 -2.19,-1.48 -2.13,-1.41 -2.06,-1.35 -2.00,-1.28 -1.93,-1.22 -1.87,-1.15 -1.80,-1.09 -1.74,-1.02 -1.67,-0.96 -1.61,-0.89 -1.54,-0.83 -1.48,-0.76 -1.41,-0.70 -1.34,-0.63 -1.28,-0.57 -1.21,-0.50 -1.15,-0.44 -1.08,-0.37 -1.01,-0.31 -0.95,-0.24 -0.88,-0.18 -0.82,-0.11 -0.75,-0.05 -0.68,0.02 -0.62,0.08 -0.55,0.15 -0.48,0.22 -0.42,0.28 -0.35,0.35 -0.28,0.41 -0.22,0.48 -0.15,0.54 -0.09,0.61 -0.02,0.67 0.05,0.74 0.11,0.80 0.18,0.87 0.25,0.93 0.31,1.00 0.38,1.06 0.44,1.13 0.51,1.19 0.58,1.26 0.64,1.32 0.71,1.39 0.77,1.45 0.84,1.51 0.91,1.58 0.97,1.64 1.04,1.71 1.10,1.77 1.17,1.83 1.23,1.90 1.30,1.96 1.36,2.02 1.43,2.08 1.49,2.15 1.56,2.21 1.62,2.27 1.69,2.33 1.75,2.40 1.82,2.46 1.88,2.52 1.94,2.58 2.01,2.64 2.07,2.70 2.13,2.76 2.20,2.83 2.26,2.89 2.32,2.95 2.39,3.01 2.45,3.07 2.51,3.12 2.57,3.18 2.64,3.24 2.70,3.30 2.76,3.36 2.82,3.42 2.88,3.48 2.94,3.53 3.01,3.59 3.07,3.65 3.13,3.70 3.19,3.76 3.25,3.82 3.31,3.87 3.37,3.93 3.43,3.98 3.49,4.04 3.54,4.09 3.60,4.15 3.66,4.20 3.72,4.25 3.78,4.31 3.83,4.36 3.89,4.41 3.95,4.47 4.01,4.52 4.06,4.57 4.12,4.62 4.17,4.67 4.23,4.72 4.28,4.77 4.34,4.82 4.39,4.87 4.45,4.92 4.50,4.97 4.56,5.02 4.61,5.06 4.66,5.11 4.72,5.16 4.77,5.20 4.82,5.25 4.87,5.30 4.92,5.34 4.97,5.39 5.02,5.43 5.07,5.47 5.12,5.52 5.17,5.56 5.22,5.60 5.27,5.64 5.32,5.69 5.37,5.73 5.42,5.77 5.46,5.81 5.51,5.85 5.56,5.89 5.60,5.93 5.65,5.96 5.69,6.00 5.74,6.04 5.78,6.08 5.83,6.11 5.87,6.15 5.91,6.18 5.96,6.22 6.00,6.25 6.04,6.29 6.08,6.32 6.12,6.35 6.16,6.38 6.20,6.42 6.24,6.45 6.28,6.48 6.32,6.51 6.36,6.54 6.40,6.57 6.43,6.59 6.47,6.62 6.51,6.65 6.54,6.68 6.58,6.70 6.61,6.73 6.65,6.75 6.68,6.78 6.71,6.80 6.74,6.82 6.78,6.85 6.81,6.87 6.84,6.89 6.87,6.91 6.90,6.93 6.93,6.95 6.96,6.97 6.99,6.99 7.02,7.01 7.04,7.03 7.07,7.04 7.10,7.06 7.12,7.08 7.15,7.09 7.17,7.10 7.19,7.12 7.22,7.13 7.24,7.14 7.26,7.16 7.29,7.17 7.31,7.18 7.33,7.19 7.35,7.20 7.37,7.21 7.39,7.22 7.40,7.22 7.42,7.23 7.44,7.24 7.45,7.24 7.47,7.25 7.49,7.25 7.50,7.26 7.51,7.26 7.53,7.26 7.54,7.26 7.55,7.26 7.56,7.27 7.57,7.26 7.59,7.26 7.59,7.26 7.60,7.26 7.61,7.26 7.62,7.26 7.63,7.25 7.63,7.25 7.64,7.24 7.64,7.24 7.65,7.23 7.65,7.22 7.66,7.21 7.66,7.21 7.66,7.20 7.66,7.19 7.66,7.18 7.66,7.16 7.66,7.15 7.66,7.14 7.66,7.13 7.66,7.11 7.65,7.10 7.65,7.08 7.64,7.07 7.64,7.05 7.63,7.03 7.62,7.02 7.62,7.00 7.61,6.98 7.60,6.96 7.59,6.94 7.58,6.92 7.57,6.90 7.56,6.87 7.55,6.85 7.53,6.83 7.52,6.80 7.51,6.78 7.49,6.75 7.48,6.73 7.46,6.70 7.44,6.67 7.42,6.65 7.41,6.62 7.39,6.59 7.37,6.56 7.35,6.53 7.33,6.50 7.30,6.46 7.28,6.43 7.26,6.40 7.23,6.36 7.21,6.33 7.18,6.29 7.16,6.26 7.13,6.22 7.11,6.19 7.08,6.15 7.05,6.11 7.02,6.07 6.99,6.03 6.96,5.99 6.93,5.95 6.90,5.91 6.86,5.87 6.83,5.83 6.80,5.78 6.76,5.74 6.73,5.70 6.69,5.65 6.65,5.61 6.62,5.56 6.58,5.51 6.54,5.47 6.50,5.42 6.46,5.37 6.42,5.32 6.38,5.27 6.34,5.22 6.29,5.17 6.25,5.12 6.21,5.07 6.16,5.02 6.12,4.97 6.07,4.92 6.02,4.86 5.98,4.81 5.93,4.75 5.88,4.70 5.83,4.64 5.78,4.59 5.73,4.53 5.68,4.48 5.63,4.42 5.58,4.36 5.53,4.30 5.47,4.24 5.42,4.18 5.37,4.12 5.31,4.06 5.25,4.00 5.20,3.94 5.14,3.88 5.09,3.82 5.03,3.76 4.97,3.70 4.91,3.63 4.85,3.57 4.79,3.51 4.73,3.44 4.67,3.38 4.61,3.31 4.55,3.25 4.48,3.18 4.42,3.12 4.36,3.05 4.29,2.98 4.23,2.92 4.16,2.85 4.10,2.78 4.03,2.71 3.97,2.65 3.90,2.58 3.83,2.51 3.76,2.44 3.69,2.37 3.63,2.30 3.56,2.23 3.49,2.16 3.42,2.09 3.35,2.02 3.28,1.95 3.20,1.88 3.13,1.81 3.06,1.74 2.99,1.66 2.92,1.59 2.84,1.52 2.77,1.45 2.69,1.38 2.62,1.30 2.55,1.23 2.47,1.16 2.40,1.09 2.32,1.01 2.24,0.94 2.17,0.87 2.09,0.79 2.01,0.72 1.94,0.65 1.86,0.57 1.78,0.50 1.70,0.43 1.63,0.35 1.55,0.28 1.47,0.20 1.39,0.13 1.31,0.06 1.23,-0.02 1.15,-0.09 1.07,-0.16 0.99,-0.24 0.91,-0.31 0.83,-0.39 0.75,-0.46 0.67,-0.53 0.59,-0.61 0.51,-0.68 0.43,-0.75 0.35,-0.83 0.27,-0.90 0.19,-0.97 0.11,-1.05 0.03,-1.12 -0.06,-1.19 -0.14,-1.27 -0.22,-1.34 -0.30,-1.41 -0.38,-1.48 -0.46,-1.55 -0.55,-1.63 -0.63,-1.70 -0.71,-1.77 -0.79,-1.84 -0.87,-1.91 -0.95,-1.98 -1.03,-2.05 -1.12,-2.12 -1.20,-2.19 -1.28,-2.26 -1.36,-2.33 -1.44,-2.40 -1.52,-2.47 -1.60,-2.54 -1.68,-2.61 -1.77,-2.68 -1.85,-2.74 -1.93,-2.81 -2.01,-2.88 -2.09,-2.95 -2.17,-3.01 -2.25,-3.08 -2.33,-3.14 -2.41,-3.21 -2.48,-3.28 -2.56,-3.34 -2.64,-3.40 -2.72,-3.47 -2.80,-3.53 -2.88,-3.60 -2.96,-3.66 -3.03,-3.72 -3.11,-3.78 -3.19,-3.84 -3.26,-3.91 -3.34,-3.97 -3.42,-4.03 -3.49,-4.09 -3.57,-4.15 -3.64,-4.20 -3.72,-4.26 -3.79,-4.32 -3.87,-4.38 -3.94,-4.43 -4.01,-4.49 -4.09,-4.55 -4.16,-4.60 -4.23,-4.66 -4.30,-4.71 -4.37,-4.77 -4.44,-4.82 -4.51,-4.87 -4.58,-4.92 -4.65,-4.98 -4.72,-5.03 -4.79,-5.08 -4.86,-5.13 -4.93,-5.18 -4.99,-5.23 -5.06,-5.27 -5.13,-5.32 -5.19,-5.37 -5.26,-5.42 -5.32,-5.46 -5.38,-5.51 -5.45,-5.55 -5.51,-5.60 -5.57,-5.64 -5.63,-5.68 -5.70,-5.72 -5.76,-5.77 -5.82,-5.81 -5.88,-5.85 -5.93,-5.89 -5.99,-5.93 -6.05,-5.97 -6.11,-6.00 -6.16,-6.04 -6.22,-6.08 -6.27,-6.11 -6.33,-6.15 -6.38,-6.18 -6.44,-6.22 -6.49,-6.25 -6.54,-6.28 -6.59,-6.32 -6.64,-6.35 -6.69,-6.38 -6.74,-6.41 -6.79,-6.44 -6.84,-6.47 -6.88,-6.50 -6.93,-6.52 -6.98,-6.55 -7.02,-6.58 -7.06,-6.60 -7.11,-6.63 -7.15,-6.65 -7.19,-6.67 -7.23,-6.70 -7.27,-6.72 -7.31,-6.74 -7.35,-6.76 -7.39,-6.78 -7.43,-6.80 -7.47,-6.82 -7.50,-6.84 -7.54,-6.85 -7.57,-6.87 -7.60,-6.89 -7.64,-6.90 -7.67,-6.92 -7.70,-6.93 -7.73,-6.94 -7.76,-6.96 -7.79,-6.97 -7.82,-6.98 -7.85,-6.99 -7.87,-7.00 -7.90,-7.01 -7.92,-7.02 -7.95,-7.03 -7.97,-7.03 -7.99,-7.04 -8.02,-7.04 -8.04,-7.05 -8.06,-7.05 -8.08,-7.06 -8.09,-7.06 -8.11,-7.06 -8.13,-7.06 -8.15,-7.07 -8.16,-7.07 -8.18,-7.06 -8.19,-7.06 -8.20,-7.06 -8.21,-7.06 -8.23,-7.06 -8.24,-7.05 -8.25,-7.05 -8.25,-7.04 -8.26,-7.04 -8.27,-7.03 -8.28,-7.02 -8.28,-7.02 -8.29,-7.01 -8.29,-7.00 -8.29,-6.99 -8.30,-6.98 -8.30,-6.97 -8.30,-6.96 -8.30,-6.95 -8.30,-6.93 -8.30,-6.92 -8.29,-6.90 -8.29,-6.89 -8.29,-6.87 -8.28,-6.86 -8.28,-6.84 -8.27,-6.83 -8.26,-6.81 -8.25,-6.79 -8.25,-6.77 -8.24,-6.75 -8.23,-6.73 -8.22,-6.71 -8.20,-6.69 -8.19,-6.67 -8.18,-6.64 -8.16,-6.62 -8.15,-6.60 -8.13,-6.57 -8.12,-6.55 -8.10,-6.52 -8.08,-6.50 -8.06,-6.47 -8.04,-6.44 -8.02,-6.41 -8.00,-6.39 -7.98,-6.36 -7.96,-6.33 -7.94,-6.30 -7.91,-6.27 -7.89,-6.24 -7.86,-6.20 -7.84,-6.17 -7.81,-6.14 -7.78,-6.11 -7.76,-6.07 -7.73,-6.04 -7.70,-6.00 -7.67,-5.97 -7.64,-5.93 -7.61,-5.89 -7.57,-5.86 -7.54,-5.82 -7.51,-5.78 -7.48,-5.74 -7.44,-5.71 -7.41,-5.67 -7.37,-5.63 -7.33,-5.59 -7.30,-5.55 -7.26,-5.50 -7.22,-5.46 -7.18,-5.42 -7.14,-5.38 -7.10,-5.34 -7.06,-5.29 -7.02,-5.25 -6.98,-5.20 -6.94,-5.16 -6.89,-5.11 -6.85,-5.07 -6.81,-5.02 -6.76,-4.98 -6.72,-4.93 -6.67,-4.88 -6.63,-4.83 -6.58,-4.79 -6.53,-4.74 -6.49,-4.69 -6.44,-4.64 -6.39,-4.59 -6.34,-4.54 -6.29,-4.49 -6.24,-4.44 -6.19,-4.39 -6.14,-4.34 -6.09,-4.28 -6.04,-4.23 -5.98,-4.18 -5.93,-4.13 -5.88,-4.07 -5.82,-4.02 -5.77,-3.97 -5.72,-3.91 -5.66,-3.86 -5.61,-3.80 -5.55,-3.75 -5.49,-3.69 -5.44,-3.64 -5.38,-3.58 -5.32,-3.52 -5.27,-3.47 -5.21,-3.41 -5.15,-3.35 -5.09,-3.30 -5.03,-3.24 -4.97,-3.18 -4.92,-3.12 -4.86,-3.06 -4.80,-3.00 -4.74,-2.95 -4.67,-2.89 -4.61,-2.83 -4.55,-2.77 -4.49,-2.71 -4.43,-2.65 -4.37,-2.59 -4.31,-2.53 -4.24,-2.47 -4.18,-2.41 -4.12,-2.34 -4.05,-2.28 -3.99,-2.22 -3.93,-2.16 -3.86,-2.10 -3.80,-2.04 -3.74,-1.97 -3.67,-1.91 -3.61,-1.85 -3.54,-1.79 -3.48,-1.72 -3.41,-1.66 -3.35,-1.60 -3.28,-1.53 -3.22,-1.47 -3.15,-1.41 -3.09,-1.34 -3.02,-1.28 -2.96,-1.22 -2.89,-1.15 -2.82,-1.09 -2.76,-1.03 -2.69,-0.96 -2.62,-0.90 -2.56,-0.83 -2.49,-0.77 -2.43,-0.70 -2.36,-0.64 -2.29,-0.58 -2.23,-0.51 -2.16,-0.45 -2.09,-0.38 -2.03,-0.32 -1.96,-0.25 -1.89,-0.19 -1.83,-0.12 -1.76,-0.06 -1.69,0.01 -1.63,0.07 -1.56,0.14 -1.49,0.20 -1.42,0.26 -1.36,0.33 -1.29,0.39 -1.23,0.46 -1.16,0.52 -1.09,0.59 -1.03,0.65 -0.96,0.72 -0.89,0.78 -0.83,0.85 -0.76,0.91 -0.69,0.97 -0.63,1.04 -0.56,1.10 -0.50,1.17 -0.43,1.23 -0.37,1.29 -0.30,1.36 -0.24,1.42 -0.17,1.48 -0.11,1.55 -0.04,1.61 0.02,1.67 0.09,1.74 0.15,1.80 0.22,1.86 0.28,1.92 0.35,1.99 0.41,2.05 0.47,2.11 0.54,2.17 0.60,2.24 0.66,2.30 0.73,2.36 0.79,2.42 0.85,2.48 0.91,2.54 0.98,2.60 1.04,2.66 1.10,2.72 1.16,2.78 1.22,2.84 1.28,2.90 1.35,2.96 1.41,3.02 1.47,3.08 1.53,3.14 1.59,3.20 1.65,3.25 1.71,3.31 1.77,3.37 1.82,3.43" fill="none" stroke="#ff3b30" stroke-width="1" vector-effect="non-scaling-stroke" stroke-linejoin="round" stroke-linecap="round"/></svg>
