<svg xmlns="http://www.w3.org/2000/svg" viewBox="-11.2 -11.2 22.4 22.4"><title>December 2024 — libration loop, to scale</title><circle r="1" fill="#3a86ff"/><polyline points="4.25,6.33 4.28,6.36 4.31,6.39 4.34,6.42 4.37,6.44 4.40,6.47 4.43,6.49 4.46,6.52 4.49,6.54 4.51,6.57 4.54,6.59 4.57,6.61 4.59,6.63 4.62,6.65 4.64,6.68 4.67,6.70 4.69,6.72 4.72,6.73 4.74,6.75 4.76,6.77 4.79,6.79 4.81,6.80 4.83,6.82 4.85,6.84 4.87,6.85 4.89,6.87 4.91,6.88 4.93,6.89 4.95,6.91 4.97,6.92 4.99,6.93 5.01,6.94 5.03,6.95 5.05,6.96 5.06,6.97 5.08,6.98 5.10,6.99 5.11,6.99 5.13,7.00 5.14,7.01 5.16,7.01 5.17,7.02 5.18,7.02 5.20,7.02 5.21,7.03 5.22,7.03 5.24,7.03 5.25,7.03 5.26,7.03 5.27,7.03 5.28,7.03 5.29,7.03 5.30,7.03 5.31,7.03 5.32,7.02 5.33,7.02 5.34,7.01 5.35,7.01 5.35,7.00 5.36,7.00 5.37,6.99 5.37,6.98 5.38,6.97 5.39,6.97 5.39,6.96 5.40,6.95 5.40,6.94 5.41,6.92 5.41,6.91 5.42,6.90 5.42,6.89 5.42,6.87 5.43,6.86 5.43,6.84 5.43,6.83 5.43,6.81 5.43,6.79 5.44,6.78 5.44,6.76 5.44,6.74 5.44,6.72 5.44,6.70 5.44,6.68 5.44,6.66 5.43,6.64 5.43,6.61 5.43,6.59 5.43,6.57 5.43,6.54 5.43,6.52 5.42,6.49 5.42,6.47 5.42,6.44 5.41,6.41 5.41,6.39 5.40,6.36 5.40,6.33 5.39,6.30 5.39,6.27 5.38,6.24 5.38,6.21 5.37,6.18 5.36,6.14 5.36,6.11 5.35,6.08 5.34,6.04 5.33,6.01 5.33,5.97 5.32,5.94 5.31,5.90 5.30,5.86 5.29,5.83 5.28,5.79 5.27,5.75 5.26,5.71 5.25,5.67 5.24,5.63 5.23,5.59 5.22,5.55 5.21,5.51 5.19,5.46 5.18,5.42 5.17,5.38 5.16,5.33 5.14,5.29 5.13,5.24 5.12,5.20 5.10,5.15 5.09,5.11 5.07,5.06 5.06,5.01 5.04,4.97 5.03,4.92 5.01,4.87 5.00,4.82 4.98,4.77 4.96,4.72 4.95,4.67 4.93,4.62 4.91,4.57 4.89,4.51 4.88,4.46 4.86,4.41 4.84,4.36 4.82,4.30 4.80,4.25 4.78,4.19 4.76,4.14 4.74,4.08 4.72,4.03 4.70,3.97 4.68,3.91 4.66,3.86 4.63,3.80 4.61,3.74 4.59,3.68 4.57,3.63 4.54,3.57 4.52,3.51 4.50,3.45 4.47,3.39 4.45,3.33 4.42,3.27 4.40,3.21 4.37,3.15 4.35,3.08 4.32,3.02 4.30,2.96 4.27,2.90 4.24,2.84 4.22,2.77 4.19,2.71 4.16,2.65 4.13,2.58 4.11,2.52 4.08,2.45 4.05,2.39 4.02,2.33 3.99,2.26 3.96,2.20 3.93,2.13 3.90,2.06 3.87,2.00 3.84,1.93 3.80,1.87 3.77,1.80 3.74,1.73 3.71,1.67 3.67,1.60 3.64,1.53 3.61,1.47 3.57,1.40 3.54,1.33 3.50,1.26 3.47,1.19 3.43,1.13 3.40,1.06 3.36,0.99 3.33,0.92 3.29,0.85 3.25,0.79 3.22,0.72 3.18,0.65 3.14,0.58 3.10,0.51 3.06,0.44 3.02,0.37 2.98,0.30 2.94,0.24 2.90,0.17 2.86,0.10 2.82,0.03 2.78,-0.04 2.74,-0.11 2.70,-0.18 2.66,-0.25 2.62,-0.32 2.57,-0.39 2.53,-0.45 2.49,-0.52 2.44,-0.59 2.40,-0.66 2.36,-0.73 2.31,-0.80 2.27,-0.87 2.22,-0.93 2.18,-1.00 2.13,-1.07 2.08,-1.14 2.04,-1.21 1.99,-1.27 1.94,-1.34 1.90,-1.41 1.85,-1.48 1.80,-1.54 1.75,-1.61 1.70,-1.68 1.66,-1.74 1.61,-1.81 1.56,-1.88 1.51,-1.94 1.46,-2.01 1.41,-2.07 1.36,-2.14 1.31,-2.21 1.25,-2.27 1.20,-2.33 1.15,-2.40 1.10,-2.46 1.05,-2.53 1.00,-2.59 0.94,-2.65 0.89,-2.72 0.84,-2.78 0.78,-2.84 0.73,-2.91 0.68,-2.97 0.62,-3.03 0.57,-3.09 0.51,-3.15 0.46,-3.21 0.40,-3.27 0.35,-3.33 0.29,-3.39 0.24,-3.45 0.18,-3.51 0.13,-3.57 0.07,-3.63 0.01,-3.68 -0.04,-3.74 -0.10,-3.80 -0.16,-3.85 -0.21,-3.91 -0.27,-3.97 -0.33,-4.02 -0.39,-4.08 -0.44,-4.13 -0.50,-4.18 -0.56,-4.24 -0.62,-4.29 -0.67,-4.34 -0.73,-4.40 -0.79,-4.45 -0.85,-4.50 -0.91,-4.55 -0.97,-4.60 -1.02,-4.65 -1.08,-4.70 -1.14,-4.75 -1.20,-4.79 -1.26,-4.84 -1.32,-4.89 -1.38,-4.94 -1.44,-4.98 -1.50,-5.03 -1.55,-5.07 -1.61,-5.12 -1.67,-5.16 -1.73,-5.20 -1.79,-5.25 -1.85,-5.29 -1.91,-5.33 -1.97,-5.37 -2.03,-5.41 -2.08,-5.45 -2.14,-5.49 -2.20,-5.53 -2.26,-5.57 -2.32,-5.60 -2.38,-5.64 -2.44,-5.68 -2.49,-5.71 -2.55,-5.75 -2.61,-5.78 -2.67,-5.82 -2.72,-5.85 -2.78,-5.88 -2.84,-5.91 -2.90,-5.95 -2.95,-5.98 -3.01,-6.01 -3.07,-6.04 -3.12,-6.07 -3.18,-6.09 -3.24,-6.12 -3.29,-6.15 -3.35,-6.17 -3.40,-6.20 -3.46,-6.22 -3.51,-6.25 -3.57,-6.27 -3.62,-6.30 -3.68,-6.32 -3.73,-6.34 -3.78,-6.36 -3.84,-6.38 -3.89,-6.40 -3.94,-6.42 -3.99,-6.44 -4.05,-6.46 -4.10,-6.47 -4.15,-6.49 -4.20,-6.50 -4.25,-6.52 -4.30,-6.53 -4.35,-6.55 -4.40,-6.56 -4.45,-6.57 -4.50,-6.58 -4.54,-6.60 -4.59,-6.61 -4.64,-6.61 -4.69,-6.62 -4.73,-6.63 -4.78,-6.64 -4.82,-6.65 -4.87,-6.65 -4.91,-6.66 -4.96,-6.66 -5.00,-6.67 -5.04,-6.67 -5.09,-6.67 -5.13,-6.67 -5.17,-6.68 -5.21,-6.68 -5.25,-6.68 -5.29,-6.68 -5.33,-6.68 -5.37,-6.67 -5.41,-6.67 -5.45,-6.67 -5.48,-6.66 -5.52,-6.66 -5.56,-6.65 -5.59,-6.65 -5.63,-6.64 -5.66,-6.63 -5.69,-6.63 -5.73,-6.62 -5.76,-6.61 -5.79,-6.60 -5.82,-6.59 -5.85,-6.58 -5.88,-6.56 -5.91,-6.55 -5.94,-6.54 -5.97,-6.52 -5.99,-6.51 -6.02,-6.50 -6.05,-6.48 -6.07,-6.46 -6.09,-6.45 -6.12,-6.43 -6.14,-6.41 -6.16,-6.39 -6.18,-6.37 -6.21,-6.35 -6.23,-6.33 -6.24,-6.31 -6.26,-6.29 -6.28,-6.27 -6.30,-6.24 -6.32,-6.22 -6.33,-6.20 -6.35,-6.17 -6.36,-6.15 -6.37,-6.12 -6.39,-6.09 -6.40,-6.07 -6.41,-6.04 -6.42,-6.01 -6.43,-5.98 -6.44,-5.95 -6.45,-5.92 -6.45,-5.89 -6.46,-5.86 -6.47,-5.83 -6.47,-5.80 -6.48,-5.76 -6.48,-5.73 -6.48,-5.70 -6.48,-5.66 -6.48,-5.63 -6.48,-5.59 -6.48,-5.56 -6.48,-5.52 -6.48,-5.48 -6.48,-5.45 -6.47,-5.41 -6.47,-5.37 -6.47,-5.33 -6.46,-5.29 -6.45,-5.25 -6.45,-5.21 -6.44,-5.17 -6.43,-5.13 -6.42,-5.09 -6.41,-5.05 -6.40,-5.01 -6.38,-4.96 -6.37,-4.92 -6.36,-4.88 -6.34,-4.83 -6.33,-4.79 -6.31,-4.74 -6.29,-4.70 -6.28,-4.65 -6.26,-4.60 -6.24,-4.56 -6.22,-4.51 -6.20,-4.46 -6.18,-4.41 -6.16,-4.37 -6.13,-4.32 -6.11,-4.27 -6.08,-4.22 -6.06,-4.17 -6.03,-4.12 -6.01,-4.07 -5.98,-4.02 -5.95,-3.97 -5.92,-3.92 -5.89,-3.86 -5.86,-3.81 -5.83,-3.76 -5.80,-3.71 -5.77,-3.65 -5.74,-3.60 -5.70,-3.55 -5.67,-3.49 -5.63,-3.44 -5.60,-3.38 -5.56,-3.33 -5.52,-3.27 -5.49,-3.22 -5.45,-3.16 -5.41,-3.10 -5.37,-3.05 -5.33,-2.99 -5.29,-2.93 -5.25,-2.88 -5.20,-2.82 -5.16,-2.76 -5.12,-2.71 -5.07,-2.65 -5.03,-2.59 -4.98,-2.53 -4.94,-2.47 -4.89,-2.41 -4.84,-2.35 -4.80,-2.29 -4.75,-2.23 -4.70,-2.18 -4.65,-2.12 -4.60,-2.06 -4.55,-2.00 -4.50,-1.93 -4.45,-1.87 -4.40,-1.81 -4.35,-1.75 -4.29,-1.69 -4.24,-1.63 -4.19,-1.57 -4.13,-1.51 -4.08,-1.45 -4.02,-1.39 -3.97,-1.32 -3.91,-1.26 -3.86,-1.20 -3.80,-1.14 -3.74,-1.08 -3.69,-1.01 -3.63,-0.95 -3.57,-0.89 -3.51,-0.83 -3.45,-0.76 -3.39,-0.70 -3.33,-0.64 -3.27,-0.58 -3.21,-0.51 -3.15,-0.45 -3.09,-0.39 -3.03,-0.33 -2.97,-0.26 -2.91,-0.20 -2.85,-0.14 -2.78,-0.07 -2.72,-0.01 -2.66,0.05 -2.60,0.12 -2.53,0.18 -2.47,0.24 -2.41,0.30 -2.34,0.37 -2.28,0.43 -2.21,0.49 -2.15,0.56 -2.09,0.62 -2.02,0.68 -1.96,0.74 -1.89,0.81 -1.83,0.87 -1.76,0.93 -1.70,0.99 -1.63,1.06 -1.57,1.12 -1.50,1.18 -1.43,1.24 -1.37,1.30 -1.30,1.36 -1.24,1.43 -1.17,1.49 -1.11,1.55 -1.04,1.61 -0.97,1.67 -0.91,1.73 -0.84,1.79 -0.78,1.86 -0.71,1.92 -0.65,1.98 -0.58,2.04 -0.52,2.10 -0.45,2.16 -0.38,2.22 -0.32,2.28 -0.25,2.34 -0.19,2.40 -0.12,2.45 -0.06,2.51 0.00,2.57 0.07,2.63 0.13,2.69 0.20,2.75 0.26,2.80 0.33,2.86 0.39,2.92 0.45,2.98 0.52,3.03 0.58,3.09 0.64,3.15 0.70,3.20 0.77,3.26 0.83,3.31 0.89,3.37 0.95,3.43 1.01,3.48 1.08,3.54 1.14,3.59 1.20,3.64 1.26,3.70 1.32,3.75 1.38,3.80 1.44,3.86 1.50,3.91 1.55,3.96 1.61,4.01 1.67,4.07 1.73,4.12 1.79,4.17 1.84,4.22 1.90,4.27 1.96,4.32 2.01,4.37 2.07,4.42 2.12,4.47 2.18,4.51 2.23,4.56 2.28,4.61 2.34,4.66 2.39,4.71 2.44,4.75 2.50,4.80 2.55,4.84 2.60,4.89 2.65,4.93 2.70,4.98 2.75,5.02 2.80,5.07 2.85,5.11 2.90,5.15 2.95,5.20 2.99,5.24 3.04,5.28 3.09,5.32 3.13,5.36 3.18,5.40 3.22,5.44 3.27,5.48 3.31,5.52 3.36,5.56 3.40,5.60 3.44,5.64 3.48,5.68 3.53,5.71 3.57,5.75 3.61,5.78 3.65,5.82 3.69,5.85 3.73,5.89 3.76,5.92 3.80,5.96 3.84,5.99 3.88,6.02 3.91,6.05 3.95,6.09 3.98,6.12 4.02,6.15 4.05,6.18 4.08,6.21 4.12,6.24 4.15,6.26 4.18,6.29 4.21,6.32 4.24,6.35 4.27,6.37 4.30,6.40 4.33,6.42 4.36,6.45 4.39,6.47 4.42,6.50 4.44,6.52 4.47,6.54 4.49,6.56 4.52,6.58 4.54,6.61 4.57,6.63 4.59,6.65 4.61,6.66 4.63,6.68 4.66,6.70 4.68,6.72 4.70,6.74 4.72,6.75 4.74,6.77 4.76,6.78 4.77,6.80 4.79,6.81 4.81,6.82 4.82,6.84 4.84,6.85 4.86,6.86 4.87,6.87 4.88,6.88 4.90,6.89 4.91,6.90 4.92,6.91 4.94,6.92 4.95,6.92 4.96,6.93 4.97,6.94 4.98,6.94 4.99,6.95 5.00,6.95 5.01,6.96 5.01,6.96 5.02,6.96 5.03,6.96 5.03,6.96 5.04,6.96 5.04,6.96 5.05,6.96 5.05,6.96 5.06,6.96 5.06,6.96 5.06,6.95 5.07,6.95 5.07,6.95 5.07,6.94 5.07,6.94 5.07,6.93 5.07,6.92 5.07,6.91 5.07,6.91 5.07,6.90 5.06,6.89 5.06,6.88 5.06,6.87 5.06,6.86 5.05,6.84 5.05,6.83 5.04,6.82 5.04,6.80 5.03,6.79 5.03,6.77 5.02,6.76 5.01,6.74 5.00,6.73 5.00,6.71 4.99,6.69 4.98,6.67 4.97,6.65 4.96,6.63 4.95,6.61 4.94,6.59 4.93,6.57 4.92,6.55 4.91,6.52 4.90,6.50 4.89,6.47 4.87,6.45 4.86,6.42 4.85,6.40 4.83,6.37 4.82,6.34 4.81,6.32" fill="none" stroke="#ff3b30" stroke-width="1" vector-effect="non-scaling-stroke" stroke-linejoin="round" stroke-linecap="round"/></svg>
