<svg xmlns="http://www.w3.org/2000/svg" viewBox="-11.2 -11.2 22.4 22.4"><title>September 2024 — libration loop, to scale</title><circle r="1" fill="#3a86ff"/><polyline points="-5.38,-5.76 -5.34,-5.72 -5.30,-5.68 -5.26,-5.64 -5.22,-5.60 -5.17,-5.56 -5.13,-5.52 -5.09,-5.48 -5.05,-5.43 -5.01,-5.39 -4.96,-5.35 -4.92,-5.30 -4.88,-5.26 -4.83,-5.21 -4.79,-5.17 -4.74,-5.12 -4.70,-5.07 -4.65,-5.03 -4.61,-4.98 -4.56,-4.93 -4.51,-4.88 -4.47,-4.84 -4.42,-4.79 -4.37,-4.74 -4.32,-4.69 -4.27,-4.64 -4.23,-4.59 -4.18,-4.54 -4.13,-4.49 -4.08,-4.44 -4.03,-4.38 -3.98,-4.33 -3.92,-4.28 -3.87,-4.23 -3.82,-4.17 -3.77,-4.12 -3.72,-4.07 -3.67,-4.01 -3.61,-3.96 -3.56,-3.90 -3.51,-3.85 -3.45,-3.79 -3.40,-3.74 -3.34,-3.68 -3.29,-3.62 -3.23,-3.57 -3.18,-3.51 -3.12,-3.45 -3.07,-3.40 -3.01,-3.34 -2.95,-3.28 -2.90,-3.22 -2.84,-3.16 -2.78,-3.10 -2.72,-3.05 -2.67,-2.99 -2.61,-2.93 -2.55,-2.87 -2.49,-2.81 -2.43,-2.75 -2.37,-2.69 -2.31,-2.63 -2.25,-2.56 -2.19,-2.50 -2.13,-2.44 -2.07,-2.38 -2.01,-2.32 -1.95,-2.26 -1.89,-2.20 -1.83,-2.13 -1.77,-2.07 -1.71,-2.01 -1.64,-1.95 -1.58,-1.88 -1.52,-1.82 -1.46,-1.76 -1.39,-1.69 -1.33,-1.63 -1.27,-1.57 -1.20,-1.50 -1.14,-1.44 -1.08,-1.38 -1.01,-1.31 -0.95,-1.25 -0.89,-1.18 -0.82,-1.12 -0.76,-1.06 -0.69,-0.99 -0.63,-0.93 -0.56,-0.86 -0.50,-0.80 -0.43,-0.73 -0.37,-0.67 -0.30,-0.60 -0.23,-0.54 -0.17,-0.47 -0.10,-0.41 -0.04,-0.34 0.03,-0.28 0.09,-0.21 0.16,-0.15 0.23,-0.08 0.29,-0.02 0.36,0.05 0.43,0.11 0.49,0.18 0.56,0.24 0.63,0.30 0.69,0.37 0.76,0.43 0.83,0.50 0.89,0.56 0.96,0.63 1.03,0.69 1.09,0.76 1.16,0.82 1.23,0.89 1.29,0.95 1.36,1.02 1.43,1.08 1.49,1.15 1.56,1.21 1.63,1.27 1.69,1.34 1.76,1.40 1.83,1.46 1.89,1.53 1.96,1.59 2.03,1.66 2.09,1.72 2.16,1.78 2.23,1.84 2.29,1.91 2.36,1.97 2.42,2.03 2.49,2.09 2.56,2.16 2.62,2.22 2.69,2.28 2.75,2.34 2.82,2.40 2.88,2.46 2.95,2.53 3.01,2.59 3.08,2.65 3.14,2.71 3.20,2.77 3.27,2.83 3.33,2.89 3.40,2.95 3.46,3.01 3.52,3.07 3.58,3.12 3.65,3.18 3.71,3.24 3.77,3.30 3.83,3.36 3.90,3.41 3.96,3.47 4.02,3.53 4.08,3.59 4.14,3.64 4.20,3.70 4.26,3.75 4.32,3.81 4.38,3.86 4.44,3.92 4.50,3.97 4.56,4.03 4.62,4.08 4.67,4.14 4.73,4.19 4.79,4.24 4.85,4.30 4.90,4.35 4.96,4.40 5.01,4.45 5.07,4.50 5.12,4.55 5.18,4.60 5.23,4.65 5.29,4.70 5.34,4.75 5.39,4.80 5.45,4.85 5.50,4.90 5.55,4.95 5.60,4.99 5.65,5.04 5.70,5.09 5.75,5.13 5.80,5.18 5.85,5.22 5.90,5.27 5.95,5.31 6.00,5.36 6.04,5.40 6.09,5.44 6.14,5.49 6.18,5.53 6.23,5.57 6.27,5.61 6.31,5.65 6.36,5.69 6.40,5.73 6.44,5.77 6.49,5.81 6.53,5.85 6.57,5.89 6.61,5.93 6.65,5.96 6.69,6.00 6.72,6.03 6.76,6.07 6.80,6.11 6.84,6.14 6.87,6.17 6.91,6.21 6.94,6.24 6.98,6.27 7.01,6.30 7.04,6.34 7.08,6.37 7.11,6.40 7.14,6.43 7.17,6.46 7.20,6.48 7.23,6.51 7.26,6.54 7.28,6.57 7.31,6.59 7.34,6.62 7.36,6.64 7.39,6.67 7.41,6.69 7.44,6.72 7.46,6.74 7.48,6.76 7.50,6.78 7.53,6.80 7.55,6.82 7.56,6.84 7.58,6.86 7.60,6.88 7.62,6.90 7.64,6.92 7.65,6.94 7.67,6.95 7.68,6.97 7.69,6.98 7.71,7.00 7.72,7.01 7.73,7.02 7.74,7.04 7.75,7.05 7.76,7.06 7.77,7.07 7.78,7.08 7.78,7.09 7.79,7.10 7.80,7.11 7.80,7.12 7.80,7.12 7.81,7.13 7.81,7.13 7.81,7.14 7.81,7.14 7.81,7.15 7.81,7.15 7.81,7.15 7.81,7.15 7.80,7.15 7.80,7.16 7.79,7.15 7.79,7.15 7.78,7.15 7.78,7.15 7.77,7.15 7.76,7.14 7.75,7.14 7.74,7.13 7.73,7.13 7.72,7.12 7.70,7.12 7.69,7.11 7.68,7.10 7.66,7.09 7.65,7.08 7.63,7.07 7.61,7.06 7.59,7.05 7.58,7.04 7.56,7.02 7.54,7.01 7.51,6.99 7.49,6.98 7.47,6.96 7.45,6.95 7.42,6.93 7.40,6.91 7.37,6.89 7.34,6.87 7.32,6.85 7.29,6.83 7.26,6.81 7.23,6.79 7.20,6.77 7.17,6.75 7.14,6.72 7.10,6.70 7.07,6.67 7.04,6.65 7.00,6.62 6.96,6.59 6.93,6.56 6.89,6.54 6.85,6.51 6.81,6.48 6.77,6.45 6.73,6.42 6.69,6.38 6.65,6.35 6.61,6.32 6.57,6.28 6.52,6.25 6.48,6.22 6.43,6.18 6.39,6.14 6.34,6.11 6.29,6.07 6.25,6.03 6.20,5.99 6.15,5.95 6.10,5.91 6.05,5.87 6.00,5.83 5.95,5.79 5.89,5.75 5.84,5.70 5.79,5.66 5.73,5.62 5.68,5.57 5.62,5.53 5.57,5.48 5.51,5.43 5.45,5.39 5.39,5.34 5.34,5.29 5.28,5.24 5.22,5.19 5.16,5.14 5.10,5.09 5.03,5.04 4.97,4.99 4.91,4.93 4.85,4.88 4.78,4.83 4.72,4.77 4.66,4.72 4.59,4.67 4.52,4.61 4.46,4.55 4.39,4.50 4.32,4.44 4.26,4.38 4.19,4.33 4.12,4.27 4.05,4.21 3.98,4.15 3.91,4.09 3.84,4.03 3.77,3.97 3.70,3.91 3.63,3.85 3.56,3.78 3.49,3.72 3.41,3.66 3.34,3.60 3.27,3.53 3.19,3.47 3.12,3.40 3.05,3.34 2.97,3.27 2.90,3.21 2.82,3.14 2.74,3.08 2.67,3.01 2.59,2.94 2.52,2.88 2.44,2.81 2.36,2.74 2.29,2.67 2.21,2.60 2.13,2.53 2.05,2.47 1.97,2.40 1.90,2.33 1.82,2.26 1.74,2.19 1.66,2.12 1.58,2.05 1.50,1.97 1.42,1.90 1.34,1.83 1.26,1.76 1.18,1.69 1.10,1.62 1.02,1.54 0.94,1.47 0.86,1.40 0.78,1.33 0.70,1.25 0.62,1.18 0.54,1.11 0.46,1.04 0.38,0.96 0.30,0.89 0.22,0.82 0.13,0.74 0.05,0.67 -0.03,0.59 -0.11,0.52 -0.19,0.45 -0.27,0.37 -0.35,0.30 -0.43,0.22 -0.51,0.15 -0.59,0.08 -0.67,0.00 -0.75,-0.07 -0.83,-0.15 -0.91,-0.22 -0.99,-0.29 -1.07,-0.37 -1.15,-0.44 -1.23,-0.52 -1.31,-0.59 -1.39,-0.66 -1.47,-0.74 -1.55,-0.81 -1.63,-0.88 -1.71,-0.96 -1.79,-1.03 -1.87,-1.10 -1.94,-1.18 -2.02,-1.25 -2.10,-1.32 -2.18,-1.40 -2.26,-1.47 -2.33,-1.54 -2.41,-1.61 -2.49,-1.69 -2.56,-1.76 -2.64,-1.83 -2.71,-1.90 -2.79,-1.97 -2.87,-2.04 -2.94,-2.11 -3.01,-2.18 -3.09,-2.25 -3.16,-2.32 -3.24,-2.39 -3.31,-2.46 -3.38,-2.53 -3.45,-2.60 -3.53,-2.67 -3.60,-2.74 -3.67,-2.80 -3.74,-2.87 -3.81,-2.94 -3.88,-3.01 -3.95,-3.07 -4.02,-3.14 -4.09,-3.21 -4.16,-3.27 -4.23,-3.34 -4.29,-3.40 -4.36,-3.47 -4.43,-3.53 -4.49,-3.59 -4.56,-3.66 -4.63,-3.72 -4.69,-3.78 -4.76,-3.84 -4.82,-3.91 -4.88,-3.97 -4.95,-4.03 -5.01,-4.09 -5.07,-4.15 -5.13,-4.21 -5.19,-4.27 -5.25,-4.33 -5.31,-4.38 -5.37,-4.44 -5.43,-4.50 -5.49,-4.55 -5.55,-4.61 -5.60,-4.67 -5.66,-4.72 -5.72,-4.78 -5.77,-4.83 -5.83,-4.88 -5.88,-4.94 -5.93,-4.99 -5.99,-5.04 -6.04,-5.09 -6.09,-5.14 -6.14,-5.19 -6.19,-5.24 -6.24,-5.29 -6.29,-5.34 -6.34,-5.39 -6.39,-5.44 -6.44,-5.48 -6.49,-5.53 -6.53,-5.58 -6.58,-5.62 -6.62,-5.67 -6.67,-5.71 -6.71,-5.75 -6.76,-5.80 -6.80,-5.84 -6.84,-5.88 -6.88,-5.92 -6.92,-5.96 -6.96,-6.00 -7.00,-6.04 -7.04,-6.08 -7.08,-6.12 -7.12,-6.16 -7.15,-6.19 -7.19,-6.23 -7.22,-6.27 -7.26,-6.30 -7.29,-6.34 -7.33,-6.37 -7.36,-6.40 -7.39,-6.43 -7.42,-6.47 -7.45,-6.50 -7.48,-6.53 -7.51,-6.56 -7.54,-6.59 -7.57,-6.62 -7.60,-6.64 -7.62,-6.67 -7.65,-6.70 -7.67,-6.72 -7.70,-6.75 -7.72,-6.77 -7.74,-6.80 -7.77,-6.82 -7.79,-6.84 -7.81,-6.86 -7.83,-6.89 -7.85,-6.91 -7.87,-6.93 -7.89,-6.95 -7.90,-6.96 -7.92,-6.98 -7.94,-7.00 -7.95,-7.02 -7.97,-7.03 -7.98,-7.05 -7.99,-7.06 -8.01,-7.08 -8.02,-7.09 -8.03,-7.10 -8.04,-7.11 -8.05,-7.13 -8.06,-7.14 -8.07,-7.15 -8.08,-7.16 -8.08,-7.16 -8.09,-7.17 -8.10,-7.18 -8.10,-7.19 -8.11,-7.19 -8.11,-7.20 -8.11,-7.20 -8.11,-7.21 -8.12,-7.21 -8.12,-7.21 -8.12,-7.21 -8.12,-7.21 -8.12,-7.22 -8.11,-7.22 -8.11,-7.21 -8.11,-7.21 -8.11,-7.21 -8.10,-7.21 -8.10,-7.21 -8.09,-7.20 -8.08,-7.20 -8.08,-7.19 -8.07,-7.19 -8.06,-7.18 -8.05,-7.17 -8.04,-7.16 -8.03,-7.16 -8.02,-7.15 -8.01,-7.14 -8.00,-7.13 -7.99,-7.12 -7.97,-7.10 -7.96,-7.09 -7.94,-7.08 -7.93,-7.07 -7.91,-7.05 -7.90,-7.04 -7.88,-7.02 -7.86,-7.01 -7.84,-6.99 -7.82,-6.97 -7.80,-6.95 -7.78,-6.94 -7.76,-6.92 -7.74,-6.90 -7.72,-6.88 -7.70,-6.86 -7.67,-6.83 -7.65,-6.81 -7.62,-6.79 -7.60,-6.77 -7.57,-6.74 -7.55,-6.72 -7.52,-6.69 -7.49,-6.67 -7.47,-6.64 -7.44,-6.62 -7.41,-6.59 -7.38,-6.56 -7.35,-6.53 -7.32,-6.50 -7.29,-6.47 -7.26,-6.44 -7.22,-6.41 -7.19,-6.38 -7.16,-6.35 -7.12,-6.32 -7.09,-6.29 -7.06,-6.25 -7.02,-6.22 -6.98,-6.19 -6.95,-6.15 -6.91,-6.12 -6.87,-6.08 -6.84,-6.04 -6.80,-6.01 -6.76,-5.97 -6.72,-5.93 -6.68,-5.89 -6.64,-5.85 -6.60,-5.82 -6.56,-5.78 -6.52,-5.74 -6.47,-5.69 -6.43,-5.65 -6.39,-5.61 -6.35,-5.57 -6.30,-5.53 -6.26,-5.48 -6.21,-5.44 -6.17,-5.40 -6.12,-5.35 -6.08,-5.31 -6.03,-5.26 -5.98,-5.22 -5.93,-5.17 -5.89,-5.13 -5.84,-5.08 -5.79,-5.03 -5.74,-4.98 -5.69,-4.93 -5.64,-4.89 -5.59,-4.84 -5.54,-4.79 -5.49,-4.74 -5.44,-4.69 -5.39,-4.64 -5.34,-4.59 -5.29,-4.54 -5.23,-4.48 -5.18,-4.43 -5.13,-4.38 -5.07,-4.33 -5.02,-4.27 -4.97,-4.22 -4.91,-4.17 -4.86,-4.11 -4.80,-4.06 -4.75,-4.00 -4.69,-3.95 -4.63,-3.89 -4.58,-3.84 -4.52,-3.78 -4.46,-3.73 -4.41,-3.67 -4.35,-3.61 -4.29,-3.56 -4.23,-3.50 -4.17,-3.44 -4.12,-3.38 -4.06,-3.32 -4.00,-3.27 -3.94,-3.21 -3.88,-3.15 -3.82,-3.09 -3.76,-3.03 -3.70,-2.97 -3.64,-2.91 -3.58,-2.85 -3.52,-2.79 -3.46,-2.73 -3.39,-2.67 -3.33,-2.61 -3.27,-2.55 -3.21,-2.48 -3.15,-2.42 -3.08,-2.36 -3.02,-2.30" fill="none" stroke="#ff3b30" stroke-width="1" vector-effect="non-scaling-stroke" stroke-linejoin="round" stroke-linecap="round"/></svg>
