<svg xmlns="http://www.w3.org/2000/svg" viewBox="-11.2 -11.2 22.4 22.4"><title>March 2025 — libration loop, to scale</title><circle r="1" fill="#3a86ff"/><polyline points="2.07,0.46 2.01,0.38 1.94,0.31 1.88,0.24 1.81,0.16 1.75,0.09 1.68,0.02 1.62,-0.06 1.55,-0.13 1.48,-0.20 1.42,-0.27 1.35,-0.35 1.29,-0.42 1.22,-0.49 1.16,-0.57 1.09,-0.64 1.02,-0.71 0.96,-0.78 0.89,-0.86 0.83,-0.93 0.76,-1.00 0.69,-1.07 0.63,-1.14 0.56,-1.22 0.50,-1.29 0.43,-1.36 0.36,-1.43 0.30,-1.50 0.23,-1.57 0.17,-1.64 0.10,-1.71 0.04,-1.79 -0.03,-1.86 -0.09,-1.93 -0.16,-2.00 -0.22,-2.07 -0.29,-2.13 -0.36,-2.20 -0.42,-2.27 -0.48,-2.34 -0.55,-2.41 -0.61,-2.48 -0.68,-2.55 -0.74,-2.61 -0.81,-2.68 -0.87,-2.75 -0.93,-2.81 -1.00,-2.88 -1.06,-2.95 -1.13,-3.01 -1.19,-3.08 -1.25,-3.14 -1.31,-3.21 -1.38,-3.27 -1.44,-3.34 -1.50,-3.40 -1.56,-3.46 -1.62,-3.53 -1.69,-3.59 -1.75,-3.65 -1.81,-3.71 -1.87,-3.77 -1.93,-3.84 -1.99,-3.90 -2.05,-3.96 -2.11,-4.02 -2.17,-4.07 -2.23,-4.13 -2.29,-4.19 -2.35,-4.25 -2.40,-4.31 -2.46,-4.36 -2.52,-4.42 -2.58,-4.48 -2.63,-4.53 -2.69,-4.59 -2.75,-4.64 -2.80,-4.69 -2.86,-4.75 -2.92,-4.80 -2.97,-4.85 -3.03,-4.91 -3.08,-4.96 -3.13,-5.01 -3.19,-5.06 -3.24,-5.11 -3.30,-5.16 -3.35,-5.21 -3.40,-5.25 -3.45,-5.30 -3.50,-5.35 -3.56,-5.39 -3.61,-5.44 -3.66,-5.49 -3.71,-5.53 -3.76,-5.57 -3.81,-5.62 -3.86,-5.66 -3.91,-5.70 -3.95,-5.75 -4.00,-5.79 -4.05,-5.83 -4.10,-5.87 -4.14,-5.91 -4.19,-5.94 -4.23,-5.98 -4.28,-6.02 -4.33,-6.06 -4.37,-6.09 -4.41,-6.13 -4.46,-6.16 -4.50,-6.20 -4.54,-6.23 -4.59,-6.26 -4.63,-6.30 -4.67,-6.33 -4.71,-6.36 -4.75,-6.39 -4.79,-6.42 -4.83,-6.45 -4.87,-6.48 -4.91,-6.50 -4.95,-6.53 -4.99,-6.56 -5.02,-6.58 -5.06,-6.61 -5.10,-6.63 -5.13,-6.66 -5.17,-6.68 -5.20,-6.70 -5.24,-6.72 -5.27,-6.74 -5.31,-6.76 -5.34,-6.78 -5.37,-6.80 -5.41,-6.82 -5.44,-6.84 -5.47,-6.86 -5.50,-6.87 -5.53,-6.89 -5.56,-6.90 -5.59,-6.92 -5.62,-6.93 -5.65,-6.94 -5.68,-6.95 -5.70,-6.97 -5.73,-6.98 -5.76,-6.99 -5.78,-7.00 -5.81,-7.00 -5.83,-7.01 -5.86,-7.02 -5.88,-7.03 -5.90,-7.03 -5.93,-7.04 -5.95,-7.04 -5.97,-7.05 -5.99,-7.05 -6.01,-7.05 -6.03,-7.05 -6.05,-7.05 -6.07,-7.05 -6.09,-7.05 -6.11,-7.05 -6.13,-7.05 -6.15,-7.05 -6.16,-7.05 -6.18,-7.04 -6.20,-7.04 -6.21,-7.03 -6.23,-7.03 -6.24,-7.02 -6.26,-7.01 -6.27,-7.01 -6.28,-7.00 -6.29,-6.99 -6.31,-6.98 -6.32,-6.97 -6.33,-6.96 -6.34,-6.95 -6.35,-6.93 -6.36,-6.92 -6.37,-6.91 -6.37,-6.89 -6.38,-6.88 -6.39,-6.86 -6.40,-6.85 -6.40,-6.83 -6.41,-6.81 -6.41,-6.79 -6.42,-6.77 -6.42,-6.75 -6.43,-6.73 -6.43,-6.71 -6.43,-6.69 -6.44,-6.67 -6.44,-6.65 -6.44,-6.62 -6.44,-6.60 -6.44,-6.58 -6.44,-6.55 -6.44,-6.53 -6.44,-6.50 -6.43,-6.47 -6.43,-6.45 -6.43,-6.42 -6.43,-6.39 -6.42,-6.36 -6.42,-6.33 -6.41,-6.30 -6.41,-6.27 -6.40,-6.24 -6.40,-6.21 -6.39,-6.17 -6.38,-6.14 -6.37,-6.11 -6.37,-6.07 -6.36,-6.04 -6.35,-6.00 -6.34,-5.97 -6.33,-5.93 -6.32,-5.89 -6.31,-5.86 -6.30,-5.82 -6.28,-5.78 -6.27,-5.74 -6.26,-5.70 -6.24,-5.66 -6.23,-5.62 -6.21,-5.58 -6.20,-5.54 -6.18,-5.50 -6.17,-5.45 -6.15,-5.41 -6.14,-5.37 -6.12,-5.32 -6.10,-5.28 -6.08,-5.23 -6.06,-5.19 -6.04,-5.14 -6.02,-5.10 -6.00,-5.05 -5.98,-5.00 -5.96,-4.95 -5.94,-4.91 -5.92,-4.86 -5.90,-4.81 -5.87,-4.76 -5.85,-4.71 -5.82,-4.66 -5.80,-4.61 -5.78,-4.56 -5.75,-4.51 -5.72,-4.46 -5.70,-4.40 -5.67,-4.35 -5.65,-4.30 -5.62,-4.25 -5.59,-4.19 -5.56,-4.14 -5.53,-4.08 -5.50,-4.03 -5.47,-3.97 -5.44,-3.92 -5.41,-3.86 -5.38,-3.81 -5.35,-3.75 -5.32,-3.69 -5.29,-3.64 -5.25,-3.58 -5.22,-3.52 -5.19,-3.47 -5.15,-3.41 -5.12,-3.35 -5.08,-3.29 -5.05,-3.23 -5.01,-3.17 -4.98,-3.11 -4.94,-3.05 -4.90,-2.99 -4.87,-2.93 -4.83,-2.87 -4.79,-2.81 -4.75,-2.75 -4.71,-2.69 -4.68,-2.63 -4.64,-2.56 -4.60,-2.50 -4.56,-2.44 -4.52,-2.38 -4.47,-2.32 -4.43,-2.25 -4.39,-2.19 -4.35,-2.13 -4.31,-2.06 -4.26,-2.00 -4.22,-1.94 -4.18,-1.87 -4.13,-1.81 -4.09,-1.74 -4.04,-1.68 -4.00,-1.62 -3.95,-1.55 -3.91,-1.49 -3.86,-1.42 -3.81,-1.36 -3.77,-1.29 -3.72,-1.23 -3.67,-1.16 -3.62,-1.10 -3.58,-1.03 -3.53,-0.97 -3.48,-0.90 -3.43,-0.83 -3.38,-0.77 -3.33,-0.70 -3.28,-0.64 -3.23,-0.57 -3.18,-0.51 -3.13,-0.44 -3.08,-0.37 -3.03,-0.31 -2.97,-0.24 -2.92,-0.18 -2.87,-0.11 -2.82,-0.04 -2.76,0.02 -2.71,0.09 -2.66,0.16 -2.60,0.22 -2.55,0.29 -2.49,0.35 -2.44,0.42 -2.38,0.49 -2.33,0.55 -2.27,0.62 -2.22,0.68 -2.16,0.75 -2.11,0.82 -2.05,0.88 -1.99,0.95 -1.94,1.01 -1.88,1.08 -1.82,1.14 -1.76,1.21 -1.71,1.27 -1.65,1.34 -1.59,1.40 -1.53,1.47 -1.47,1.53 -1.41,1.60 -1.35,1.66 -1.30,1.73 -1.24,1.79 -1.18,1.86 -1.12,1.92 -1.06,1.98 -1.00,2.05 -0.94,2.11 -0.88,2.17 -0.82,2.24 -0.75,2.30 -0.69,2.36 -0.63,2.43 -0.57,2.49 -0.51,2.55 -0.45,2.61 -0.39,2.67 -0.33,2.74 -0.26,2.80 -0.20,2.86 -0.14,2.92 -0.08,2.98 -0.02,3.04 0.05,3.10 0.11,3.16 0.17,3.22 0.24,3.28 0.30,3.34 0.36,3.40 0.42,3.46 0.49,3.51 0.55,3.57 0.61,3.63 0.68,3.69 0.74,3.75 0.80,3.80 0.87,3.86 0.93,3.92 0.99,3.97 1.06,4.03 1.12,4.08 1.18,4.14 1.25,4.19 1.31,4.25 1.37,4.30 1.44,4.36 1.50,4.41 1.56,4.46 1.63,4.51 1.69,4.57 1.75,4.62 1.82,4.67 1.88,4.72 1.94,4.77 2.01,4.82 2.07,4.87 2.13,4.92 2.19,4.97 2.26,5.02 2.32,5.07 2.38,5.12 2.45,5.17 2.51,5.21 2.57,5.26 2.63,5.31 2.70,5.35 2.76,5.40 2.82,5.45 2.88,5.49 2.94,5.53 3.00,5.58 3.07,5.62 3.13,5.67 3.19,5.71 3.25,5.75 3.31,5.79 3.37,5.83 3.43,5.87 3.49,5.92 3.55,5.96 3.61,5.99 3.67,6.03 3.73,6.07 3.79,6.11 3.85,6.15 3.91,6.18 3.97,6.22 4.03,6.26 4.08,6.29 4.14,6.33 4.20,6.36 4.26,6.40 4.31,6.43 4.37,6.46 4.43,6.50 4.48,6.53 4.54,6.56 4.60,6.59 4.65,6.62 4.71,6.65 4.76,6.68 4.82,6.71 4.87,6.74 4.93,6.77 4.98,6.79 5.03,6.82 5.09,6.85 5.14,6.87 5.19,6.90 5.24,6.92 5.29,6.94 5.35,6.97 5.40,6.99 5.45,7.01 5.50,7.03 5.55,7.06 5.60,7.08 5.64,7.10 5.69,7.12 5.74,7.13 5.79,7.15 5.84,7.17 5.88,7.19 5.93,7.20 5.98,7.22 6.02,7.24 6.07,7.25 6.11,7.26 6.16,7.28 6.20,7.29 6.24,7.30 6.29,7.31 6.33,7.33 6.37,7.34 6.41,7.35 6.45,7.36 6.49,7.36 6.53,7.37 6.57,7.38 6.61,7.39 6.65,7.39 6.69,7.40 6.72,7.40 6.76,7.41 6.80,7.41 6.83,7.42 6.87,7.42 6.90,7.42 6.94,7.42 6.97,7.42 7.00,7.42 7.04,7.42 7.07,7.42 7.10,7.42 7.13,7.42 7.16,7.41 7.19,7.41 7.22,7.41 7.25,7.40 7.27,7.39 7.30,7.39 7.33,7.38 7.35,7.37 7.38,7.37 7.40,7.36 7.43,7.35 7.45,7.34 7.47,7.33 7.49,7.32 7.52,7.30 7.54,7.29 7.56,7.28 7.58,7.26 7.60,7.25 7.61,7.24 7.63,7.22 7.65,7.20 7.66,7.19 7.68,7.17 7.69,7.15 7.71,7.13 7.72,7.11 7.73,7.09 7.75,7.07 7.76,7.05 7.77,7.03 7.78,7.01 7.79,6.98 7.80,6.96 7.81,6.93 7.81,6.91 7.82,6.88 7.82,6.86 7.83,6.83 7.83,6.80 7.84,6.77 7.84,6.74 7.84,6.72 7.85,6.69 7.85,6.65 7.85,6.62 7.85,6.59 7.84,6.56 7.84,6.53 7.84,6.49 7.84,6.46 7.83,6.42 7.83,6.39 7.82,6.35 7.81,6.32 7.81,6.28 7.80,6.24 7.79,6.20 7.78,6.16 7.77,6.12 7.76,6.08 7.75,6.04 7.74,6.00 7.72,5.96 7.71,5.92 7.70,5.87 7.68,5.83 7.66,5.79 7.65,5.74 7.63,5.70 7.61,5.65 7.59,5.60 7.57,5.56 7.55,5.51 7.53,5.46 7.51,5.41 7.49,5.36 7.46,5.32 7.44,5.26 7.41,5.21 7.39,5.16 7.36,5.11 7.34,5.06 7.31,5.01 7.28,4.95 7.25,4.90 7.22,4.85 7.19,4.79 7.16,4.74 7.13,4.68 7.09,4.63 7.06,4.57 7.03,4.51 6.99,4.46 6.95,4.40 6.92,4.34 6.88,4.28 6.84,4.22 6.81,4.16 6.77,4.10 6.73,4.04 6.69,3.98 6.64,3.92 6.60,3.86 6.56,3.80 6.52,3.73 6.47,3.67 6.43,3.61 6.38,3.54 6.34,3.48 6.29,3.42 6.24,3.35 6.20,3.29 6.15,3.22 6.10,3.16 6.05,3.09 6.00,3.02 5.95,2.96 5.90,2.89 5.84,2.82 5.79,2.76 5.74,2.69 5.68,2.62 5.63,2.55 5.57,2.48 5.52,2.41 5.46,2.34 5.41,2.28 5.35,2.21 5.29,2.14 5.23,2.07 5.17,2.00 5.11,1.92 5.05,1.85 4.99,1.78 4.93,1.71 4.87,1.64 4.81,1.57 4.74,1.50 4.68,1.43 4.62,1.35 4.55,1.28 4.49,1.21 4.42,1.14 4.36,1.06 4.29,0.99 4.22,0.92 4.16,0.85 4.09,0.77 4.02,0.70 3.95,0.63 3.88,0.55 3.81,0.48 3.74,0.41 3.67,0.33 3.60,0.26 3.53,0.19 3.46,0.11 3.39,0.04 3.32,-0.03 3.25,-0.11 3.17,-0.18 3.10,-0.25 3.03,-0.33 2.95,-0.40 2.88,-0.47 2.81,-0.55 2.73,-0.62 2.66,-0.69 2.58,-0.77 2.51,-0.84 2.43,-0.91 2.35,-0.98 2.28,-1.06 2.20,-1.13 2.12,-1.20 2.05,-1.27 1.97,-1.35 1.89,-1.42 1.82,-1.49 1.74,-1.56 1.66,-1.63 1.58,-1.70 1.50,-1.78 1.43,-1.85 1.35,-1.92 1.27,-1.99 1.19,-2.06 1.11,-2.13 1.03,-2.20 0.95,-2.27 0.87,-2.34 0.80,-2.40 0.72,-2.47 0.64,-2.54 0.56,-2.61 0.48,-2.68 0.40,-2.74 0.32,-2.81 0.24,-2.88 0.16,-2.94 0.08,-3.01 0.00,-3.08 -0.08,-3.14 -0.16,-3.21 -0.24,-3.27 -0.32,-3.34 -0.40,-3.40 -0.48,-3.46 -0.55,-3.53 -0.63,-3.59 -0.71,-3.65 -0.79,-3.71 -0.87,-3.78 -0.95,-3.84 -1.03,-3.90 -1.11,-3.96 -1.19,-4.02 -1.26,-4.08 -1.34,-4.13 -1.42,-4.19 -1.50,-4.25 -1.57,-4.31 -1.65,-4.36 -1.73,-4.42 -1.81,-4.48 -1.88,-4.53 -1.96,-4.59 -2.03,-4.64 -2.11,-4.70 -2.19,-4.75 -2.26,-4.80 -2.34,-4.85 -2.41,-4.91 -2.49,-4.96 -2.56,-5.01 -2.63,-5.06 -2.71,-5.11 -2.78,-5.15" fill="none" stroke="#ff3b30" stroke-width="1" vector-effect="non-scaling-stroke" stroke-linejoin="round" stroke-linecap="round"/></svg>
