<svg xmlns="http://www.w3.org/2000/svg" viewBox="-11.2 -11.2 22.4 22.4"><title>October 2025 — libration loop, to scale</title><circle r="1" fill="#3a86ff"/><polyline points="6.56,6.27 6.58,6.23 6.61,6.19 6.63,6.15 6.65,6.11 6.67,6.07 6.70,6.03 6.72,5.99 6.74,5.94 6.76,5.90 6.78,5.86 6.79,5.81 6.81,5.77 6.83,5.73 6.85,5.68 6.86,5.63 6.88,5.59 6.89,5.54 6.91,5.49 6.92,5.45 6.93,5.40 6.94,5.35 6.95,5.30 6.96,5.25 6.97,5.20 6.98,5.15 6.99,5.10 7.00,5.05 7.00,5.00 7.01,4.94 7.02,4.89 7.02,4.84 7.03,4.78 7.03,4.73 7.03,4.68 7.03,4.62 7.03,4.57 7.03,4.51 7.03,4.45 7.03,4.40 7.03,4.34 7.03,4.28 7.03,4.22 7.02,4.17 7.02,4.11 7.01,4.05 7.00,3.99 7.00,3.93 6.99,3.87 6.98,3.81 6.97,3.75 6.96,3.69 6.95,3.62 6.94,3.56 6.93,3.50 6.92,3.44 6.90,3.37 6.89,3.31 6.87,3.25 6.86,3.18 6.84,3.12 6.82,3.06 6.80,2.99 6.79,2.93 6.77,2.86 6.75,2.79 6.72,2.73 6.70,2.66 6.68,2.60 6.66,2.53 6.63,2.46 6.61,2.40 6.58,2.33 6.56,2.26 6.53,2.19 6.50,2.12 6.47,2.06 6.44,1.99 6.41,1.92 6.38,1.85 6.35,1.78 6.32,1.71 6.29,1.64 6.25,1.57 6.22,1.50 6.18,1.43 6.15,1.36 6.11,1.29 6.08,1.22 6.04,1.15 6.00,1.08 5.96,1.01 5.92,0.94 5.88,0.87 5.84,0.80 5.80,0.73 5.75,0.66 5.71,0.59 5.67,0.51 5.62,0.44 5.58,0.37 5.53,0.30 5.48,0.23 5.44,0.16 5.39,0.09 5.34,0.02 5.29,-0.06 5.24,-0.13 5.19,-0.20 5.14,-0.27 5.09,-0.34 5.04,-0.41 4.98,-0.48 4.93,-0.56 4.88,-0.63 4.82,-0.70 4.77,-0.77 4.71,-0.84 4.66,-0.91 4.60,-0.98 4.54,-1.05 4.48,-1.12 4.43,-1.19 4.37,-1.26 4.31,-1.33 4.25,-1.40 4.19,-1.47 4.12,-1.54 4.06,-1.61 4.00,-1.68 3.94,-1.75 3.88,-1.82 3.81,-1.89 3.75,-1.96 3.68,-2.02 3.62,-2.09 3.55,-2.16 3.49,-2.23 3.42,-2.29 3.35,-2.36 3.29,-2.43 3.22,-2.49 3.15,-2.56 3.08,-2.63 3.01,-2.69 2.95,-2.76 2.88,-2.82 2.81,-2.89 2.74,-2.95 2.67,-3.02 2.59,-3.08 2.52,-3.14 2.45,-3.21 2.38,-3.27 2.31,-3.33 2.24,-3.39 2.16,-3.45 2.09,-3.52 2.02,-3.58 1.94,-3.64 1.87,-3.70 1.80,-3.76 1.72,-3.82 1.65,-3.87 1.57,-3.93 1.50,-3.99 1.42,-4.05 1.35,-4.10 1.27,-4.16 1.20,-4.22 1.12,-4.27 1.04,-4.33 0.97,-4.38 0.89,-4.44 0.82,-4.49 0.74,-4.54 0.66,-4.59 0.59,-4.65 0.51,-4.70 0.43,-4.75 0.36,-4.80 0.28,-4.85 0.20,-4.90 0.12,-4.95 0.05,-4.99 -0.03,-5.04 -0.11,-5.09 -0.18,-5.14 -0.26,-5.18 -0.34,-5.23 -0.42,-5.27 -0.49,-5.32 -0.57,-5.36 -0.65,-5.40 -0.72,-5.44 -0.80,-5.49 -0.88,-5.53 -0.95,-5.57 -1.03,-5.61 -1.11,-5.65 -1.18,-5.68 -1.26,-5.72 -1.34,-5.76 -1.41,-5.80 -1.49,-5.83 -1.56,-5.87 -1.64,-5.90 -1.71,-5.94 -1.79,-5.97 -1.86,-6.00 -1.94,-6.03 -2.01,-6.06 -2.09,-6.09 -2.16,-6.12 -2.23,-6.15 -2.31,-6.18 -2.38,-6.21 -2.45,-6.24 -2.53,-6.26 -2.60,-6.29 -2.67,-6.31 -2.74,-6.34 -2.81,-6.36 -2.89,-6.38 -2.96,-6.41 -3.03,-6.43 -3.10,-6.45 -3.17,-6.47 -3.24,-6.49 -3.31,-6.51 -3.37,-6.53 -3.44,-6.54 -3.51,-6.56 -3.58,-6.57 -3.65,-6.59 -3.71,-6.60 -3.78,-6.62 -3.84,-6.63 -3.91,-6.64 -3.98,-6.65 -4.04,-6.66 -4.10,-6.67 -4.17,-6.68 -4.23,-6.69 -4.29,-6.70 -4.36,-6.71 -4.42,-6.71 -4.48,-6.72 -4.54,-6.72 -4.60,-6.73 -4.66,-6.73 -4.72,-6.73 -4.78,-6.74 -4.84,-6.74 -4.90,-6.74 -4.95,-6.74 -5.01,-6.74 -5.07,-6.73 -5.12,-6.73 -5.18,-6.73 -5.23,-6.72 -5.29,-6.72 -5.34,-6.71 -5.39,-6.71 -5.44,-6.70 -5.50,-6.69 -5.55,-6.69 -5.60,-6.68 -5.65,-6.67 -5.70,-6.66 -5.75,-6.65 -5.79,-6.64 -5.84,-6.62 -5.89,-6.61 -5.94,-6.60 -5.98,-6.58 -6.03,-6.57 -6.07,-6.55 -6.11,-6.54 -6.16,-6.52 -6.20,-6.50 -6.24,-6.48 -6.28,-6.46 -6.32,-6.44 -6.36,-6.42 -6.40,-6.40 -6.44,-6.38 -6.48,-6.36 -6.52,-6.33 -6.56,-6.31 -6.59,-6.29 -6.63,-6.26 -6.66,-6.24 -6.70,-6.21 -6.73,-6.18 -6.76,-6.16 -6.79,-6.13 -6.83,-6.10 -6.86,-6.07 -6.89,-6.04 -6.92,-6.01 -6.95,-5.98 -6.97,-5.95 -7.00,-5.91 -7.03,-5.88 -7.05,-5.85 -7.08,-5.81 -7.10,-5.78 -7.13,-5.74 -7.15,-5.71 -7.17,-5.67 -7.20,-5.64 -7.22,-5.60 -7.24,-5.56 -7.26,-5.52 -7.28,-5.48 -7.30,-5.44 -7.31,-5.40 -7.33,-5.36 -7.35,-5.32 -7.36,-5.28 -7.38,-5.24 -7.39,-5.19 -7.41,-5.15 -7.42,-5.11 -7.43,-5.06 -7.45,-5.02 -7.46,-4.97 -7.47,-4.93 -7.48,-4.88 -7.49,-4.84 -7.50,-4.79 -7.51,-4.74 -7.51,-4.69 -7.52,-4.64 -7.53,-4.60 -7.53,-4.55 -7.54,-4.50 -7.54,-4.45 -7.54,-4.40 -7.55,-4.34 -7.55,-4.29 -7.55,-4.24 -7.55,-4.19 -7.55,-4.14 -7.55,-4.08 -7.55,-4.03 -7.55,-3.98 -7.55,-3.92 -7.54,-3.87 -7.54,-3.81 -7.54,-3.76 -7.53,-3.70 -7.53,-3.65 -7.52,-3.59 -7.51,-3.53 -7.51,-3.48 -7.50,-3.42 -7.49,-3.36 -7.48,-3.31 -7.47,-3.25 -7.46,-3.19 -7.45,-3.13 -7.44,-3.07 -7.43,-3.01 -7.42,-2.95 -7.40,-2.89 -7.39,-2.83 -7.38,-2.77 -7.36,-2.71 -7.35,-2.65 -7.33,-2.59 -7.32,-2.53 -7.30,-2.47 -7.28,-2.41 -7.26,-2.34 -7.25,-2.28 -7.23,-2.22 -7.21,-2.16 -7.19,-2.09 -7.17,-2.03 -7.15,-1.97 -7.12,-1.90 -7.10,-1.84 -7.08,-1.78 -7.06,-1.71 -7.03,-1.65 -7.01,-1.59 -6.99,-1.52 -6.96,-1.46 -6.93,-1.39 -6.91,-1.33 -6.88,-1.26 -6.86,-1.20 -6.83,-1.13 -6.80,-1.07 -6.77,-1.00 -6.74,-0.94 -6.71,-0.87 -6.69,-0.81 -6.66,-0.74 -6.62,-0.68 -6.59,-0.61 -6.56,-0.54 -6.53,-0.48 -6.50,-0.41 -6.47,-0.35 -6.43,-0.28 -6.40,-0.22 -6.37,-0.15 -6.33,-0.08 -6.30,-0.02 -6.26,0.05 -6.23,0.11 -6.19,0.18 -6.15,0.25 -6.12,0.31 -6.08,0.38 -6.04,0.44 -6.01,0.51 -5.97,0.58 -5.93,0.64 -5.89,0.71 -5.85,0.77 -5.81,0.84 -5.77,0.90 -5.73,0.97 -5.69,1.03 -5.65,1.10 -5.61,1.17 -5.57,1.23 -5.53,1.30 -5.48,1.36 -5.44,1.43 -5.40,1.49 -5.35,1.55 -5.31,1.62 -5.27,1.68 -5.22,1.75 -5.18,1.81 -5.13,1.88 -5.09,1.94 -5.04,2.00 -5.00,2.07 -4.95,2.13 -4.91,2.19 -4.86,2.26 -4.81,2.32 -4.77,2.38 -4.72,2.44 -4.67,2.50 -4.62,2.57 -4.58,2.63 -4.53,2.69 -4.48,2.75 -4.43,2.81 -4.38,2.87 -4.33,2.93 -4.28,2.99 -4.23,3.05 -4.18,3.11 -4.13,3.17 -4.08,3.23 -4.03,3.29 -3.98,3.35 -3.93,3.41 -3.88,3.47 -3.83,3.53 -3.77,3.58 -3.72,3.64 -3.67,3.70 -3.62,3.76 -3.57,3.81 -3.51,3.87 -3.46,3.92 -3.41,3.98 -3.35,4.04 -3.30,4.09 -3.25,4.15 -3.19,4.20 -3.14,4.25 -3.08,4.31 -3.03,4.36 -2.98,4.41 -2.92,4.47 -2.87,4.52 -2.81,4.57 -2.76,4.62 -2.70,4.67 -2.64,4.73 -2.59,4.78 -2.53,4.83 -2.48,4.88 -2.42,4.92 -2.36,4.97 -2.31,5.02 -2.25,5.07 -2.19,5.12 -2.14,5.17 -2.08,5.21 -2.02,5.26 -1.97,5.31 -1.91,5.35 -1.85,5.40 -1.79,5.44 -1.74,5.49 -1.68,5.53 -1.62,5.57 -1.56,5.62 -1.51,5.66 -1.45,5.70 -1.39,5.74 -1.33,5.79 -1.27,5.83 -1.21,5.87 -1.15,5.91 -1.10,5.95 -1.04,5.99 -0.98,6.02 -0.92,6.06 -0.86,6.10 -0.80,6.14 -0.74,6.17 -0.68,6.21 -0.62,6.25 -0.56,6.28 -0.50,6.32 -0.44,6.35 -0.38,6.38 -0.33,6.42 -0.27,6.45 -0.21,6.48 -0.15,6.51 -0.09,6.55 -0.03,6.58 0.03,6.61 0.09,6.64 0.15,6.66 0.21,6.69 0.27,6.72 0.33,6.75 0.39,6.78 0.45,6.80 0.51,6.83 0.58,6.85 0.64,6.88 0.70,6.90 0.76,6.93 0.82,6.95 0.88,6.97 0.94,7.00 1.00,7.02 1.06,7.04 1.12,7.06 1.18,7.08 1.24,7.10 1.30,7.12 1.36,7.14 1.42,7.16 1.48,7.17 1.54,7.19 1.60,7.21 1.66,7.22 1.72,7.24 1.78,7.25 1.84,7.26 1.90,7.28 1.96,7.29 2.02,7.30 2.08,7.31 2.14,7.33 2.20,7.34 2.26,7.35 2.31,7.36 2.37,7.36 2.43,7.37 2.49,7.38 2.55,7.39 2.61,7.39 2.67,7.40 2.73,7.41 2.79,7.41 2.85,7.41 2.90,7.42 2.96,7.42 3.02,7.42 3.08,7.43 3.14,7.43 3.19,7.43 3.25,7.43 3.31,7.43 3.37,7.43 3.42,7.42 3.48,7.42 3.54,7.42 3.59,7.42 3.65,7.41 3.71,7.41 3.76,7.40 3.82,7.40 3.88,7.39 3.93,7.38 3.99,7.38 4.04,7.37 4.10,7.36 4.15,7.35 4.21,7.34 4.26,7.33 4.32,7.32 4.37,7.31 4.42,7.29 4.48,7.28 4.53,7.27 4.58,7.25 4.64,7.24 4.69,7.22 4.74,7.21 4.79,7.19 4.85,7.18 4.90,7.16 4.95,7.14 5.00,7.12 5.05,7.10 5.10,7.08 5.15,7.06 5.20,7.04 5.25,7.02 5.30,7.00 5.35,6.98 5.40,6.95 5.45,6.93 5.49,6.91 5.54,6.88 5.59,6.86 5.64,6.83 5.68,6.80 5.73,6.78 5.78,6.75 5.82,6.72 5.87,6.69 5.91,6.66 5.95,6.63 6.00,6.60 6.04,6.57 6.09,6.54 6.13,6.51 6.17,6.48 6.21,6.44 6.25,6.41 6.30,6.38 6.34,6.34 6.38,6.31 6.42,6.27 6.46,6.24 6.49,6.20 6.53,6.16 6.57,6.12 6.61,6.09 6.65,6.05 6.68,6.01 6.72,5.97 6.75,5.93 6.79,5.89 6.82,5.85 6.86,5.81 6.89,5.76 6.92,5.72 6.96,5.68 6.99,5.63 7.02,5.59 7.05,5.55 7.08,5.50 7.11,5.45 7.14,5.41 7.17,5.36 7.20,5.32 7.23,5.27 7.25,5.22 7.28,5.17 7.30,5.12 7.33,5.07 7.35,5.02 7.38,4.97 7.40,4.92 7.42,4.87 7.45,4.82 7.47,4.77 7.49,4.72 7.51,4.67 7.53,4.61 7.55,4.56 7.57,4.51 7.58,4.45 7.60,4.40 7.62,4.34 7.63,4.29 7.65,4.23 7.66,4.18 7.68,4.12 7.69,4.06 7.70,4.01 7.71,3.95 7.73,3.89 7.74,3.83 7.74,3.77 7.75,3.71 7.76,3.65 7.77,3.60 7.78,3.54 7.78,3.48 7.79,3.41 7.79,3.35 7.80,3.29 7.80,3.23 7.80,3.17 7.80,3.11 7.80,3.05 7.80,2.98 7.80,2.92 7.80,2.86 7.80,2.79 7.80,2.73 7.79,2.67 7.79,2.60 7.78,2.54 7.78,2.47 7.77,2.41 7.76,2.34 7.75,2.28 7.74,2.21 7.73,2.15 7.72,2.08 7.71,2.01 7.70,1.95 7.69,1.88 7.67,1.81 7.66,1.75 7.64,1.68 7.62,1.61 7.61,1.55 7.59,1.48 7.57,1.41 7.55,1.34 7.53,1.27 7.51,1.21" fill="none" stroke="#ff3b30" stroke-width="1" vector-effect="non-scaling-stroke" stroke-linejoin="round" stroke-linecap="round"/></svg>
