<svg xmlns="http://www.w3.org/2000/svg" viewBox="-11.2 -11.2 22.4 22.4"><title>May 2025 — libration loop, to scale</title><circle r="1" fill="#3a86ff"/><polyline points="-5.78,-6.70 -5.84,-6.70 -5.90,-6.70 -5.95,-6.71 -6.01,-6.71 -6.07,-6.71 -6.12,-6.71 -6.18,-6.71 -6.23,-6.71 -6.28,-6.71 -6.34,-6.71 -6.39,-6.70 -6.44,-6.70 -6.49,-6.70 -6.54,-6.69 -6.59,-6.69 -6.63,-6.68 -6.68,-6.67 -6.73,-6.67 -6.77,-6.66 -6.82,-6.65 -6.86,-6.64 -6.91,-6.63 -6.95,-6.62 -6.99,-6.61 -7.03,-6.59 -7.07,-6.58 -7.11,-6.57 -7.15,-6.55 -7.19,-6.54 -7.22,-6.52 -7.26,-6.51 -7.29,-6.49 -7.33,-6.47 -7.36,-6.45 -7.40,-6.44 -7.43,-6.42 -7.46,-6.40 -7.49,-6.38 -7.52,-6.35 -7.55,-6.33 -7.57,-6.31 -7.60,-6.29 -7.63,-6.26 -7.65,-6.24 -7.68,-6.21 -7.70,-6.19 -7.72,-6.16 -7.74,-6.13 -7.77,-6.11 -7.79,-6.08 -7.80,-6.05 -7.82,-6.02 -7.84,-5.99 -7.86,-5.96 -7.87,-5.93 -7.89,-5.90 -7.90,-5.86 -7.92,-5.83 -7.93,-5.80 -7.94,-5.76 -7.95,-5.73 -7.96,-5.70 -7.97,-5.66 -7.98,-5.62 -7.98,-5.59 -7.99,-5.55 -8.00,-5.51 -8.00,-5.47 -8.01,-5.44 -8.01,-5.40 -8.01,-5.36 -8.01,-5.32 -8.01,-5.28 -8.01,-5.24 -8.01,-5.19 -8.01,-5.15 -8.01,-5.11 -8.00,-5.07 -8.00,-5.02 -8.00,-4.98 -7.99,-4.93 -7.98,-4.89 -7.98,-4.84 -7.97,-4.80 -7.96,-4.75 -7.95,-4.71 -7.94,-4.66 -7.93,-4.61 -7.91,-4.56 -7.90,-4.52 -7.89,-4.47 -7.87,-4.42 -7.86,-4.37 -7.84,-4.32 -7.82,-4.27 -7.81,-4.22 -7.79,-4.17 -7.77,-4.12 -7.75,-4.06 -7.73,-4.01 -7.71,-3.96 -7.69,-3.91 -7.66,-3.85 -7.64,-3.80 -7.61,-3.75 -7.59,-3.69 -7.56,-3.64 -7.54,-3.58 -7.51,-3.53 -7.48,-3.47 -7.46,-3.42 -7.43,-3.36 -7.40,-3.30 -7.37,-3.25 -7.34,-3.19 -7.30,-3.13 -7.27,-3.08 -7.24,-3.02 -7.20,-2.96 -7.17,-2.90 -7.14,-2.84 -7.10,-2.79 -7.06,-2.73 -7.03,-2.67 -6.99,-2.61 -6.95,-2.55 -6.91,-2.49 -6.88,-2.43 -6.84,-2.37 -6.80,-2.31 -6.75,-2.25 -6.71,-2.19 -6.67,-2.13 -6.63,-2.06 -6.59,-2.00 -6.54,-1.94 -6.50,-1.88 -6.45,-1.82 -6.41,-1.76 -6.36,-1.69 -6.32,-1.63 -6.27,-1.57 -6.22,-1.51 -6.18,-1.44 -6.13,-1.38 -6.08,-1.32 -6.03,-1.25 -5.98,-1.19 -5.93,-1.13 -5.88,-1.06 -5.83,-1.00 -5.78,-0.94 -5.73,-0.87 -5.68,-0.81 -5.63,-0.75 -5.57,-0.68 -5.52,-0.62 -5.47,-0.55 -5.41,-0.49 -5.36,-0.43 -5.31,-0.36 -5.25,-0.30 -5.20,-0.23 -5.14,-0.17 -5.08,-0.11 -5.03,-0.04 -4.97,0.02 -4.91,0.09 -4.86,0.15 -4.80,0.21 -4.74,0.28 -4.68,0.34 -4.63,0.41 -4.57,0.47 -4.51,0.54 -4.45,0.60 -4.39,0.66 -4.33,0.73 -4.27,0.79 -4.21,0.85 -4.15,0.92 -4.09,0.98 -4.03,1.05 -3.97,1.11 -3.91,1.17 -3.85,1.24 -3.78,1.30 -3.72,1.36 -3.66,1.43 -3.60,1.49 -3.54,1.55 -3.47,1.61 -3.41,1.68 -3.35,1.74 -3.29,1.80 -3.22,1.86 -3.16,1.93 -3.10,1.99 -3.03,2.05 -2.97,2.11 -2.91,2.17 -2.84,2.23 -2.78,2.29 -2.72,2.35 -2.65,2.42 -2.59,2.48 -2.52,2.54 -2.46,2.60 -2.40,2.66 -2.33,2.72 -2.27,2.78 -2.20,2.83 -2.14,2.89 -2.08,2.95 -2.01,3.01 -1.95,3.07 -1.88,3.13 -1.82,3.19 -1.75,3.24 -1.69,3.30 -1.63,3.36 -1.56,3.41 -1.50,3.47 -1.43,3.53 -1.37,3.58 -1.30,3.64 -1.24,3.69 -1.17,3.75 -1.11,3.80 -1.05,3.86 -0.98,3.91 -0.92,3.97 -0.85,4.02 -0.79,4.08 -0.73,4.13 -0.66,4.18 -0.60,4.23 -0.54,4.29 -0.47,4.34 -0.41,4.39 -0.35,4.44 -0.28,4.49 -0.22,4.54 -0.16,4.59 -0.09,4.64 -0.03,4.69 0.03,4.74 0.10,4.79 0.16,4.84 0.22,4.88 0.28,4.93 0.34,4.98 0.41,5.02 0.47,5.07 0.53,5.12 0.59,5.16 0.65,5.21 0.71,5.25 0.78,5.30 0.84,5.34 0.90,5.38 0.96,5.43 1.02,5.47 1.08,5.51 1.14,5.55 1.20,5.59 1.26,5.64 1.32,5.68 1.38,5.72 1.44,5.76 1.50,5.79 1.55,5.83 1.61,5.87 1.67,5.91 1.73,5.95 1.79,5.98 1.85,6.02 1.90,6.06 1.96,6.09 2.02,6.13 2.08,6.16 2.13,6.19 2.19,6.23 2.25,6.26 2.30,6.29 2.36,6.33 2.41,6.36 2.47,6.39 2.52,6.42 2.58,6.45 2.63,6.48 2.69,6.51 2.74,6.53 2.80,6.56 2.85,6.59 2.90,6.62 2.96,6.64 3.01,6.67 3.06,6.69 3.12,6.72 3.17,6.74 3.22,6.77 3.27,6.79 3.33,6.81 3.38,6.84 3.43,6.86 3.48,6.88 3.53,6.90 3.58,6.92 3.63,6.94 3.68,6.96 3.73,6.97 3.78,6.99 3.83,7.01 3.88,7.03 3.93,7.04 3.97,7.06 4.02,7.07 4.07,7.09 4.12,7.10 4.16,7.11 4.21,7.13 4.26,7.14 4.30,7.15 4.35,7.16 4.40,7.17 4.44,7.18 4.49,7.19 4.53,7.20 4.58,7.21 4.62,7.21 4.67,7.22 4.71,7.23 4.75,7.23 4.80,7.24 4.84,7.24 4.88,7.25 4.92,7.25 4.97,7.25 5.01,7.25 5.05,7.26 5.09,7.26 5.13,7.26 5.17,7.26 5.21,7.26 5.25,7.25 5.29,7.25 5.33,7.25 5.37,7.25 5.41,7.24 5.45,7.24 5.48,7.23 5.52,7.23 5.56,7.22 5.60,7.21 5.63,7.21 5.67,7.20 5.70,7.19 5.74,7.18 5.78,7.17 5.81,7.16 5.85,7.15 5.88,7.14 5.91,7.13 5.95,7.11 5.98,7.10 6.01,7.09 6.05,7.07 6.08,7.06 6.11,7.04 6.14,7.03 6.17,7.01 6.20,6.99 6.23,6.97 6.26,6.95 6.29,6.94 6.32,6.92 6.35,6.90 6.38,6.87 6.41,6.85 6.44,6.83 6.47,6.81 6.49,6.78 6.52,6.76 6.55,6.74 6.57,6.71 6.60,6.69 6.62,6.66 6.65,6.63 6.67,6.61 6.70,6.58 6.72,6.55 6.74,6.52 6.77,6.49 6.79,6.46 6.81,6.43 6.83,6.40 6.85,6.37 6.87,6.34 6.90,6.30 6.92,6.27 6.93,6.24 6.95,6.20 6.97,6.17 6.99,6.13 7.01,6.09 7.03,6.06 7.04,6.02 7.06,5.98 7.08,5.94 7.09,5.91 7.11,5.87 7.12,5.83 7.14,5.79 7.15,5.75 7.16,5.70 7.18,5.66 7.19,5.62 7.20,5.58 7.21,5.53 7.22,5.49 7.23,5.45 7.24,5.40 7.25,5.36 7.26,5.31 7.27,5.26 7.28,5.22 7.29,5.17 7.30,5.12 7.30,5.07 7.31,5.03 7.31,4.98 7.32,4.93 7.32,4.88 7.33,4.83 7.33,4.78 7.34,4.73 7.34,4.67 7.34,4.62 7.34,4.57 7.34,4.52 7.34,4.46 7.34,4.41 7.34,4.35 7.34,4.30 7.34,4.25 7.34,4.19 7.34,4.13 7.33,4.08 7.33,4.02 7.32,3.96 7.32,3.91 7.31,3.85 7.31,3.79 7.30,3.73 7.29,3.67 7.29,3.62 7.28,3.56 7.27,3.50 7.26,3.44 7.25,3.38 7.24,3.32 7.23,3.25 7.22,3.19 7.20,3.13 7.19,3.07 7.18,3.01 7.16,2.94 7.15,2.88 7.13,2.82 7.12,2.76 7.10,2.69 7.08,2.63 7.06,2.56 7.05,2.50 7.03,2.44 7.01,2.37 6.99,2.31 6.97,2.24 6.95,2.17 6.92,2.11 6.90,2.04 6.88,1.98 6.85,1.91 6.83,1.84 6.80,1.78 6.78,1.71 6.75,1.64 6.72,1.58 6.70,1.51 6.67,1.44 6.64,1.37 6.61,1.31 6.58,1.24 6.55,1.17 6.52,1.10 6.48,1.03 6.45,0.96 6.42,0.90 6.38,0.83 6.35,0.76 6.31,0.69 6.28,0.62 6.24,0.55 6.20,0.48 6.17,0.41 6.13,0.35 6.09,0.28 6.05,0.21 6.01,0.14 5.97,0.07 5.93,0.00 5.88,-0.07 5.84,-0.14 5.80,-0.21 5.75,-0.28 5.71,-0.34 5.66,-0.41 5.62,-0.48 5.57,-0.55 5.52,-0.62 5.47,-0.69 5.43,-0.76 5.38,-0.83 5.33,-0.89 5.28,-0.96 5.23,-1.03 5.17,-1.10 5.12,-1.17 5.07,-1.24 5.02,-1.30 4.96,-1.37 4.91,-1.44 4.85,-1.51 4.80,-1.57 4.74,-1.64 4.68,-1.71 4.63,-1.77 4.57,-1.84 4.51,-1.91 4.45,-1.97 4.39,-2.04 4.33,-2.10 4.27,-2.17 4.21,-2.23 4.15,-2.30 4.09,-2.36 4.02,-2.43 3.96,-2.49 3.90,-2.56 3.83,-2.62 3.77,-2.68 3.70,-2.75 3.64,-2.81 3.57,-2.87 3.50,-2.93 3.44,-3.00 3.37,-3.06 3.30,-3.12 3.23,-3.18 3.16,-3.24 3.09,-3.30 3.02,-3.36 2.95,-3.42 2.88,-3.48 2.81,-3.54 2.74,-3.59 2.67,-3.65 2.59,-3.71 2.52,-3.77 2.45,-3.82 2.37,-3.88 2.30,-3.93 2.23,-3.99 2.15,-4.04 2.08,-4.10 2.00,-4.15 1.93,-4.20 1.85,-4.26 1.77,-4.31 1.70,-4.36 1.62,-4.41 1.54,-4.46 1.47,-4.51 1.39,-4.56 1.31,-4.61 1.23,-4.66 1.15,-4.71 1.08,-4.76 1.00,-4.80 0.92,-4.85 0.84,-4.90 0.76,-4.94 0.68,-4.99 0.60,-5.03 0.52,-5.08 0.44,-5.12 0.36,-5.16 0.28,-5.20 0.20,-5.25 0.12,-5.29 0.04,-5.33 -0.04,-5.37 -0.12,-5.40 -0.20,-5.44 -0.29,-5.48 -0.37,-5.52 -0.45,-5.56 -0.53,-5.59 -0.61,-5.63 -0.69,-5.66 -0.77,-5.69 -0.85,-5.73 -0.93,-5.76 -1.02,-5.79 -1.10,-5.82 -1.18,-5.86 -1.26,-5.89 -1.34,-5.91 -1.42,-5.94 -1.50,-5.97 -1.58,-6.00 -1.66,-6.03 -1.74,-6.05 -1.82,-6.08 -1.90,-6.10 -1.98,-6.13 -2.06,-6.15 -2.14,-6.17 -2.22,-6.19 -2.30,-6.21 -2.38,-6.24 -2.45,-6.25 -2.53,-6.27 -2.61,-6.29 -2.69,-6.31 -2.77,-6.33 -2.84,-6.34 -2.92,-6.36 -3.00,-6.37 -3.07,-6.39 -3.15,-6.40 -3.22,-6.41 -3.30,-6.43 -3.38,-6.44 -3.45,-6.45 -3.52,-6.46 -3.60,-6.47 -3.67,-6.48 -3.74,-6.48 -3.82,-6.49 -3.89,-6.50 -3.96,-6.50 -4.03,-6.51 -4.10,-6.51 -4.17,-6.51 -4.24,-6.52 -4.31,-6.52 -4.38,-6.52 -4.45,-6.52 -4.52,-6.52 -4.58,-6.52 -4.65,-6.52 -4.72,-6.52 -4.78,-6.51 -4.85,-6.51 -4.91,-6.50 -4.98,-6.50 -5.04,-6.49 -5.10,-6.49 -5.17,-6.48 -5.23,-6.47 -5.29,-6.46 -5.35,-6.45 -5.41,-6.44 -5.47,-6.43 -5.53,-6.42 -5.58,-6.41 -5.64,-6.40 -5.70,-6.38 -5.75,-6.37 -5.81,-6.36 -5.86,-6.34 -5.92,-6.32 -5.97,-6.31 -6.02,-6.29 -6.07,-6.27 -6.12,-6.25 -6.17,-6.23 -6.22,-6.21 -6.27,-6.19 -6.32,-6.17 -6.37,-6.15 -6.41,-6.13 -6.46,-6.10 -6.50,-6.08 -6.55,-6.06 -6.59,-6.03 -6.63,-6.01 -6.68,-5.98 -6.72,-5.95 -6.76,-5.92 -6.80,-5.90 -6.83,-5.87 -6.87,-5.84 -6.91,-5.81 -6.94,-5.78 -6.98,-5.75 -7.01,-5.72 -7.05,-5.68 -7.08,-5.65 -7.11,-5.62 -7.14,-5.58 -7.17,-5.55 -7.20,-5.51 -7.23,-5.48 -7.26,-5.44 -7.28,-5.41 -7.31,-5.37 -7.34,-5.33 -7.36,-5.29 -7.38,-5.25 -7.40,-5.22 -7.43,-5.18 -7.45,-5.14 -7.47,-5.09 -7.49,-5.05 -7.50,-5.01 -7.52,-4.97 -7.54,-4.93 -7.55,-4.88 -7.57,-4.84 -7.58,-4.80 -7.59,-4.75 -7.61,-4.71 -7.62,-4.66 -7.63,-4.62 -7.64,-4.57 -7.64,-4.52 -7.65,-4.48 -7.66,-4.43 -7.66,-4.38 -7.67,-4.33 -7.67,-4.28" fill="none" stroke="#ff3b30" stroke-width="1" vector-effect="non-scaling-stroke" stroke-linejoin="round" stroke-linecap="round"/></svg>
