<svg xmlns="http://www.w3.org/2000/svg" viewBox="-11.2 -11.2 22.4 22.4"><title>August 2025 — libration loop, to scale</title><circle r="1" fill="#3a86ff"/><polyline points="-1.33,5.19 -1.27,5.23 -1.21,5.28 -1.15,5.32 -1.09,5.37 -1.03,5.42 -0.96,5.46 -0.90,5.50 -0.84,5.55 -0.78,5.59 -0.72,5.63 -0.66,5.67 -0.60,5.72 -0.54,5.76 -0.48,5.80 -0.42,5.84 -0.36,5.88 -0.30,5.92 -0.24,5.96 -0.18,6.00 -0.12,6.03 -0.06,6.07 0.00,6.11 0.06,6.15 0.12,6.18 0.18,6.22 0.24,6.25 0.30,6.29 0.36,6.32 0.42,6.35 0.48,6.39 0.54,6.42 0.60,6.45 0.65,6.48 0.71,6.51 0.77,6.55 0.83,6.58 0.89,6.60 0.95,6.63 1.00,6.66 1.06,6.69 1.12,6.72 1.18,6.74 1.23,6.77 1.29,6.80 1.34,6.82 1.40,6.85 1.46,6.87 1.51,6.89 1.57,6.92 1.62,6.94 1.68,6.96 1.73,6.98 1.79,7.00 1.84,7.02 1.89,7.04 1.95,7.06 2.00,7.08 2.05,7.10 2.11,7.12 2.16,7.13 2.21,7.15 2.26,7.17 2.31,7.18 2.36,7.19 2.41,7.21 2.46,7.22 2.51,7.23 2.56,7.25 2.61,7.26 2.66,7.27 2.71,7.28 2.75,7.29 2.80,7.30 2.85,7.31 2.89,7.32 2.94,7.32 2.99,7.33 3.03,7.34 3.08,7.34 3.12,7.35 3.17,7.35 3.21,7.36 3.25,7.36 3.29,7.36 3.34,7.36 3.38,7.36 3.42,7.37 3.46,7.37 3.50,7.37 3.54,7.36 3.58,7.36 3.62,7.36 3.66,7.36 3.70,7.35 3.73,7.35 3.77,7.35 3.81,7.34 3.84,7.34 3.88,7.33 3.92,7.32 3.95,7.31 3.98,7.31 4.02,7.30 4.05,7.29 4.08,7.28 4.12,7.27 4.15,7.26 4.18,7.24 4.21,7.23 4.24,7.22 4.27,7.20 4.30,7.19 4.33,7.17 4.36,7.16 4.38,7.14 4.41,7.13 4.44,7.11 4.46,7.09 4.49,7.07 4.51,7.05 4.54,7.03 4.56,7.01 4.58,6.99 4.61,6.97 4.63,6.95 4.65,6.92 4.67,6.90 4.69,6.88 4.71,6.85 4.73,6.83 4.75,6.80 4.77,6.78 4.79,6.75 4.81,6.72 4.82,6.69 4.84,6.66 4.86,6.63 4.87,6.60 4.89,6.57 4.90,6.54 4.91,6.51 4.93,6.48 4.94,6.45 4.95,6.41 4.96,6.38 4.98,6.35 4.99,6.31 5.00,6.27 5.01,6.24 5.02,6.20 5.02,6.16 5.03,6.13 5.04,6.09 5.05,6.05 5.05,6.01 5.06,5.97 5.06,5.93 5.07,5.89 5.07,5.85 5.08,5.81 5.08,5.76 5.08,5.72 5.09,5.68 5.09,5.63 5.09,5.59 5.09,5.54 5.09,5.50 5.09,5.45 5.09,5.40 5.09,5.36 5.09,5.31 5.09,5.26 5.08,5.21 5.08,5.16 5.08,5.11 5.07,5.06 5.07,5.01 5.06,4.96 5.06,4.91 5.05,4.86 5.04,4.81 5.04,4.75 5.03,4.70 5.02,4.65 5.01,4.59 5.01,4.54 5.00,4.48 4.99,4.43 4.98,4.37 4.97,4.32 4.96,4.26 4.94,4.20 4.93,4.15 4.92,4.09 4.91,4.03 4.89,3.97 4.88,3.91 4.87,3.85 4.85,3.79 4.84,3.73 4.82,3.67 4.81,3.61 4.79,3.55 4.77,3.49 4.76,3.43 4.74,3.37 4.72,3.30 4.70,3.24 4.69,3.18 4.67,3.12 4.65,3.05 4.63,2.99 4.61,2.92 4.59,2.86 4.57,2.80 4.55,2.73 4.52,2.67 4.50,2.60 4.48,2.53 4.46,2.47 4.44,2.40 4.41,2.34 4.39,2.27 4.36,2.20 4.34,2.13 4.32,2.07 4.29,2.00 4.27,1.93 4.24,1.86 4.21,1.80 4.19,1.73 4.16,1.66 4.13,1.59 4.11,1.52 4.08,1.45 4.05,1.38 4.02,1.31 4.00,1.25 3.97,1.18 3.94,1.11 3.91,1.04 3.88,0.97 3.85,0.90 3.82,0.83 3.79,0.76 3.76,0.69 3.73,0.62 3.70,0.55 3.66,0.48 3.63,0.41 3.60,0.34 3.57,0.27 3.54,0.20 3.50,0.13 3.47,0.05 3.44,-0.02 3.40,-0.09 3.37,-0.16 3.33,-0.23 3.30,-0.30 3.27,-0.37 3.23,-0.44 3.20,-0.51 3.16,-0.58 3.13,-0.65 3.09,-0.72 3.05,-0.79 3.02,-0.86 2.98,-0.93 2.95,-1.00 2.91,-1.07 2.87,-1.14 2.84,-1.21 2.80,-1.28 2.76,-1.34 2.72,-1.41 2.69,-1.48 2.65,-1.55 2.61,-1.62 2.57,-1.69 2.53,-1.76 2.49,-1.82 2.45,-1.89 2.42,-1.96 2.38,-2.03 2.34,-2.09 2.30,-2.16 2.26,-2.23 2.22,-2.29 2.18,-2.36 2.14,-2.43 2.10,-2.49 2.06,-2.56 2.02,-2.62 1.98,-2.69 1.93,-2.75 1.89,-2.82 1.85,-2.88 1.81,-2.94 1.77,-3.01 1.73,-3.07 1.69,-3.13 1.65,-3.19 1.60,-3.26 1.56,-3.32 1.52,-3.38 1.48,-3.44 1.43,-3.50 1.39,-3.56 1.35,-3.62 1.31,-3.68 1.26,-3.74 1.22,-3.80 1.18,-3.86 1.14,-3.92 1.09,-3.97 1.05,-4.03 1.01,-4.09 0.96,-4.14 0.92,-4.20 0.88,-4.25 0.83,-4.31 0.79,-4.36 0.75,-4.42 0.70,-4.47 0.66,-4.53 0.61,-4.58 0.57,-4.63 0.53,-4.68 0.48,-4.73 0.44,-4.78 0.39,-4.83 0.35,-4.88 0.31,-4.93 0.26,-4.98 0.22,-5.03 0.17,-5.08 0.13,-5.12 0.08,-5.17 0.04,-5.22 -0.01,-5.26 -0.05,-5.31 -0.09,-5.35 -0.14,-5.39 -0.18,-5.44 -0.23,-5.48 -0.27,-5.52 -0.32,-5.56 -0.36,-5.60 -0.41,-5.64 -0.45,-5.68 -0.50,-5.72 -0.54,-5.76 -0.59,-5.80 -0.63,-5.84 -0.67,-5.87 -0.72,-5.91 -0.76,-5.95 -0.81,-5.98 -0.85,-6.01 -0.90,-6.05 -0.94,-6.08 -0.99,-6.11 -1.03,-6.14 -1.07,-6.18 -1.12,-6.21 -1.16,-6.24 -1.21,-6.27 -1.25,-6.29 -1.30,-6.32 -1.34,-6.35 -1.38,-6.37 -1.43,-6.40 -1.47,-6.43 -1.52,-6.45 -1.56,-6.47 -1.60,-6.50 -1.65,-6.52 -1.69,-6.54 -1.74,-6.56 -1.78,-6.58 -1.82,-6.60 -1.87,-6.62 -1.91,-6.64 -1.95,-6.66 -2.00,-6.67 -2.04,-6.69 -2.08,-6.71 -2.12,-6.72 -2.17,-6.73 -2.21,-6.75 -2.25,-6.76 -2.29,-6.77 -2.34,-6.78 -2.38,-6.80 -2.42,-6.80 -2.46,-6.81 -2.50,-6.82 -2.55,-6.83 -2.59,-6.84 -2.63,-6.84 -2.67,-6.85 -2.71,-6.86 -2.75,-6.86 -2.79,-6.86 -2.83,-6.87 -2.87,-6.87 -2.91,-6.87 -2.95,-6.87 -2.99,-6.87 -3.03,-6.87 -3.07,-6.87 -3.11,-6.87 -3.15,-6.86 -3.19,-6.86 -3.23,-6.86 -3.27,-6.85 -3.31,-6.85 -3.34,-6.84 -3.38,-6.83 -3.42,-6.83 -3.46,-6.82 -3.50,-6.81 -3.53,-6.80 -3.57,-6.79 -3.61,-6.78 -3.64,-6.77 -3.68,-6.75 -3.72,-6.74 -3.75,-6.73 -3.79,-6.71 -3.82,-6.70 -3.86,-6.68 -3.89,-6.66 -3.93,-6.65 -3.96,-6.63 -4.00,-6.61 -4.03,-6.59 -4.06,-6.57 -4.10,-6.55 -4.13,-6.53 -4.16,-6.51 -4.20,-6.49 -4.23,-6.46 -4.26,-6.44 -4.29,-6.41 -4.32,-6.39 -4.35,-6.36 -4.38,-6.34 -4.41,-6.31 -4.44,-6.28 -4.47,-6.25 -4.50,-6.23 -4.53,-6.20 -4.56,-6.17 -4.59,-6.13 -4.62,-6.10 -4.65,-6.07 -4.67,-6.04 -4.70,-6.01 -4.73,-5.97 -4.75,-5.94 -4.78,-5.90 -4.81,-5.87 -4.83,-5.83 -4.86,-5.80 -4.88,-5.76 -4.90,-5.72 -4.93,-5.68 -4.95,-5.64 -4.98,-5.60 -5.00,-5.56 -5.02,-5.52 -5.04,-5.48 -5.06,-5.44 -5.09,-5.40 -5.11,-5.36 -5.13,-5.31 -5.15,-5.27 -5.17,-5.23 -5.18,-5.18 -5.20,-5.14 -5.22,-5.09 -5.24,-5.04 -5.26,-5.00 -5.27,-4.95 -5.29,-4.90 -5.31,-4.85 -5.32,-4.81 -5.34,-4.76 -5.35,-4.71 -5.37,-4.66 -5.38,-4.61 -5.40,-4.56 -5.41,-4.50 -5.42,-4.45 -5.43,-4.40 -5.44,-4.35 -5.46,-4.30 -5.47,-4.24 -5.48,-4.19 -5.49,-4.13 -5.50,-4.08 -5.51,-4.02 -5.51,-3.97 -5.52,-3.91 -5.53,-3.86 -5.54,-3.80 -5.54,-3.74 -5.55,-3.69 -5.55,-3.63 -5.56,-3.57 -5.56,-3.51 -5.57,-3.45 -5.57,-3.40 -5.57,-3.34 -5.58,-3.28 -5.58,-3.22 -5.58,-3.16 -5.58,-3.10 -5.58,-3.04 -5.58,-2.98 -5.58,-2.91 -5.58,-2.85 -5.58,-2.79 -5.58,-2.73 -5.57,-2.67 -5.57,-2.60 -5.57,-2.54 -5.56,-2.48 -5.56,-2.42 -5.55,-2.35 -5.55,-2.29 -5.54,-2.23 -5.53,-2.16 -5.53,-2.10 -5.52,-2.03 -5.51,-1.97 -5.50,-1.90 -5.49,-1.84 -5.48,-1.77 -5.47,-1.71 -5.46,-1.64 -5.45,-1.58 -5.44,-1.51 -5.42,-1.45 -5.41,-1.38 -5.40,-1.31 -5.38,-1.25 -5.37,-1.18 -5.35,-1.11 -5.34,-1.05 -5.32,-0.98 -5.30,-0.91 -5.29,-0.85 -5.27,-0.78 -5.25,-0.71 -5.23,-0.65 -5.21,-0.58 -5.19,-0.51 -5.17,-0.44 -5.15,-0.38 -5.13,-0.31 -5.11,-0.24 -5.08,-0.18 -5.06,-0.11 -5.04,-0.04 -5.01,0.03 -4.99,0.09 -4.96,0.16 -4.94,0.23 -4.91,0.30 -4.88,0.36 -4.86,0.43 -4.83,0.50 -4.80,0.57 -4.77,0.63 -4.74,0.70 -4.71,0.77 -4.68,0.83 -4.65,0.90 -4.62,0.97 -4.59,1.03 -4.56,1.10 -4.52,1.17 -4.49,1.23 -4.46,1.30 -4.42,1.37 -4.39,1.43 -4.35,1.50 -4.32,1.56 -4.28,1.63 -4.24,1.70 -4.21,1.76 -4.17,1.83 -4.13,1.89 -4.09,1.96 -4.05,2.02 -4.01,2.09 -3.97,2.15 -3.93,2.22 -3.89,2.28 -3.85,2.34 -3.81,2.41 -3.77,2.47 -3.73,2.53 -3.68,2.60 -3.64,2.66 -3.60,2.72 -3.55,2.79 -3.51,2.85 -3.46,2.91 -3.42,2.97 -3.37,3.03 -3.33,3.09 -3.28,3.16 -3.23,3.22 -3.19,3.28 -3.14,3.34 -3.09,3.40 -3.04,3.46 -2.99,3.52 -2.94,3.58 -2.89,3.63 -2.84,3.69 -2.79,3.75 -2.74,3.81 -2.69,3.87 -2.64,3.92 -2.59,3.98 -2.54,4.04 -2.49,4.09 -2.44,4.15 -2.38,4.21 -2.33,4.26 -2.28,4.32 -2.22,4.37 -2.17,4.43 -2.12,4.48 -2.06,4.53 -2.01,4.59 -1.95,4.64 -1.90,4.69 -1.84,4.74 -1.79,4.80 -1.73,4.85 -1.67,4.90 -1.62,4.95 -1.56,5.00 -1.50,5.05 -1.45,5.10 -1.39,5.15 -1.33,5.20 -1.28,5.24 -1.22,5.29 -1.16,5.34 -1.10,5.39 -1.04,5.43 -0.99,5.48 -0.93,5.52 -0.87,5.57 -0.81,5.61 -0.75,5.66 -0.69,5.70 -0.63,5.74 -0.57,5.79 -0.52,5.83 -0.46,5.87 -0.40,5.91 -0.34,5.95 -0.28,5.99 -0.22,6.03 -0.16,6.07 -0.10,6.11 -0.04,6.15 0.02,6.19 0.08,6.23 0.14,6.26 0.20,6.30 0.26,6.34 0.32,6.37 0.38,6.41 0.44,6.44 0.50,6.48 0.56,6.51 0.62,6.54 0.68,6.58 0.74,6.61 0.80,6.64 0.86,6.67 0.92,6.70 0.98,6.73 1.04,6.76 1.10,6.79 1.16,6.82 1.22,6.85 1.28,6.87 1.34,6.90 1.40,6.93 1.46,6.95 1.51,6.98 1.57,7.00 1.63,7.02 1.69,7.05 1.75,7.07 1.81,7.09 1.86,7.11 1.92,7.14 1.98,7.16 2.04,7.18 2.09,7.20 2.15,7.21 2.21,7.23 2.26,7.25 2.32,7.27 2.38,7.28 2.43,7.30 2.49,7.32 2.54,7.33 2.60,7.34 2.65,7.36 2.71,7.37 2.76,7.38 2.82,7.39 2.87,7.41 2.92,7.42 2.98,7.43 3.03,7.44 3.08,7.45 3.14,7.45 3.19,7.46 3.24,7.47 3.29,7.47 3.34,7.48 3.39,7.49 3.44,7.49 3.49,7.49 3.54,7.50 3.59,7.50 3.64,7.50 3.69,7.50 3.74,7.51 3.78,7.51 3.83,7.51" fill="none" stroke="#ff3b30" stroke-width="1" vector-effect="non-scaling-stroke" stroke-linejoin="round" stroke-linecap="round"/></svg>
