<svg xmlns="http://www.w3.org/2000/svg" viewBox="-11.2 -11.2 22.4 22.4"><title>September 2025 — libration loop, to scale</title><circle r="1" fill="#3a86ff"/><polyline points="3.83,7.51 3.88,7.50 3.93,7.50 3.97,7.50 4.02,7.50 4.06,7.50 4.11,7.49 4.15,7.49 4.20,7.48 4.24,7.48 4.28,7.47 4.32,7.46 4.37,7.45 4.41,7.45 4.45,7.44 4.49,7.43 4.53,7.42 4.57,7.41 4.61,7.40 4.65,7.38 4.69,7.37 4.72,7.36 4.76,7.35 4.80,7.33 4.84,7.32 4.87,7.30 4.91,7.28 4.94,7.27 4.98,7.25 5.01,7.23 5.04,7.21 5.07,7.19 5.11,7.17 5.14,7.15 5.17,7.13 5.20,7.11 5.23,7.09 5.26,7.07 5.29,7.04 5.32,7.02 5.34,6.99 5.37,6.97 5.40,6.94 5.42,6.92 5.45,6.89 5.47,6.86 5.50,6.83 5.52,6.81 5.54,6.78 5.56,6.75 5.59,6.72 5.61,6.68 5.63,6.65 5.65,6.62 5.67,6.59 5.69,6.55 5.70,6.52 5.72,6.49 5.74,6.45 5.75,6.41 5.77,6.38 5.78,6.34 5.80,6.30 5.81,6.27 5.82,6.23 5.84,6.19 5.85,6.15 5.86,6.11 5.87,6.07 5.88,6.03 5.89,5.99 5.90,5.94 5.91,5.90 5.91,5.86 5.92,5.81 5.93,5.77 5.93,5.72 5.94,5.68 5.94,5.63 5.94,5.59 5.95,5.54 5.95,5.49 5.95,5.44 5.95,5.39 5.95,5.35 5.95,5.30 5.95,5.25 5.95,5.20 5.95,5.15 5.94,5.09 5.94,5.04 5.94,4.99 5.93,4.94 5.92,4.88 5.92,4.83 5.91,4.78 5.90,4.72 5.90,4.67 5.89,4.61 5.88,4.55 5.87,4.50 5.86,4.44 5.85,4.38 5.84,4.33 5.82,4.27 5.81,4.21 5.80,4.15 5.78,4.09 5.77,4.03 5.75,3.97 5.74,3.91 5.72,3.85 5.70,3.79 5.68,3.73 5.66,3.67 5.65,3.61 5.63,3.54 5.61,3.48 5.58,3.42 5.56,3.35 5.54,3.29 5.52,3.23 5.49,3.16 5.47,3.10 5.45,3.03 5.42,2.97 5.40,2.90 5.37,2.83 5.34,2.77 5.32,2.70 5.29,2.63 5.26,2.57 5.23,2.50 5.20,2.43 5.17,2.37 5.14,2.30 5.11,2.23 5.08,2.16 5.05,2.09 5.01,2.02 4.98,1.95 4.95,1.88 4.91,1.82 4.88,1.75 4.84,1.68 4.81,1.61 4.77,1.54 4.73,1.47 4.70,1.39 4.66,1.32 4.62,1.25 4.58,1.18 4.54,1.11 4.50,1.04 4.46,0.97 4.42,0.90 4.38,0.83 4.34,0.76 4.30,0.68 4.25,0.61 4.21,0.54 4.17,0.47 4.12,0.40 4.08,0.33 4.04,0.25 3.99,0.18 3.95,0.11 3.90,0.04 3.85,-0.03 3.81,-0.11 3.76,-0.18 3.71,-0.25 3.67,-0.32 3.62,-0.39 3.57,-0.46 3.52,-0.54 3.47,-0.61 3.42,-0.68 3.37,-0.75 3.32,-0.82 3.27,-0.89 3.22,-0.96 3.17,-1.04 3.12,-1.11 3.07,-1.18 3.02,-1.25 2.96,-1.32 2.91,-1.39 2.86,-1.46 2.81,-1.53 2.75,-1.60 2.70,-1.67 2.64,-1.74 2.59,-1.81 2.54,-1.88 2.48,-1.95 2.43,-2.01 2.37,-2.08 2.32,-2.15 2.26,-2.22 2.21,-2.29 2.15,-2.36 2.09,-2.42 2.04,-2.49 1.98,-2.56 1.92,-2.62 1.87,-2.69 1.81,-2.76 1.75,-2.82 1.70,-2.89 1.64,-2.95 1.58,-3.02 1.52,-3.08 1.46,-3.14 1.41,-3.21 1.35,-3.27 1.29,-3.33 1.23,-3.40 1.17,-3.46 1.11,-3.52 1.06,-3.58 1.00,-3.64 0.94,-3.70 0.88,-3.76 0.82,-3.82 0.76,-3.88 0.70,-3.94 0.64,-4.00 0.58,-4.06 0.52,-4.12 0.47,-4.18 0.41,-4.23 0.35,-4.29 0.29,-4.34 0.23,-4.40 0.17,-4.45 0.11,-4.51 0.05,-4.56 -0.01,-4.62 -0.07,-4.67 -0.13,-4.72 -0.19,-4.77 -0.25,-4.83 -0.30,-4.88 -0.36,-4.93 -0.42,-4.98 -0.48,-5.03 -0.54,-5.07 -0.60,-5.12 -0.66,-5.17 -0.72,-5.22 -0.78,-5.26 -0.83,-5.31 -0.89,-5.36 -0.95,-5.40 -1.01,-5.44 -1.07,-5.49 -1.12,-5.53 -1.18,-5.57 -1.24,-5.62 -1.30,-5.66 -1.35,-5.70 -1.41,-5.74 -1.47,-5.78 -1.53,-5.82 -1.58,-5.85 -1.64,-5.89 -1.70,-5.93 -1.75,-5.96 -1.81,-6.00 -1.86,-6.03 -1.92,-6.07 -1.97,-6.10 -2.03,-6.13 -2.09,-6.17 -2.14,-6.20 -2.19,-6.23 -2.25,-6.26 -2.30,-6.29 -2.36,-6.32 -2.41,-6.35 -2.46,-6.37 -2.52,-6.40 -2.57,-6.43 -2.62,-6.45 -2.68,-6.48 -2.73,-6.50 -2.78,-6.53 -2.83,-6.55 -2.88,-6.57 -2.93,-6.59 -2.98,-6.61 -3.04,-6.63 -3.09,-6.65 -3.14,-6.67 -3.19,-6.69 -3.23,-6.71 -3.28,-6.72 -3.33,-6.74 -3.38,-6.75 -3.43,-6.77 -3.48,-6.78 -3.52,-6.79 -3.57,-6.81 -3.62,-6.82 -3.67,-6.83 -3.71,-6.84 -3.76,-6.85 -3.80,-6.86 -3.85,-6.87 -3.89,-6.87 -3.94,-6.88 -3.98,-6.89 -4.03,-6.89 -4.07,-6.89 -4.11,-6.90 -4.15,-6.90 -4.20,-6.90 -4.24,-6.91 -4.28,-6.91 -4.32,-6.91 -4.36,-6.91 -4.40,-6.90 -4.44,-6.90 -4.48,-6.90 -4.52,-6.90 -4.56,-6.89 -4.60,-6.89 -4.64,-6.88 -4.67,-6.88 -4.71,-6.87 -4.75,-6.86 -4.78,-6.85 -4.82,-6.84 -4.86,-6.83 -4.89,-6.82 -4.93,-6.81 -4.96,-6.80 -5.00,-6.79 -5.03,-6.77 -5.06,-6.76 -5.09,-6.75 -5.13,-6.73 -5.16,-6.72 -5.19,-6.70 -5.22,-6.68 -5.25,-6.66 -5.28,-6.65 -5.31,-6.63 -5.34,-6.61 -5.37,-6.59 -5.40,-6.56 -5.43,-6.54 -5.45,-6.52 -5.48,-6.50 -5.51,-6.47 -5.53,-6.45 -5.56,-6.42 -5.58,-6.40 -5.61,-6.37 -5.63,-6.34 -5.66,-6.32 -5.68,-6.29 -5.70,-6.26 -5.73,-6.23 -5.75,-6.20 -5.77,-6.17 -5.79,-6.14 -5.81,-6.11 -5.83,-6.07 -5.85,-6.04 -5.87,-6.01 -5.89,-5.97 -5.91,-5.94 -5.93,-5.90 -5.94,-5.87 -5.96,-5.83 -5.98,-5.79 -5.99,-5.76 -6.01,-5.72 -6.02,-5.68 -6.04,-5.64 -6.05,-5.60 -6.07,-5.56 -6.08,-5.52 -6.09,-5.48 -6.10,-5.43 -6.12,-5.39 -6.13,-5.35 -6.14,-5.31 -6.15,-5.26 -6.16,-5.22 -6.17,-5.17 -6.18,-5.13 -6.19,-5.08 -6.19,-5.03 -6.20,-4.99 -6.21,-4.94 -6.22,-4.89 -6.22,-4.84 -6.23,-4.79 -6.23,-4.75 -6.24,-4.70 -6.24,-4.65 -6.25,-4.59 -6.25,-4.54 -6.25,-4.49 -6.26,-4.44 -6.26,-4.39 -6.26,-4.34 -6.26,-4.28 -6.26,-4.23 -6.26,-4.17 -6.26,-4.12 -6.26,-4.07 -6.26,-4.01 -6.26,-3.96 -6.25,-3.90 -6.25,-3.84 -6.25,-3.79 -6.25,-3.73 -6.24,-3.67 -6.24,-3.61 -6.23,-3.56 -6.23,-3.50 -6.22,-3.44 -6.21,-3.38 -6.21,-3.32 -6.20,-3.26 -6.19,-3.20 -6.18,-3.14 -6.18,-3.08 -6.17,-3.02 -6.16,-2.96 -6.15,-2.90 -6.14,-2.84 -6.13,-2.78 -6.11,-2.71 -6.10,-2.65 -6.09,-2.59 -6.08,-2.53 -6.06,-2.46 -6.05,-2.40 -6.04,-2.34 -6.02,-2.27 -6.01,-2.21 -5.99,-2.15 -5.98,-2.08 -5.96,-2.02 -5.94,-1.95 -5.93,-1.89 -5.91,-1.82 -5.89,-1.76 -5.87,-1.69 -5.85,-1.63 -5.83,-1.56 -5.81,-1.50 -5.79,-1.43 -5.77,-1.37 -5.75,-1.30 -5.73,-1.23 -5.71,-1.17 -5.69,-1.10 -5.66,-1.03 -5.64,-0.97 -5.62,-0.90 -5.59,-0.83 -5.57,-0.77 -5.54,-0.70 -5.52,-0.63 -5.49,-0.57 -5.47,-0.50 -5.44,-0.43 -5.41,-0.37 -5.39,-0.30 -5.36,-0.23 -5.33,-0.16 -5.30,-0.10 -5.27,-0.03 -5.24,0.04 -5.21,0.10 -5.18,0.17 -5.15,0.24 -5.12,0.31 -5.09,0.37 -5.06,0.44 -5.03,0.51 -4.99,0.58 -4.96,0.64 -4.93,0.71 -4.89,0.78 -4.86,0.84 -4.83,0.91 -4.79,0.98 -4.76,1.04 -4.72,1.11 -4.68,1.18 -4.65,1.24 -4.61,1.31 -4.57,1.38 -4.54,1.44 -4.50,1.51 -4.46,1.57 -4.42,1.64 -4.38,1.70 -4.34,1.77 -4.30,1.83 -4.26,1.90 -4.22,1.97 -4.18,2.03 -4.14,2.09 -4.10,2.16 -4.06,2.22 -4.02,2.29 -3.97,2.35 -3.93,2.42 -3.89,2.48 -3.84,2.54 -3.80,2.61 -3.76,2.67 -3.71,2.73 -3.67,2.79 -3.62,2.86 -3.58,2.92 -3.53,2.98 -3.49,3.04 -3.44,3.10 -3.39,3.16 -3.35,3.22 -3.30,3.28 -3.25,3.34 -3.20,3.40 -3.16,3.46 -3.11,3.52 -3.06,3.58 -3.01,3.64 -2.96,3.70 -2.91,3.76 -2.86,3.82 -2.81,3.87 -2.76,3.93 -2.71,3.99 -2.66,4.04 -2.61,4.10 -2.56,4.16 -2.50,4.21 -2.45,4.27 -2.40,4.32 -2.35,4.38 -2.30,4.43 -2.24,4.49 -2.19,4.54 -2.14,4.59 -2.08,4.65 -2.03,4.70 -1.97,4.75 -1.92,4.80 -1.87,4.85 -1.81,4.90 -1.76,4.96 -1.70,5.01 -1.65,5.06 -1.59,5.10 -1.53,5.15 -1.48,5.20 -1.42,5.25 -1.37,5.30 -1.31,5.35 -1.25,5.39 -1.20,5.44 -1.14,5.48 -1.08,5.53 -1.02,5.58 -0.97,5.62 -0.91,5.66 -0.85,5.71 -0.79,5.75 -0.73,5.79 -0.68,5.84 -0.62,5.88 -0.56,5.92 -0.50,5.96 -0.44,6.00 -0.38,6.04 -0.32,6.08 -0.27,6.12 -0.21,6.16 -0.15,6.20 -0.09,6.24 -0.03,6.27 0.03,6.31 0.09,6.35 0.15,6.38 0.21,6.42 0.27,6.45 0.33,6.49 0.39,6.52 0.45,6.55 0.51,6.59 0.57,6.62 0.63,6.65 0.69,6.68 0.75,6.71 0.81,6.74 0.87,6.77 0.93,6.80 0.99,6.83 1.05,6.86 1.11,6.88 1.17,6.91 1.24,6.94 1.30,6.96 1.36,6.99 1.42,7.01 1.48,7.04 1.54,7.06 1.60,7.08 1.66,7.11 1.72,7.13 1.78,7.15 1.84,7.17 1.90,7.19 1.96,7.21 2.02,7.23 2.08,7.25 2.14,7.26 2.20,7.28 2.26,7.30 2.31,7.31 2.37,7.33 2.43,7.35 2.49,7.36 2.55,7.37 2.61,7.39 2.67,7.40 2.73,7.41 2.78,7.42 2.84,7.43 2.90,7.44 2.96,7.45 3.02,7.46 3.07,7.47 3.13,7.48 3.19,7.49 3.24,7.49 3.30,7.50 3.36,7.51 3.41,7.51 3.47,7.52 3.53,7.52 3.58,7.52 3.64,7.53 3.69,7.53 3.75,7.53 3.80,7.53 3.86,7.53 3.91,7.53 3.96,7.53 4.02,7.53 4.07,7.53 4.12,7.52 4.18,7.52 4.23,7.51 4.28,7.51 4.33,7.51 4.38,7.50 4.43,7.49 4.48,7.49 4.54,7.48 4.59,7.47 4.64,7.46 4.68,7.45 4.73,7.44 4.78,7.43 4.83,7.42 4.88,7.41 4.93,7.40 4.97,7.38 5.02,7.37 5.07,7.35 5.11,7.34 5.16,7.32 5.20,7.31 5.25,7.29 5.29,7.27 5.34,7.26 5.38,7.24 5.42,7.22 5.46,7.20 5.51,7.18 5.55,7.16 5.59,7.14 5.63,7.12 5.67,7.09 5.71,7.07 5.75,7.05 5.79,7.02 5.83,7.00 5.86,6.97 5.90,6.95 5.94,6.92 5.97,6.89 6.01,6.86 6.04,6.84 6.08,6.81 6.11,6.78 6.15,6.75 6.18,6.72 6.21,6.68 6.24,6.65 6.28,6.62 6.31,6.59 6.34,6.55 6.37,6.52 6.39,6.49 6.42,6.45 6.45,6.41 6.48,6.38 6.50,6.34 6.53,6.30 6.56,6.27" fill="none" stroke="#ff3b30" stroke-width="1" vector-effect="non-scaling-stroke" stroke-linejoin="round" stroke-linecap="round"/></svg>
