<svg xmlns="http://www.w3.org/2000/svg" viewBox="-11.2 -11.2 22.4 22.4"><title>January 2025 — libration loop, to scale</title><circle r="1" fill="#3a86ff"/><polyline points="4.81,6.32 4.79,6.29 4.78,6.26 4.76,6.23 4.75,6.20 4.73,6.17 4.72,6.14 4.70,6.10 4.68,6.07 4.67,6.04 4.65,6.00 4.63,5.97 4.61,5.94 4.59,5.90 4.58,5.86 4.56,5.83 4.54,5.79 4.52,5.75 4.50,5.71 4.48,5.68 4.46,5.64 4.44,5.60 4.42,5.56 4.40,5.52 4.38,5.47 4.36,5.43 4.33,5.39 4.31,5.35 4.29,5.30 4.27,5.26 4.25,5.21 4.22,5.17 4.20,5.12 4.18,5.08 4.15,5.03 4.13,4.98 4.11,4.94 4.08,4.89 4.06,4.84 4.03,4.79 4.01,4.74 3.98,4.69 3.96,4.64 3.93,4.59 3.91,4.54 3.88,4.49 3.86,4.43 3.83,4.38 3.81,4.33 3.78,4.27 3.75,4.22 3.73,4.17 3.70,4.11 3.67,4.06 3.65,4.00 3.62,3.95 3.59,3.89 3.56,3.83 3.54,3.78 3.51,3.72 3.48,3.66 3.45,3.60 3.43,3.54 3.40,3.48 3.37,3.42 3.34,3.37 3.31,3.31 3.28,3.25 3.25,3.18 3.22,3.12 3.20,3.06 3.17,3.00 3.14,2.94 3.11,2.88 3.08,2.81 3.05,2.75 3.02,2.69 2.99,2.63 2.96,2.56 2.93,2.50 2.90,2.43 2.87,2.37 2.84,2.31 2.80,2.24 2.77,2.18 2.74,2.11 2.71,2.05 2.68,1.98 2.65,1.91 2.62,1.85 2.59,1.78 2.56,1.72 2.52,1.65 2.49,1.58 2.46,1.52 2.43,1.45 2.40,1.38 2.36,1.31 2.33,1.25 2.30,1.18 2.27,1.11 2.23,1.04 2.20,0.98 2.17,0.91 2.14,0.84 2.10,0.77 2.07,0.70 2.04,0.64 2.00,0.57 1.97,0.50 1.94,0.43 1.90,0.36 1.87,0.29 1.84,0.22 1.80,0.16 1.77,0.09 1.73,0.02 1.70,-0.05 1.66,-0.12 1.63,-0.19 1.60,-0.26 1.56,-0.32 1.53,-0.39 1.49,-0.46 1.46,-0.53 1.42,-0.60 1.39,-0.67 1.35,-0.73 1.32,-0.80 1.28,-0.87 1.25,-0.94 1.21,-1.01 1.18,-1.07 1.14,-1.14 1.10,-1.21 1.07,-1.28 1.03,-1.34 1.00,-1.41 0.96,-1.48 0.92,-1.54 0.89,-1.61 0.85,-1.68 0.81,-1.74 0.78,-1.81 0.74,-1.88 0.70,-1.94 0.67,-2.01 0.63,-2.07 0.59,-2.14 0.55,-2.20 0.52,-2.27 0.48,-2.33 0.44,-2.40 0.40,-2.46 0.37,-2.52 0.33,-2.59 0.29,-2.65 0.25,-2.71 0.21,-2.78 0.18,-2.84 0.14,-2.90 0.10,-2.96 0.06,-3.02 0.02,-3.08 -0.02,-3.15 -0.06,-3.21 -0.09,-3.27 -0.13,-3.33 -0.17,-3.38 -0.21,-3.44 -0.25,-3.50 -0.29,-3.56 -0.33,-3.62 -0.37,-3.68 -0.41,-3.73 -0.45,-3.79 -0.49,-3.85 -0.53,-3.90 -0.57,-3.96 -0.61,-4.01 -0.65,-4.07 -0.69,-4.12 -0.73,-4.18 -0.77,-4.23 -0.81,-4.28 -0.85,-4.34 -0.89,-4.39 -0.93,-4.44 -0.97,-4.49 -1.01,-4.54 -1.05,-4.59 -1.09,-4.64 -1.13,-4.69 -1.18,-4.74 -1.22,-4.79 -1.26,-4.84 -1.30,-4.88 -1.34,-4.93 -1.38,-4.98 -1.42,-5.02 -1.46,-5.07 -1.50,-5.11 -1.55,-5.16 -1.59,-5.20 -1.63,-5.24 -1.67,-5.29 -1.71,-5.33 -1.75,-5.37 -1.79,-5.41 -1.83,-5.45 -1.88,-5.49 -1.92,-5.53 -1.96,-5.57 -2.00,-5.61 -2.04,-5.65 -2.08,-5.68 -2.12,-5.72 -2.16,-5.76 -2.20,-5.79 -2.25,-5.83 -2.29,-5.86 -2.33,-5.89 -2.37,-5.93 -2.41,-5.96 -2.45,-5.99 -2.49,-6.02 -2.53,-6.05 -2.57,-6.08 -2.61,-6.11 -2.65,-6.14 -2.69,-6.17 -2.74,-6.19 -2.78,-6.22 -2.82,-6.25 -2.86,-6.27 -2.90,-6.30 -2.94,-6.32 -2.98,-6.35 -3.02,-6.37 -3.05,-6.39 -3.09,-6.41 -3.13,-6.43 -3.17,-6.45 -3.21,-6.47 -3.25,-6.49 -3.29,-6.51 -3.33,-6.53 -3.37,-6.54 -3.40,-6.56 -3.44,-6.58 -3.48,-6.59 -3.52,-6.61 -3.56,-6.62 -3.59,-6.63 -3.63,-6.64 -3.67,-6.66 -3.70,-6.67 -3.74,-6.68 -3.78,-6.69 -3.81,-6.70 -3.85,-6.70 -3.88,-6.71 -3.92,-6.72 -3.95,-6.72 -3.99,-6.73 -4.02,-6.73 -4.06,-6.74 -4.09,-6.74 -4.12,-6.75 -4.16,-6.75 -4.19,-6.75 -4.22,-6.75 -4.26,-6.75 -4.29,-6.75 -4.32,-6.75 -4.35,-6.75 -4.38,-6.74 -4.41,-6.74 -4.44,-6.74 -4.47,-6.73 -4.50,-6.73 -4.53,-6.72 -4.56,-6.72 -4.59,-6.71 -4.62,-6.70 -4.65,-6.69 -4.67,-6.68 -4.70,-6.67 -4.73,-6.66 -4.75,-6.65 -4.78,-6.64 -4.81,-6.63 -4.83,-6.62 -4.85,-6.60 -4.88,-6.59 -4.90,-6.57 -4.93,-6.56 -4.95,-6.54 -4.97,-6.53 -4.99,-6.51 -5.02,-6.49 -5.04,-6.47 -5.06,-6.45 -5.08,-6.43 -5.10,-6.41 -5.12,-6.39 -5.13,-6.37 -5.15,-6.35 -5.17,-6.32 -5.19,-6.30 -5.20,-6.28 -5.22,-6.25 -5.24,-6.23 -5.25,-6.20 -5.26,-6.17 -5.28,-6.15 -5.29,-6.12 -5.30,-6.09 -5.32,-6.06 -5.33,-6.03 -5.34,-6.00 -5.35,-5.97 -5.36,-5.94 -5.37,-5.91 -5.38,-5.88 -5.39,-5.84 -5.40,-5.81 -5.40,-5.78 -5.41,-5.74 -5.42,-5.71 -5.42,-5.67 -5.43,-5.64 -5.43,-5.60 -5.43,-5.56 -5.44,-5.53 -5.44,-5.49 -5.44,-5.45 -5.44,-5.41 -5.44,-5.37 -5.44,-5.33 -5.44,-5.29 -5.44,-5.25 -5.44,-5.21 -5.44,-5.17 -5.43,-5.13 -5.43,-5.08 -5.42,-5.04 -5.42,-5.00 -5.41,-4.95 -5.41,-4.91 -5.40,-4.86 -5.39,-4.82 -5.38,-4.77 -5.37,-4.72 -5.36,-4.68 -5.35,-4.63 -5.34,-4.58 -5.33,-4.53 -5.32,-4.49 -5.31,-4.44 -5.29,-4.39 -5.28,-4.34 -5.26,-4.29 -5.25,-4.24 -5.23,-4.19 -5.21,-4.14 -5.20,-4.09 -5.18,-4.03 -5.16,-3.98 -5.14,-3.93 -5.12,-3.88 -5.10,-3.82 -5.08,-3.77 -5.06,-3.72 -5.03,-3.66 -5.01,-3.61 -4.99,-3.55 -4.96,-3.50 -4.94,-3.44 -4.91,-3.39 -4.88,-3.33 -4.86,-3.27 -4.83,-3.22 -4.80,-3.16 -4.77,-3.10 -4.74,-3.05 -4.71,-2.99 -4.68,-2.93 -4.65,-2.87 -4.62,-2.81 -4.58,-2.76 -4.55,-2.70 -4.52,-2.64 -4.48,-2.58 -4.45,-2.52 -4.41,-2.46 -4.37,-2.40 -4.34,-2.34 -4.30,-2.28 -4.26,-2.22 -4.22,-2.16 -4.18,-2.10 -4.14,-2.03 -4.10,-1.97 -4.06,-1.91 -4.02,-1.85 -3.98,-1.79 -3.94,-1.73 -3.89,-1.67 -3.85,-1.60 -3.80,-1.54 -3.76,-1.48 -3.71,-1.42 -3.67,-1.35 -3.62,-1.29 -3.57,-1.23 -3.53,-1.16 -3.48,-1.10 -3.43,-1.04 -3.38,-0.97 -3.33,-0.91 -3.28,-0.85 -3.23,-0.78 -3.18,-0.72 -3.13,-0.66 -3.08,-0.59 -3.03,-0.53 -2.97,-0.47 -2.92,-0.40 -2.87,-0.34 -2.81,-0.27 -2.76,-0.21 -2.70,-0.15 -2.65,-0.08 -2.59,-0.02 -2.54,0.04 -2.48,0.11 -2.43,0.17 -2.37,0.24 -2.31,0.30 -2.25,0.36 -2.20,0.43 -2.14,0.49 -2.08,0.56 -2.02,0.62 -1.96,0.68 -1.90,0.75 -1.84,0.81 -1.78,0.87 -1.72,0.94 -1.66,1.00 -1.60,1.06 -1.54,1.13 -1.48,1.19 -1.42,1.25 -1.35,1.32 -1.29,1.38 -1.23,1.44 -1.17,1.50 -1.10,1.57 -1.04,1.63 -0.98,1.69 -0.92,1.75 -0.85,1.81 -0.79,1.88 -0.73,1.94 -0.66,2.00 -0.60,2.06 -0.53,2.12 -0.47,2.18 -0.41,2.24 -0.34,2.30 -0.28,2.36 -0.21,2.42 -0.15,2.48 -0.08,2.54 -0.02,2.60 0.05,2.66 0.11,2.72 0.17,2.78 0.24,2.84 0.30,2.90 0.37,2.96 0.43,3.01 0.50,3.07 0.56,3.13 0.63,3.19 0.69,3.24 0.76,3.30 0.82,3.36 0.88,3.41 0.95,3.47 1.01,3.53 1.08,3.58 1.14,3.64 1.20,3.69 1.27,3.75 1.33,3.80 1.39,3.85 1.46,3.91 1.52,3.96 1.58,4.01 1.65,4.07 1.71,4.12 1.77,4.17 1.83,4.22 1.89,4.27 1.95,4.33 2.02,4.38 2.08,4.43 2.14,4.48 2.20,4.53 2.26,4.58 2.32,4.62 2.38,4.67 2.44,4.72 2.50,4.77 2.56,4.82 2.61,4.86 2.67,4.91 2.73,4.96 2.79,5.00 2.84,5.05 2.90,5.09 2.96,5.14 3.01,5.18 3.07,5.23 3.12,5.27 3.18,5.31 3.23,5.35 3.29,5.40 3.34,5.44 3.39,5.48 3.45,5.52 3.50,5.56 3.55,5.60 3.60,5.64 3.65,5.68 3.70,5.72 3.75,5.75 3.80,5.79 3.85,5.83 3.90,5.87 3.95,5.90 4.00,5.94 4.04,5.97 4.09,6.01 4.14,6.04 4.18,6.08 4.23,6.11 4.27,6.14 4.32,6.17 4.36,6.21 4.40,6.24 4.44,6.27 4.49,6.30 4.53,6.33 4.57,6.36 4.61,6.38 4.65,6.41 4.69,6.44 4.72,6.47 4.76,6.49 4.80,6.52 4.84,6.54 4.87,6.57 4.91,6.59 4.94,6.62 4.98,6.64 5.01,6.66 5.04,6.68 5.07,6.71 5.11,6.73 5.14,6.75 5.17,6.77 5.20,6.79 5.23,6.80 5.25,6.82 5.28,6.84 5.31,6.86 5.34,6.87 5.36,6.89 5.39,6.90 5.41,6.92 5.44,6.93 5.46,6.95 5.48,6.96 5.50,6.97 5.52,6.98 5.55,6.99 5.56,7.00 5.58,7.01 5.60,7.02 5.62,7.03 5.64,7.04 5.65,7.05 5.67,7.05 5.69,7.06 5.70,7.06 5.71,7.07 5.73,7.07 5.74,7.08 5.75,7.08 5.76,7.08 5.77,7.08 5.78,7.08 5.79,7.08 5.80,7.08 5.81,7.08 5.82,7.08 5.82,7.08 5.83,7.08 5.83,7.07 5.84,7.07 5.84,7.07 5.85,7.06 5.85,7.05 5.85,7.05 5.85,7.04 5.85,7.03 5.85,7.02 5.85,7.01 5.85,7.01 5.85,6.99 5.85,6.98 5.84,6.97 5.84,6.96 5.83,6.95 5.83,6.93 5.82,6.92 5.82,6.90 5.81,6.89 5.80,6.87 5.79,6.86 5.78,6.84 5.77,6.82 5.76,6.80 5.75,6.78 5.74,6.76 5.73,6.74 5.72,6.72 5.70,6.70 5.69,6.68 5.68,6.65 5.66,6.63 5.65,6.61 5.63,6.58 5.61,6.56 5.60,6.53 5.58,6.50 5.56,6.47 5.54,6.45 5.52,6.42 5.50,6.39 5.48,6.36 5.46,6.33 5.44,6.30 5.42,6.27 5.39,6.23 5.37,6.20 5.35,6.17 5.32,6.13 5.30,6.10 5.27,6.06 5.25,6.03 5.22,5.99 5.19,5.95 5.17,5.92 5.14,5.88 5.11,5.84 5.08,5.80 5.05,5.76 5.03,5.72 5.00,5.68 4.97,5.64 4.93,5.59 4.90,5.55 4.87,5.51 4.84,5.46 4.81,5.42 4.78,5.38 4.74,5.33 4.71,5.28 4.67,5.24 4.64,5.19 4.61,5.14 4.57,5.10 4.53,5.05 4.50,5.00 4.46,4.95 4.43,4.90 4.39,4.85 4.35,4.80 4.31,4.75 4.28,4.69 4.24,4.64 4.20,4.59 4.16,4.53 4.12,4.48 4.08,4.43 4.04,4.37 4.00,4.32 3.96,4.26 3.92,4.20 3.88,4.15 3.84,4.09 3.80,4.03 3.76,3.98 3.72,3.92 3.67,3.86 3.63,3.80 3.59,3.74 3.55,3.68 3.50,3.62 3.46,3.56 3.42,3.50 3.37,3.44 3.33,3.38 3.29,3.32 3.24,3.25 3.20,3.19 3.15,3.13 3.11,3.06 3.06,3.00 3.02,2.94 2.97,2.87 2.93,2.81 2.88,2.74 2.84,2.68 2.79,2.61 2.75,2.55 2.70,2.48 2.65,2.42 2.61,2.35 2.56,2.28 2.51,2.22 2.47,2.15 2.42,2.08 2.37,2.01 2.33,1.95 2.28,1.88 2.23,1.81 2.19,1.74 2.14,1.67 2.09,1.61" fill="none" stroke="#ff3b30" stroke-width="1" vector-effect="non-scaling-stroke" stroke-linejoin="round" stroke-linecap="round"/></svg>
