<svg xmlns="http://www.w3.org/2000/svg" viewBox="-11.2 -11.2 22.4 22.4"><title>December 2025 — libration loop, to scale</title><circle r="1" fill="#3a86ff"/><polyline points="6.13,-3.20 6.07,-3.26 6.02,-3.32 5.97,-3.38 5.91,-3.43 5.86,-3.49 5.80,-3.55 5.75,-3.60 5.69,-3.66 5.63,-3.71 5.57,-3.77 5.51,-3.82 5.45,-3.87 5.39,-3.93 5.33,-3.98 5.27,-4.03 5.21,-4.09 5.14,-4.14 5.08,-4.19 5.02,-4.24 4.95,-4.29 4.88,-4.34 4.82,-4.39 4.75,-4.44 4.68,-4.49 4.61,-4.53 4.54,-4.58 4.48,-4.63 4.40,-4.67 4.33,-4.72 4.26,-4.77 4.19,-4.81 4.12,-4.85 4.04,-4.90 3.97,-4.94 3.90,-4.98 3.82,-5.03 3.74,-5.07 3.67,-5.11 3.59,-5.15 3.51,-5.19 3.44,-5.23 3.36,-5.27 3.28,-5.30 3.20,-5.34 3.12,-5.38 3.04,-5.41 2.96,-5.45 2.88,-5.48 2.80,-5.52 2.72,-5.55 2.63,-5.58 2.55,-5.62 2.47,-5.65 2.39,-5.68 2.30,-5.71 2.22,-5.74 2.13,-5.77 2.05,-5.80 1.96,-5.83 1.88,-5.85 1.79,-5.88 1.71,-5.90 1.62,-5.93 1.53,-5.95 1.45,-5.98 1.36,-6.00 1.27,-6.02 1.18,-6.04 1.10,-6.07 1.01,-6.09 0.92,-6.11 0.83,-6.12 0.74,-6.14 0.65,-6.16 0.57,-6.18 0.48,-6.19 0.39,-6.21 0.30,-6.22 0.21,-6.24 0.12,-6.25 0.03,-6.26 -0.06,-6.27 -0.15,-6.28 -0.24,-6.29 -0.33,-6.30 -0.42,-6.31 -0.51,-6.32 -0.60,-6.33 -0.69,-6.33 -0.78,-6.34 -0.87,-6.34 -0.95,-6.35 -1.04,-6.35 -1.13,-6.36 -1.22,-6.36 -1.31,-6.36 -1.40,-6.36 -1.49,-6.36 -1.58,-6.36 -1.67,-6.36 -1.75,-6.35 -1.84,-6.35 -1.93,-6.35 -2.02,-6.34 -2.11,-6.34 -2.19,-6.33 -2.28,-6.33 -2.37,-6.32 -2.45,-6.31 -2.54,-6.30 -2.63,-6.29 -2.71,-6.28 -2.80,-6.27 -2.88,-6.26 -2.97,-6.25 -3.05,-6.23 -3.14,-6.22 -3.22,-6.20 -3.30,-6.19 -3.38,-6.17 -3.47,-6.16 -3.55,-6.14 -3.63,-6.12 -3.71,-6.10 -3.79,-6.08 -3.87,-6.06 -3.95,-6.04 -4.03,-6.02 -4.11,-6.00 -4.19,-5.97 -4.27,-5.95 -4.34,-5.93 -4.42,-5.90 -4.50,-5.88 -4.57,-5.85 -4.65,-5.82 -4.72,-5.80 -4.80,-5.77 -4.87,-5.74 -4.94,-5.71 -5.01,-5.68 -5.09,-5.65 -5.16,-5.62 -5.23,-5.58 -5.30,-5.55 -5.37,-5.52 -5.43,-5.48 -5.50,-5.45 -5.57,-5.42 -5.63,-5.38 -5.70,-5.34 -5.77,-5.31 -5.83,-5.27 -5.89,-5.23 -5.96,-5.19 -6.02,-5.15 -6.08,-5.11 -6.14,-5.07 -6.20,-5.03 -6.26,-4.99 -6.32,-4.95 -6.37,-4.91 -6.43,-4.87 -6.49,-4.82 -6.54,-4.78 -6.60,-4.73 -6.65,-4.69 -6.70,-4.64 -6.75,-4.60 -6.81,-4.55 -6.86,-4.50 -6.91,-4.46 -6.95,-4.41 -7.00,-4.36 -7.05,-4.31 -7.10,-4.26 -7.14,-4.21 -7.19,-4.16 -7.23,-4.11 -7.27,-4.06 -7.31,-4.01 -7.35,-3.96 -7.40,-3.91 -7.43,-3.85 -7.47,-3.80 -7.51,-3.75 -7.55,-3.69 -7.58,-3.64 -7.62,-3.59 -7.65,-3.53 -7.69,-3.48 -7.72,-3.42 -7.75,-3.36 -7.78,-3.31 -7.81,-3.25 -7.84,-3.20 -7.87,-3.14 -7.89,-3.08 -7.92,-3.02 -7.94,-2.96 -7.97,-2.91 -7.99,-2.85 -8.01,-2.79 -8.04,-2.73 -8.06,-2.67 -8.08,-2.61 -8.10,-2.55 -8.11,-2.49 -8.13,-2.43 -8.15,-2.37 -8.16,-2.31 -8.18,-2.25 -8.19,-2.18 -8.20,-2.12 -8.22,-2.06 -8.23,-2.00 -8.24,-1.94 -8.25,-1.87 -8.25,-1.81 -8.26,-1.75 -8.27,-1.69 -8.27,-1.62 -8.28,-1.56 -8.28,-1.50 -8.29,-1.43 -8.29,-1.37 -8.29,-1.31 -8.29,-1.24 -8.29,-1.18 -8.29,-1.11 -8.29,-1.05 -8.28,-0.98 -8.28,-0.92 -8.27,-0.86 -8.27,-0.79 -8.26,-0.73 -8.26,-0.66 -8.25,-0.60 -8.24,-0.53 -8.23,-0.47 -8.22,-0.40 -8.21,-0.34 -8.20,-0.27 -8.18,-0.21 -8.17,-0.14 -8.16,-0.08 -8.14,-0.01 -8.13,0.05 -8.11,0.12 -8.09,0.18 -8.07,0.25 -8.06,0.32 -8.04,0.38 -8.02,0.45 -7.99,0.51 -7.97,0.58 -7.95,0.64 -7.93,0.71 -7.90,0.77 -7.88,0.83 -7.85,0.90 -7.83,0.96 -7.80,1.03 -7.77,1.09 -7.75,1.16 -7.72,1.22 -7.69,1.29 -7.66,1.35 -7.63,1.41 -7.60,1.48 -7.56,1.54 -7.53,1.60 -7.50,1.67 -7.46,1.73 -7.43,1.79 -7.39,1.86 -7.36,1.92 -7.32,1.98 -7.29,2.05 -7.25,2.11 -7.21,2.17 -7.17,2.23 -7.13,2.29 -7.09,2.36 -7.05,2.42 -7.01,2.48 -6.97,2.54 -6.93,2.60 -6.89,2.66 -6.84,2.72 -6.80,2.78 -6.76,2.84 -6.71,2.90 -6.67,2.96 -6.62,3.02 -6.58,3.08 -6.53,3.14 -6.49,3.20 -6.44,3.25 -6.39,3.31 -6.34,3.37 -6.30,3.43 -6.25,3.48 -6.20,3.54 -6.15,3.60 -6.10,3.65 -6.05,3.71 -6.00,3.76 -5.95,3.82 -5.90,3.88 -5.84,3.93 -5.79,3.98 -5.74,4.04 -5.69,4.09 -5.63,4.15 -5.58,4.20 -5.53,4.25 -5.47,4.30 -5.42,4.36 -5.36,4.41 -5.31,4.46 -5.26,4.51 -5.20,4.56 -5.14,4.61 -5.09,4.66 -5.03,4.71 -4.98,4.76 -4.92,4.81 -4.86,4.86 -4.81,4.90 -4.75,4.95 -4.69,5.00 -4.63,5.05 -4.58,5.09 -4.52,5.14 -4.46,5.18 -4.40,5.23 -4.34,5.27 -4.28,5.32 -4.22,5.36 -4.16,5.41 -4.11,5.45 -4.05,5.49 -3.99,5.53 -3.93,5.58 -3.87,5.62 -3.81,5.66 -3.75,5.70 -3.69,5.74 -3.63,5.78 -3.57,5.82 -3.51,5.86 -3.45,5.89 -3.39,5.93 -3.32,5.97 -3.26,6.01 -3.20,6.04 -3.14,6.08 -3.08,6.11 -3.02,6.15 -2.96,6.18 -2.90,6.22 -2.84,6.25 -2.78,6.28 -2.72,6.32 -2.65,6.35 -2.59,6.38 -2.53,6.41 -2.47,6.44 -2.41,6.47 -2.35,6.50 -2.29,6.53 -2.23,6.56 -2.17,6.59 -2.10,6.61 -2.04,6.64 -1.98,6.67 -1.92,6.69 -1.86,6.72 -1.80,6.74 -1.74,6.77 -1.68,6.79 -1.62,6.81 -1.56,6.84 -1.50,6.86 -1.44,6.88 -1.37,6.90 -1.31,6.92 -1.25,6.94 -1.19,6.96 -1.13,6.98 -1.07,7.00 -1.01,7.02 -0.95,7.03 -0.89,7.05 -0.83,7.07 -0.77,7.08 -0.71,7.10 -0.65,7.11 -0.60,7.13 -0.54,7.14 -0.48,7.15 -0.42,7.16 -0.36,7.18 -0.30,7.19 -0.24,7.20 -0.18,7.21 -0.12,7.22 -0.07,7.23 -0.01,7.24 0.05,7.24 0.11,7.25 0.17,7.26 0.22,7.26 0.28,7.27 0.34,7.27 0.39,7.28 0.45,7.28 0.51,7.29 0.57,7.29 0.62,7.29 0.68,7.29 0.73,7.29 0.79,7.29 0.85,7.29 0.90,7.29 0.96,7.29 1.01,7.29 1.07,7.29 1.12,7.28 1.18,7.28 1.23,7.28 1.29,7.27 1.34,7.27 1.40,7.26 1.45,7.25 1.50,7.25 1.56,7.24 1.61,7.23 1.66,7.22 1.72,7.21 1.77,7.20 1.82,7.19 1.88,7.18 1.93,7.17 1.98,7.16 2.03,7.15 2.08,7.13 2.14,7.12 2.19,7.10 2.24,7.09 2.29,7.07 2.34,7.06 2.39,7.04 2.44,7.02 2.49,7.01 2.54,6.99 2.59,6.97 2.64,6.95 2.69,6.93 2.74,6.91 2.79,6.89 2.84,6.87 2.89,6.85 2.94,6.82 2.98,6.80 3.03,6.78 3.08,6.75 3.13,6.73 3.18,6.70 3.22,6.68 3.27,6.65 3.32,6.62 3.36,6.59 3.41,6.57 3.46,6.54 3.50,6.51 3.55,6.48 3.59,6.45 3.64,6.42 3.68,6.39 3.73,6.36 3.77,6.32 3.82,6.29 3.86,6.26 3.90,6.22 3.95,6.19 3.99,6.15 4.04,6.12 4.08,6.08 4.12,6.05 4.16,6.01 4.21,5.97 4.25,5.94 4.29,5.90 4.33,5.86 4.37,5.82 4.41,5.78 4.46,5.74 4.50,5.70 4.54,5.66 4.58,5.62 4.62,5.57 4.66,5.53 4.70,5.49 4.73,5.45 4.77,5.40 4.81,5.36 4.85,5.31 4.89,5.27 4.93,5.22 4.96,5.18 5.00,5.13 5.04,5.08 5.08,5.04 5.11,4.99 5.15,4.94 5.18,4.89 5.22,4.84 5.26,4.79 5.29,4.74 5.33,4.69 5.36,4.64 5.40,4.59 5.43,4.54 5.46,4.49 5.50,4.44 5.53,4.39 5.56,4.33 5.60,4.28 5.63,4.23 5.66,4.17 5.69,4.12 5.72,4.06 5.75,4.01 5.78,3.95 5.81,3.90 5.84,3.84 5.87,3.79 5.90,3.73 5.93,3.67 5.96,3.62 5.99,3.56 6.02,3.50 6.05,3.44 6.07,3.39 6.10,3.33 6.13,3.27 6.15,3.21 6.18,3.15 6.21,3.09 6.23,3.03 6.26,2.97 6.28,2.91 6.30,2.85 6.33,2.79 6.35,2.73 6.37,2.66 6.40,2.60 6.42,2.54 6.44,2.48 6.46,2.42 6.48,2.35 6.51,2.29 6.53,2.23 6.55,2.17 6.56,2.10 6.58,2.04 6.60,1.97 6.62,1.91 6.64,1.85 6.66,1.78 6.67,1.72 6.69,1.65 6.71,1.59 6.72,1.52 6.74,1.46 6.75,1.39 6.77,1.33 6.78,1.26 6.79,1.20 6.81,1.13 6.82,1.07 6.83,1.00 6.84,0.94 6.85,0.87 6.86,0.80 6.87,0.74 6.88,0.67 6.89,0.61 6.90,0.54 6.91,0.47 6.92,0.41 6.92,0.34 6.93,0.28 6.94,0.21 6.94,0.14 6.95,0.08 6.95,0.01 6.95,-0.06 6.96,-0.12 6.96,-0.19 6.96,-0.25 6.96,-0.32 6.97,-0.39 6.97,-0.45 6.97,-0.52 6.97,-0.59 6.96,-0.65 6.96,-0.72 6.96,-0.78 6.96,-0.85 6.95,-0.91 6.95,-0.98 6.95,-1.05 6.94,-1.11 6.94,-1.18 6.93,-1.24 6.92,-1.31 6.91,-1.37 6.91,-1.44 6.90,-1.50 6.89,-1.57 6.88,-1.63 6.87,-1.69 6.86,-1.76 6.85,-1.82 6.83,-1.89 6.82,-1.95 6.81,-2.01 6.79,-2.08 6.78,-2.14 6.76,-2.20 6.75,-2.26 6.73,-2.33 6.71,-2.39 6.69,-2.45 6.68,-2.51 6.66,-2.57 6.64,-2.63 6.62,-2.70 6.59,-2.76 6.57,-2.82 6.55,-2.88 6.53,-2.94 6.50,-2.99 6.48,-3.05 6.45,-3.11 6.43,-3.17 6.40,-3.23 6.37,-3.29 6.35,-3.34 6.32,-3.40 6.29,-3.46 6.26,-3.51 6.23,-3.57 6.20,-3.63 6.17,-3.68 6.14,-3.74 6.10,-3.79 6.07,-3.85 6.03,-3.90 6.00,-3.95 5.96,-4.01 5.93,-4.06 5.89,-4.11 5.85,-4.16 5.81,-4.21 5.78,-4.26 5.74,-4.32 5.70,-4.37 5.66,-4.41 5.61,-4.46 5.57,-4.51 5.53,-4.56 5.49,-4.61 5.44,-4.66 5.40,-4.70 5.35,-4.75 5.31,-4.79 5.26,-4.84 5.21,-4.88 5.17,-4.93 5.12,-4.97 5.07,-5.02 5.02,-5.06 4.97,-5.10 4.92,-5.14 4.87,-5.18 4.81,-5.22 4.76,-5.26 4.71,-5.30 4.65,-5.34 4.60,-5.38 4.54,-5.42 4.49,-5.45 4.43,-5.49 4.38,-5.53 4.32,-5.56 4.26,-5.60 4.20,-5.63 4.14,-5.66 4.08,-5.70 4.02,-5.73 3.96,-5.76 3.90,-5.79 3.84,-5.82 3.78,-5.85 3.72,-5.88 3.65,-5.91 3.59,-5.94 3.53,-5.96 3.46,-5.99 3.40,-6.02 3.33,-6.04 3.26,-6.06 3.20,-6.09 3.13,-6.11 3.06,-6.13 3.00,-6.16 2.93,-6.18 2.86,-6.20 2.79,-6.22 2.72,-6.24 2.65,-6.26 2.58,-6.27 2.51,-6.29 2.44,-6.31 2.37,-6.32 2.29,-6.34 2.22,-6.35 2.15,-6.36 2.08,-6.38 2.00,-6.39 1.93,-6.40 1.86,-6.41 1.78,-6.42 1.71,-6.43 1.63,-6.44 1.56,-6.45 1.48,-6.45 1.41,-6.46 1.33,-6.47 1.26,-6.47" fill="none" stroke="#ff3b30" stroke-width="1" vector-effect="non-scaling-stroke" stroke-linejoin="round" stroke-linecap="round"/></svg>
