<svg xmlns="http://www.w3.org/2000/svg" viewBox="-11.2 -11.2 22.4 22.4"><title>April 2025 — libration loop, to scale</title><circle r="1" fill="#3a86ff"/><polyline points="-2.78,-5.15 -2.86,-5.20 -2.93,-5.25 -3.00,-5.30 -3.07,-5.34 -3.14,-5.39 -3.22,-5.44 -3.29,-5.48 -3.36,-5.52 -3.43,-5.57 -3.50,-5.61 -3.57,-5.65 -3.63,-5.69 -3.70,-5.74 -3.77,-5.78 -3.84,-5.82 -3.91,-5.85 -3.97,-5.89 -4.04,-5.93 -4.11,-5.97 -4.17,-6.00 -4.24,-6.04 -4.30,-6.07 -4.36,-6.11 -4.43,-6.14 -4.49,-6.18 -4.55,-6.21 -4.61,-6.24 -4.68,-6.27 -4.74,-6.30 -4.80,-6.33 -4.86,-6.36 -4.92,-6.39 -4.98,-6.42 -5.03,-6.44 -5.09,-6.47 -5.15,-6.50 -5.20,-6.52 -5.26,-6.54 -5.32,-6.57 -5.37,-6.59 -5.42,-6.61 -5.48,-6.63 -5.53,-6.66 -5.58,-6.68 -5.64,-6.69 -5.69,-6.71 -5.74,-6.73 -5.79,-6.75 -5.84,-6.77 -5.89,-6.78 -5.93,-6.80 -5.98,-6.81 -6.03,-6.82 -6.07,-6.84 -6.12,-6.85 -6.16,-6.86 -6.21,-6.87 -6.25,-6.88 -6.29,-6.89 -6.34,-6.90 -6.38,-6.91 -6.42,-6.92 -6.46,-6.92 -6.50,-6.93 -6.54,-6.93 -6.58,-6.94 -6.61,-6.94 -6.65,-6.94 -6.69,-6.95 -6.72,-6.95 -6.76,-6.95 -6.79,-6.95 -6.82,-6.95 -6.86,-6.95 -6.89,-6.95 -6.92,-6.94 -6.95,-6.94 -6.98,-6.94 -7.01,-6.93 -7.04,-6.93 -7.06,-6.92 -7.09,-6.92 -7.12,-6.91 -7.14,-6.90 -7.17,-6.89 -7.19,-6.88 -7.21,-6.87 -7.24,-6.86 -7.26,-6.85 -7.28,-6.84 -7.30,-6.83 -7.32,-6.81 -7.34,-6.80 -7.36,-6.78 -7.38,-6.77 -7.39,-6.75 -7.41,-6.74 -7.42,-6.72 -7.44,-6.70 -7.45,-6.68 -7.47,-6.66 -7.48,-6.64 -7.49,-6.62 -7.50,-6.60 -7.51,-6.58 -7.52,-6.56 -7.53,-6.53 -7.54,-6.51 -7.55,-6.49 -7.55,-6.46 -7.56,-6.44 -7.56,-6.41 -7.57,-6.38 -7.57,-6.36 -7.58,-6.33 -7.58,-6.30 -7.58,-6.27 -7.58,-6.24 -7.58,-6.21 -7.58,-6.18 -7.58,-6.15 -7.58,-6.12 -7.58,-6.09 -7.57,-6.05 -7.57,-6.02 -7.57,-5.99 -7.56,-5.95 -7.56,-5.92 -7.55,-5.88 -7.54,-5.85 -7.53,-5.81 -7.53,-5.77 -7.52,-5.73 -7.51,-5.70 -7.50,-5.66 -7.49,-5.62 -7.47,-5.58 -7.46,-5.54 -7.45,-5.50 -7.44,-5.46 -7.42,-5.41 -7.41,-5.37 -7.39,-5.33 -7.37,-5.29 -7.36,-5.24 -7.34,-5.20 -7.32,-5.15 -7.30,-5.11 -7.28,-5.06 -7.26,-5.02 -7.24,-4.97 -7.22,-4.92 -7.20,-4.88 -7.18,-4.83 -7.15,-4.78 -7.13,-4.73 -7.11,-4.68 -7.08,-4.63 -7.06,-4.58 -7.03,-4.53 -7.00,-4.48 -6.98,-4.43 -6.95,-4.38 -6.92,-4.33 -6.89,-4.28 -6.86,-4.22 -6.83,-4.17 -6.80,-4.12 -6.77,-4.06 -6.74,-4.01 -6.71,-3.96 -6.68,-3.90 -6.64,-3.85 -6.61,-3.79 -6.58,-3.74 -6.54,-3.68 -6.51,-3.62 -6.47,-3.57 -6.44,-3.51 -6.40,-3.45 -6.36,-3.40 -6.32,-3.34 -6.29,-3.28 -6.25,-3.22 -6.21,-3.16 -6.17,-3.11 -6.13,-3.05 -6.09,-2.99 -6.05,-2.93 -6.01,-2.87 -5.97,-2.81 -5.92,-2.75 -5.88,-2.69 -5.84,-2.63 -5.79,-2.57 -5.75,-2.50 -5.71,-2.44 -5.66,-2.38 -5.62,-2.32 -5.57,-2.26 -5.53,-2.20 -5.48,-2.13 -5.43,-2.07 -5.39,-2.01 -5.34,-1.94 -5.29,-1.88 -5.24,-1.82 -5.19,-1.76 -5.15,-1.69 -5.10,-1.63 -5.05,-1.56 -5.00,-1.50 -4.95,-1.44 -4.90,-1.37 -4.85,-1.31 -4.79,-1.24 -4.74,-1.18 -4.69,-1.11 -4.64,-1.05 -4.59,-0.99 -4.53,-0.92 -4.48,-0.86 -4.43,-0.79 -4.37,-0.73 -4.32,-0.66 -4.27,-0.60 -4.21,-0.53 -4.16,-0.46 -4.10,-0.40 -4.05,-0.33 -3.99,-0.27 -3.93,-0.20 -3.88,-0.14 -3.82,-0.07 -3.77,-0.01 -3.71,0.06 -3.65,0.12 -3.59,0.19 -3.54,0.25 -3.48,0.32 -3.42,0.39 -3.36,0.45 -3.30,0.52 -3.25,0.58 -3.19,0.65 -3.13,0.71 -3.07,0.78 -3.01,0.84 -2.95,0.91 -2.89,0.97 -2.83,1.04 -2.77,1.10 -2.71,1.17 -2.65,1.23 -2.59,1.30 -2.53,1.36 -2.47,1.42 -2.41,1.49 -2.35,1.55 -2.29,1.62 -2.22,1.68 -2.16,1.74 -2.10,1.81 -2.04,1.87 -1.98,1.93 -1.92,2.00 -1.85,2.06 -1.79,2.12 -1.73,2.19 -1.67,2.25 -1.61,2.31 -1.54,2.37 -1.48,2.43 -1.42,2.50 -1.36,2.56 -1.29,2.62 -1.23,2.68 -1.17,2.74 -1.10,2.80 -1.04,2.86 -0.98,2.92 -0.92,2.98 -0.85,3.04 -0.79,3.10 -0.73,3.16 -0.66,3.22 -0.60,3.28 -0.54,3.34 -0.47,3.40 -0.41,3.45 -0.35,3.51 -0.28,3.57 -0.22,3.63 -0.16,3.68 -0.09,3.74 -0.03,3.80 0.03,3.85 0.10,3.91 0.16,3.96 0.22,4.02 0.29,4.07 0.35,4.13 0.41,4.18 0.48,4.24 0.54,4.29 0.60,4.34 0.67,4.40 0.73,4.45 0.79,4.50 0.86,4.55 0.92,4.61 0.98,4.66 1.04,4.71 1.11,4.76 1.17,4.81 1.23,4.86 1.29,4.91 1.36,4.96 1.42,5.00 1.48,5.05 1.54,5.10 1.61,5.15 1.67,5.19 1.73,5.24 1.79,5.29 1.85,5.33 1.91,5.38 1.98,5.42 2.04,5.47 2.10,5.51 2.16,5.55 2.22,5.60 2.28,5.64 2.34,5.68 2.40,5.72 2.46,5.77 2.52,5.81 2.58,5.85 2.64,5.89 2.70,5.93 2.76,5.97 2.82,6.00 2.88,6.04 2.94,6.08 3.00,6.12 3.06,6.15 3.12,6.19 3.18,6.23 3.24,6.26 3.29,6.30 3.35,6.33 3.41,6.36 3.47,6.40 3.52,6.43 3.58,6.46 3.64,6.49 3.69,6.53 3.75,6.56 3.81,6.59 3.86,6.62 3.92,6.64 3.98,6.67 4.03,6.70 4.09,6.73 4.14,6.76 4.20,6.78 4.25,6.81 4.30,6.83 4.36,6.86 4.41,6.88 4.47,6.91 4.52,6.93 4.57,6.95 4.63,6.97 4.68,7.00 4.73,7.02 4.78,7.04 4.83,7.06 4.88,7.08 4.94,7.10 4.99,7.11 5.04,7.13 5.09,7.15 5.14,7.17 5.19,7.18 5.24,7.20 5.29,7.21 5.33,7.23 5.38,7.24 5.43,7.25 5.48,7.26 5.53,7.28 5.57,7.29 5.62,7.30 5.67,7.31 5.71,7.32 5.76,7.33 5.80,7.33 5.85,7.34 5.89,7.35 5.94,7.36 5.98,7.36 6.02,7.37 6.07,7.37 6.11,7.38 6.15,7.38 6.19,7.38 6.24,7.38 6.28,7.39 6.32,7.39 6.36,7.39 6.40,7.39 6.44,7.39 6.48,7.39 6.52,7.38 6.56,7.38 6.59,7.38 6.63,7.37 6.67,7.37 6.70,7.36 6.74,7.36 6.78,7.35 6.81,7.35 6.85,7.34 6.88,7.33 6.92,7.32 6.95,7.31 6.98,7.30 7.02,7.29 7.05,7.28 7.08,7.27 7.11,7.26 7.14,7.24 7.17,7.23 7.20,7.22 7.23,7.20 7.26,7.19 7.29,7.17 7.32,7.15 7.34,7.14 7.37,7.12 7.40,7.10 7.42,7.08 7.45,7.06 7.47,7.04 7.50,7.02 7.52,7.00 7.54,6.98 7.57,6.95 7.59,6.93 7.61,6.91 7.63,6.88 7.65,6.86 7.67,6.83 7.69,6.80 7.71,6.78 7.73,6.75 7.75,6.72 7.76,6.69 7.78,6.66 7.80,6.63 7.81,6.60 7.83,6.57 7.84,6.54 7.85,6.51 7.87,6.48 7.88,6.44 7.89,6.41 7.90,6.37 7.91,6.34 7.92,6.30 7.93,6.27 7.94,6.23 7.95,6.19 7.96,6.16 7.97,6.12 7.97,6.08 7.98,6.04 7.98,6.00 7.99,5.96 7.99,5.92 7.99,5.88 8.00,5.83 8.00,5.79 8.00,5.75 8.00,5.70 8.00,5.66 8.00,5.61 8.00,5.57 8.00,5.52 7.99,5.48 7.99,5.43 7.98,5.38 7.98,5.33 7.97,5.29 7.97,5.24 7.96,5.19 7.95,5.14 7.95,5.09 7.94,5.04 7.93,4.99 7.92,4.93 7.91,4.88 7.89,4.83 7.88,4.78 7.87,4.72 7.86,4.67 7.84,4.61 7.83,4.56 7.81,4.50 7.79,4.45 7.78,4.39 7.76,4.33 7.74,4.28 7.72,4.22 7.70,4.16 7.68,4.10 7.66,4.04 7.64,3.99 7.61,3.93 7.59,3.87 7.57,3.81 7.54,3.75 7.52,3.68 7.49,3.62 7.46,3.56 7.43,3.50 7.41,3.44 7.38,3.37 7.35,3.31 7.32,3.25 7.28,3.18 7.25,3.12 7.22,3.05 7.19,2.99 7.15,2.92 7.12,2.86 7.08,2.79 7.05,2.73 7.01,2.66 6.97,2.60 6.93,2.53 6.89,2.46 6.85,2.39 6.81,2.33 6.77,2.26 6.73,2.19 6.69,2.12 6.64,2.05 6.60,1.99 6.55,1.92 6.51,1.85 6.46,1.78 6.42,1.71 6.37,1.64 6.32,1.57 6.27,1.50 6.22,1.43 6.17,1.36 6.12,1.29 6.07,1.22 6.02,1.15 5.97,1.08 5.91,1.01 5.86,0.94 5.80,0.87 5.75,0.79 5.69,0.72 5.64,0.65 5.58,0.58 5.52,0.51 5.46,0.44 5.40,0.37 5.34,0.29 5.28,0.22 5.22,0.15 5.16,0.08 5.10,0.01 5.04,-0.06 4.97,-0.14 4.91,-0.21 4.85,-0.28 4.78,-0.35 4.72,-0.42 4.65,-0.49 4.58,-0.57 4.52,-0.64 4.45,-0.71 4.38,-0.78 4.31,-0.85 4.24,-0.92 4.17,-0.99 4.10,-1.06 4.03,-1.13 3.96,-1.20 3.89,-1.27 3.82,-1.34 3.74,-1.42 3.67,-1.49 3.60,-1.55 3.52,-1.62 3.45,-1.69 3.38,-1.76 3.30,-1.83 3.22,-1.90 3.15,-1.97 3.07,-2.04 3.00,-2.11 2.92,-2.17 2.84,-2.24 2.76,-2.31 2.68,-2.38 2.61,-2.44 2.53,-2.51 2.45,-2.58 2.37,-2.64 2.29,-2.71 2.21,-2.77 2.13,-2.84 2.05,-2.90 1.96,-2.97 1.88,-3.03 1.80,-3.10 1.72,-3.16 1.64,-3.22 1.55,-3.28 1.47,-3.35 1.39,-3.41 1.31,-3.47 1.22,-3.53 1.14,-3.59 1.06,-3.65 0.97,-3.71 0.89,-3.77 0.80,-3.83 0.72,-3.89 0.64,-3.95 0.55,-4.00 0.47,-4.06 0.38,-4.12 0.30,-4.17 0.21,-4.23 0.13,-4.29 0.04,-4.34 -0.04,-4.39 -0.13,-4.45 -0.21,-4.50 -0.30,-4.55 -0.38,-4.61 -0.47,-4.66 -0.55,-4.71 -0.64,-4.76 -0.72,-4.81 -0.81,-4.86 -0.89,-4.91 -0.98,-4.96 -1.06,-5.00 -1.15,-5.05 -1.23,-5.10 -1.31,-5.14 -1.40,-5.19 -1.48,-5.23 -1.57,-5.28 -1.65,-5.32 -1.73,-5.36 -1.82,-5.41 -1.90,-5.45 -1.98,-5.49 -2.07,-5.53 -2.15,-5.57 -2.23,-5.61 -2.31,-5.65 -2.39,-5.69 -2.48,-5.72 -2.56,-5.76 -2.64,-5.80 -2.72,-5.83 -2.80,-5.87 -2.88,-5.90 -2.96,-5.93 -3.04,-5.97 -3.12,-6.00 -3.20,-6.03 -3.28,-6.06 -3.35,-6.09 -3.43,-6.12 -3.51,-6.15 -3.59,-6.18 -3.66,-6.20 -3.74,-6.23 -3.81,-6.26 -3.89,-6.28 -3.96,-6.31 -4.04,-6.33 -4.11,-6.35 -4.19,-6.37 -4.26,-6.40 -4.33,-6.42 -4.40,-6.44 -4.47,-6.46 -4.54,-6.47 -4.61,-6.49 -4.68,-6.51 -4.75,-6.53 -4.82,-6.54 -4.89,-6.56 -4.96,-6.57 -5.02,-6.59 -5.09,-6.60 -5.16,-6.61 -5.22,-6.62 -5.29,-6.63 -5.35,-6.64 -5.41,-6.65 -5.48,-6.66 -5.54,-6.67 -5.60,-6.68 -5.66,-6.68 -5.72,-6.69 -5.78,-6.70" fill="none" stroke="#ff3b30" stroke-width="1" vector-effect="non-scaling-stroke" stroke-linejoin="round" stroke-linecap="round"/></svg>
