<svg xmlns="http://www.w3.org/2000/svg" viewBox="-11.2 -11.2 22.4 22.4"><title>July 2025 — libration loop, to scale</title><circle r="1" fill="#3a86ff"/><polyline points="-6.06,-0.24 -6.03,-0.18 -5.99,-0.11 -5.96,-0.05 -5.92,0.02 -5.89,0.08 -5.85,0.15 -5.81,0.21 -5.77,0.27 -5.73,0.34 -5.69,0.40 -5.65,0.47 -5.61,0.53 -5.57,0.60 -5.53,0.66 -5.49,0.72 -5.45,0.79 -5.40,0.85 -5.36,0.92 -5.31,0.98 -5.27,1.04 -5.22,1.11 -5.18,1.17 -5.13,1.23 -5.08,1.30 -5.04,1.36 -4.99,1.42 -4.94,1.49 -4.89,1.55 -4.84,1.61 -4.79,1.68 -4.74,1.74 -4.69,1.80 -4.64,1.86 -4.59,1.93 -4.53,1.99 -4.48,2.05 -4.43,2.11 -4.38,2.17 -4.32,2.23 -4.27,2.30 -4.21,2.36 -4.16,2.42 -4.10,2.48 -4.05,2.54 -3.99,2.60 -3.94,2.66 -3.88,2.72 -3.82,2.78 -3.77,2.84 -3.71,2.90 -3.65,2.95 -3.60,3.01 -3.54,3.07 -3.48,3.13 -3.42,3.19 -3.36,3.24 -3.30,3.30 -3.24,3.36 -3.18,3.42 -3.12,3.47 -3.06,3.53 -3.00,3.58 -2.94,3.64 -2.88,3.70 -2.82,3.75 -2.76,3.81 -2.70,3.86 -2.64,3.91 -2.58,3.97 -2.52,4.02 -2.46,4.08 -2.40,4.13 -2.33,4.18 -2.27,4.23 -2.21,4.29 -2.15,4.34 -2.09,4.39 -2.02,4.44 -1.96,4.49 -1.90,4.54 -1.84,4.59 -1.78,4.64 -1.71,4.69 -1.65,4.74 -1.59,4.79 -1.53,4.83 -1.47,4.88 -1.40,4.93 -1.34,4.97 -1.28,5.02 -1.22,5.07 -1.16,5.11 -1.09,5.16 -1.03,5.20 -0.97,5.25 -0.91,5.29 -0.85,5.33 -0.78,5.38 -0.72,5.42 -0.66,5.46 -0.60,5.50 -0.54,5.55 -0.48,5.59 -0.42,5.63 -0.36,5.67 -0.30,5.71 -0.24,5.75 -0.18,5.79 -0.12,5.82 -0.06,5.86 0.00,5.90 0.06,5.94 0.12,5.97 0.18,6.01 0.24,6.04 0.30,6.08 0.36,6.11 0.42,6.15 0.47,6.18 0.53,6.21 0.59,6.25 0.65,6.28 0.71,6.31 0.76,6.34 0.82,6.37 0.88,6.40 0.93,6.43 0.99,6.46 1.04,6.49 1.10,6.52 1.15,6.54 1.21,6.57 1.26,6.60 1.32,6.62 1.37,6.65 1.42,6.67 1.48,6.70 1.53,6.72 1.58,6.75 1.63,6.77 1.69,6.79 1.74,6.81 1.79,6.83 1.84,6.85 1.89,6.87 1.94,6.89 1.99,6.91 2.04,6.93 2.09,6.95 2.14,6.97 2.19,6.98 2.24,7.00 2.28,7.01 2.33,7.03 2.38,7.04 2.42,7.06 2.47,7.07 2.52,7.08 2.56,7.10 2.61,7.11 2.65,7.12 2.69,7.13 2.74,7.14 2.78,7.15 2.83,7.16 2.87,7.16 2.91,7.17 2.95,7.18 2.99,7.18 3.03,7.19 3.07,7.20 3.11,7.20 3.15,7.20 3.19,7.21 3.23,7.21 3.27,7.21 3.31,7.21 3.35,7.22 3.38,7.22 3.42,7.22 3.46,7.21 3.49,7.21 3.53,7.21 3.56,7.21 3.60,7.21 3.63,7.20 3.67,7.20 3.70,7.19 3.73,7.19 3.77,7.18 3.80,7.17 3.83,7.17 3.86,7.16 3.89,7.15 3.92,7.14 3.95,7.13 3.98,7.12 4.01,7.11 4.04,7.10 4.07,7.09 4.10,7.07 4.12,7.06 4.15,7.05 4.18,7.03 4.20,7.02 4.23,7.00 4.25,6.98 4.28,6.97 4.30,6.95 4.33,6.93 4.35,6.91 4.37,6.89 4.40,6.87 4.42,6.85 4.44,6.83 4.46,6.81 4.48,6.79 4.50,6.77 4.52,6.74 4.54,6.72 4.56,6.69 4.58,6.67 4.60,6.64 4.62,6.62 4.64,6.59 4.65,6.56 4.67,6.54 4.69,6.51 4.70,6.48 4.72,6.45 4.74,6.42 4.75,6.39 4.77,6.36 4.78,6.32 4.79,6.29 4.81,6.26 4.82,6.23 4.83,6.19 4.84,6.16 4.86,6.12 4.87,6.09 4.88,6.05 4.89,6.01 4.90,5.98 4.91,5.94 4.92,5.90 4.93,5.86 4.94,5.82 4.95,5.78 4.95,5.74 4.96,5.70 4.97,5.66 4.98,5.62 4.98,5.58 4.99,5.53 4.99,5.49 5.00,5.44 5.01,5.40 5.01,5.36 5.01,5.31 5.02,5.26 5.02,5.22 5.03,5.17 5.03,5.12 5.03,5.08 5.03,5.03 5.04,4.98 5.04,4.93 5.04,4.88 5.04,4.83 5.04,4.78 5.04,4.73 5.04,4.68 5.04,4.63 5.04,4.57 5.04,4.52 5.04,4.47 5.04,4.42 5.04,4.36 5.03,4.31 5.03,4.25 5.03,4.20 5.02,4.14 5.02,4.09 5.02,4.03 5.01,3.98 5.01,3.92 5.00,3.86 5.00,3.80 4.99,3.75 4.99,3.69 4.98,3.63 4.98,3.57 4.97,3.51 4.96,3.45 4.95,3.39 4.95,3.33 4.94,3.27 4.93,3.21 4.92,3.15 4.91,3.09 4.90,3.03 4.90,2.96 4.89,2.90 4.88,2.84 4.87,2.78 4.86,2.71 4.84,2.65 4.83,2.59 4.82,2.52 4.81,2.46 4.80,2.39 4.79,2.33 4.77,2.26 4.76,2.20 4.75,2.13 4.73,2.07 4.72,2.00 4.71,1.94 4.69,1.87 4.68,1.81 4.66,1.74 4.65,1.67 4.63,1.61 4.62,1.54 4.60,1.47 4.58,1.41 4.57,1.34 4.55,1.27 4.53,1.20 4.52,1.14 4.50,1.07 4.48,1.00 4.46,0.93 4.44,0.87 4.43,0.80 4.41,0.73 4.39,0.66 4.37,0.59 4.35,0.52 4.33,0.46 4.31,0.39 4.29,0.32 4.26,0.25 4.24,0.18 4.22,0.11 4.20,0.05 4.18,-0.02 4.15,-0.09 4.13,-0.16 4.11,-0.23 4.09,-0.30 4.06,-0.36 4.04,-0.43 4.01,-0.50 3.99,-0.57 3.96,-0.64 3.94,-0.71 3.91,-0.77 3.89,-0.84 3.86,-0.91 3.84,-0.98 3.81,-1.04 3.78,-1.11 3.75,-1.18 3.73,-1.25 3.70,-1.31 3.67,-1.38 3.64,-1.45 3.61,-1.51 3.59,-1.58 3.56,-1.65 3.53,-1.71 3.50,-1.78 3.47,-1.85 3.44,-1.91 3.41,-1.98 3.38,-2.04 3.34,-2.11 3.31,-2.17 3.28,-2.24 3.25,-2.30 3.22,-2.37 3.18,-2.43 3.15,-2.49 3.12,-2.56 3.08,-2.62 3.05,-2.68 3.02,-2.75 2.98,-2.81 2.95,-2.87 2.91,-2.93 2.88,-2.99 2.84,-3.05 2.81,-3.11 2.77,-3.18 2.73,-3.24 2.70,-3.30 2.66,-3.35 2.62,-3.41 2.58,-3.47 2.55,-3.53 2.51,-3.59 2.47,-3.65 2.43,-3.70 2.39,-3.76 2.35,-3.82 2.31,-3.87 2.27,-3.93 2.23,-3.98 2.19,-4.04 2.15,-4.09 2.11,-4.15 2.07,-4.20 2.03,-4.25 1.99,-4.31 1.95,-4.36 1.90,-4.41 1.86,-4.46 1.82,-4.51 1.78,-4.56 1.73,-4.61 1.69,-4.66 1.65,-4.71 1.60,-4.76 1.56,-4.81 1.51,-4.86 1.47,-4.90 1.42,-4.95 1.38,-5.00 1.33,-5.04 1.29,-5.09 1.24,-5.13 1.20,-5.17 1.15,-5.22 1.10,-5.26 1.06,-5.30 1.01,-5.34 0.96,-5.38 0.92,-5.43 0.87,-5.46 0.82,-5.50 0.77,-5.54 0.72,-5.58 0.68,-5.62 0.63,-5.66 0.58,-5.69 0.53,-5.73 0.48,-5.76 0.43,-5.80 0.38,-5.83 0.33,-5.86 0.28,-5.90 0.23,-5.93 0.18,-5.96 0.13,-5.99 0.08,-6.02 0.03,-6.05 -0.02,-6.08 -0.07,-6.11 -0.12,-6.14 -0.17,-6.16 -0.22,-6.19 -0.28,-6.21 -0.33,-6.24 -0.38,-6.26 -0.43,-6.29 -0.48,-6.31 -0.53,-6.33 -0.59,-6.35 -0.64,-6.38 -0.69,-6.40 -0.74,-6.42 -0.80,-6.43 -0.85,-6.45 -0.90,-6.47 -0.95,-6.49 -1.01,-6.50 -1.06,-6.52 -1.11,-6.53 -1.16,-6.55 -1.22,-6.56 -1.27,-6.57 -1.32,-6.59 -1.37,-6.60 -1.43,-6.61 -1.48,-6.62 -1.53,-6.63 -1.59,-6.64 -1.64,-6.64 -1.69,-6.65 -1.74,-6.66 -1.80,-6.66 -1.85,-6.67 -1.90,-6.67 -1.95,-6.68 -2.01,-6.68 -2.06,-6.68 -2.11,-6.68 -2.16,-6.68 -2.22,-6.68 -2.27,-6.68 -2.32,-6.68 -2.37,-6.68 -2.42,-6.68 -2.47,-6.67 -2.53,-6.67 -2.58,-6.67 -2.63,-6.66 -2.68,-6.65 -2.73,-6.65 -2.78,-6.64 -2.83,-6.63 -2.88,-6.62 -2.93,-6.61 -2.98,-6.60 -3.03,-6.59 -3.08,-6.58 -3.13,-6.57 -3.18,-6.55 -3.23,-6.54 -3.28,-6.53 -3.33,-6.51 -3.37,-6.49 -3.42,-6.48 -3.47,-6.46 -3.52,-6.44 -3.56,-6.42 -3.61,-6.41 -3.66,-6.39 -3.70,-6.37 -3.75,-6.34 -3.80,-6.32 -3.84,-6.30 -3.89,-6.28 -3.93,-6.25 -3.98,-6.23 -4.02,-6.20 -4.06,-6.18 -4.11,-6.15 -4.15,-6.12 -4.19,-6.10 -4.24,-6.07 -4.28,-6.04 -4.32,-6.01 -4.36,-5.98 -4.40,-5.95 -4.44,-5.92 -4.48,-5.89 -4.52,-5.85 -4.56,-5.82 -4.60,-5.79 -4.64,-5.75 -4.68,-5.72 -4.71,-5.68 -4.75,-5.65 -4.79,-5.61 -4.82,-5.57 -4.86,-5.54 -4.89,-5.50 -4.93,-5.46 -4.96,-5.42 -5.00,-5.38 -5.03,-5.34 -5.06,-5.30 -5.09,-5.26 -5.12,-5.22 -5.16,-5.17 -5.19,-5.13 -5.22,-5.09 -5.25,-5.04 -5.27,-5.00 -5.30,-4.95 -5.33,-4.91 -5.36,-4.86 -5.39,-4.82 -5.41,-4.77 -5.44,-4.72 -5.46,-4.67 -5.49,-4.63 -5.51,-4.58 -5.53,-4.53 -5.56,-4.48 -5.58,-4.43 -5.60,-4.38 -5.62,-4.33 -5.64,-4.27 -5.66,-4.22 -5.68,-4.17 -5.70,-4.12 -5.72,-4.07 -5.73,-4.01 -5.75,-3.96 -5.77,-3.90 -5.78,-3.85 -5.80,-3.79 -5.81,-3.74 -5.82,-3.68 -5.84,-3.63 -5.85,-3.57 -5.86,-3.51 -5.87,-3.46 -5.88,-3.40 -5.89,-3.34 -5.90,-3.28 -5.91,-3.23 -5.92,-3.17 -5.92,-3.11 -5.93,-3.05 -5.93,-2.99 -5.94,-2.93 -5.94,-2.87 -5.95,-2.81 -5.95,-2.75 -5.95,-2.69 -5.95,-2.63 -5.95,-2.57 -5.95,-2.51 -5.95,-2.44 -5.95,-2.38 -5.95,-2.32 -5.95,-2.26 -5.94,-2.19 -5.94,-2.13 -5.94,-2.07 -5.93,-2.01 -5.92,-1.94 -5.92,-1.88 -5.91,-1.81 -5.90,-1.75 -5.89,-1.69 -5.88,-1.62 -5.87,-1.56 -5.86,-1.49 -5.85,-1.43 -5.84,-1.36 -5.83,-1.30 -5.81,-1.23 -5.80,-1.17 -5.78,-1.10 -5.77,-1.04 -5.75,-0.97 -5.74,-0.91 -5.72,-0.84 -5.70,-0.78 -5.68,-0.71 -5.66,-0.64 -5.64,-0.58 -5.62,-0.51 -5.60,-0.45 -5.58,-0.38 -5.55,-0.31 -5.53,-0.25 -5.51,-0.18 -5.48,-0.12 -5.46,-0.05 -5.43,0.02 -5.41,0.08 -5.38,0.15 -5.35,0.21 -5.32,0.28 -5.29,0.35 -5.26,0.41 -5.23,0.48 -5.20,0.54 -5.17,0.61 -5.14,0.68 -5.11,0.74 -5.07,0.81 -5.04,0.87 -5.00,0.94 -4.97,1.00 -4.93,1.07 -4.90,1.13 -4.86,1.20 -4.82,1.27 -4.79,1.33 -4.75,1.40 -4.71,1.46 -4.67,1.52 -4.63,1.59 -4.59,1.65 -4.55,1.72 -4.51,1.78 -4.47,1.85 -4.42,1.91 -4.38,1.97 -4.34,2.04 -4.29,2.10 -4.25,2.16 -4.20,2.23 -4.16,2.29 -4.11,2.35 -4.07,2.41 -4.02,2.48 -3.97,2.54 -3.92,2.60 -3.88,2.66 -3.83,2.72 -3.78,2.79 -3.73,2.85 -3.68,2.91 -3.63,2.97 -3.58,3.03 -3.53,3.09 -3.48,3.15 -3.43,3.21 -3.37,3.27 -3.32,3.32 -3.27,3.38 -3.22,3.44 -3.16,3.50 -3.11,3.56 -3.06,3.62 -3.00,3.67 -2.95,3.73 -2.89,3.79 -2.84,3.84 -2.78,3.90 -2.73,3.95 -2.67,4.01 -2.61,4.06 -2.56,4.12 -2.50,4.17 -2.44,4.23 -2.39,4.28 -2.33,4.34 -2.27,4.39 -2.21,4.44 -2.16,4.49 -2.10,4.55 -2.04,4.60 -1.98,4.65 -1.92,4.70 -1.86,4.75 -1.80,4.80 -1.74,4.85 -1.68,4.90 -1.63,4.95 -1.57,5.00 -1.51,5.04 -1.45,5.09 -1.39,5.14 -1.33,5.19" fill="none" stroke="#ff3b30" stroke-width="1" vector-effect="non-scaling-stroke" stroke-linejoin="round" stroke-linecap="round"/></svg>
