<svg xmlns="http://www.w3.org/2000/svg" viewBox="-11.2 -11.2 22.4 22.4"><title>November 2025 — libration loop, to scale</title><circle r="1" fill="#3a86ff"/><polyline points="7.51,1.21 7.49,1.14 7.46,1.07 7.44,1.00 7.42,0.93 7.39,0.86 7.36,0.80 7.34,0.73 7.31,0.66 7.28,0.59 7.25,0.52 7.22,0.45 7.19,0.38 7.16,0.31 7.13,0.24 7.09,0.18 7.06,0.11 7.02,0.04 6.99,-0.03 6.95,-0.10 6.91,-0.17 6.88,-0.24 6.84,-0.31 6.80,-0.38 6.76,-0.45 6.71,-0.51 6.67,-0.58 6.63,-0.65 6.59,-0.72 6.54,-0.79 6.50,-0.86 6.45,-0.93 6.40,-1.00 6.36,-1.06 6.31,-1.13 6.26,-1.20 6.21,-1.27 6.16,-1.34 6.11,-1.40 6.05,-1.47 6.00,-1.54 5.95,-1.61 5.89,-1.67 5.84,-1.74 5.78,-1.81 5.72,-1.87 5.67,-1.94 5.61,-2.00 5.55,-2.07 5.49,-2.14 5.43,-2.20 5.37,-2.27 5.31,-2.33 5.24,-2.40 5.18,-2.46 5.12,-2.52 5.05,-2.59 4.99,-2.65 4.92,-2.71 4.86,-2.78 4.79,-2.84 4.72,-2.90 4.65,-2.96 4.59,-3.03 4.52,-3.09 4.45,-3.15 4.38,-3.21 4.31,-3.27 4.23,-3.33 4.16,-3.39 4.09,-3.45 4.01,-3.51 3.94,-3.56 3.87,-3.62 3.79,-3.68 3.72,-3.74 3.64,-3.79 3.56,-3.85 3.49,-3.91 3.41,-3.96 3.33,-4.02 3.25,-4.07 3.17,-4.12 3.09,-4.18 3.01,-4.23 2.93,-4.28 2.85,-4.33 2.77,-4.39 2.69,-4.44 2.61,-4.49 2.53,-4.54 2.44,-4.59 2.36,-4.64 2.28,-4.69 2.19,-4.73 2.11,-4.78 2.03,-4.83 1.94,-4.87 1.86,-4.92 1.77,-4.96 1.69,-5.01 1.60,-5.05 1.51,-5.10 1.43,-5.14 1.34,-5.18 1.25,-5.22 1.17,-5.26 1.08,-5.30 0.99,-5.34 0.90,-5.38 0.82,-5.42 0.73,-5.46 0.64,-5.50 0.55,-5.53 0.47,-5.57 0.38,-5.60 0.29,-5.64 0.20,-5.67 0.11,-5.71 0.02,-5.74 -0.07,-5.77 -0.15,-5.80 -0.24,-5.83 -0.33,-5.86 -0.42,-5.89 -0.51,-5.92 -0.60,-5.95 -0.69,-5.98 -0.78,-6.00 -0.86,-6.03 -0.95,-6.05 -1.04,-6.08 -1.13,-6.10 -1.22,-6.13 -1.31,-6.15 -1.39,-6.17 -1.48,-6.19 -1.57,-6.21 -1.66,-6.23 -1.74,-6.25 -1.83,-6.27 -1.92,-6.28 -2.01,-6.30 -2.09,-6.32 -2.18,-6.33 -2.26,-6.35 -2.35,-6.36 -2.44,-6.37 -2.52,-6.39 -2.61,-6.40 -2.69,-6.41 -2.78,-6.42 -2.86,-6.43 -2.94,-6.44 -3.03,-6.44 -3.11,-6.45 -3.19,-6.46 -3.28,-6.46 -3.36,-6.47 -3.44,-6.47 -3.52,-6.48 -3.60,-6.48 -3.68,-6.48 -3.76,-6.48 -3.84,-6.48 -3.92,-6.48 -4.00,-6.48 -4.08,-6.48 -4.15,-6.48 -4.23,-6.47 -4.31,-6.47 -4.38,-6.47 -4.46,-6.46 -4.53,-6.45 -4.61,-6.45 -4.68,-6.44 -4.76,-6.43 -4.83,-6.42 -4.90,-6.41 -4.97,-6.40 -5.05,-6.39 -5.12,-6.38 -5.19,-6.37 -5.25,-6.35 -5.32,-6.34 -5.39,-6.33 -5.46,-6.31 -5.53,-6.29 -5.59,-6.28 -5.66,-6.26 -5.72,-6.24 -5.79,-6.22 -5.85,-6.20 -5.91,-6.18 -5.98,-6.16 -6.04,-6.14 -6.10,-6.12 -6.16,-6.10 -6.22,-6.07 -6.28,-6.05 -6.33,-6.03 -6.39,-6.00 -6.45,-5.97 -6.50,-5.95 -6.56,-5.92 -6.61,-5.89 -6.66,-5.86 -6.72,-5.84 -6.77,-5.81 -6.82,-5.78 -6.87,-5.75 -6.92,-5.71 -6.97,-5.68 -7.02,-5.65 -7.06,-5.62 -7.11,-5.58 -7.16,-5.55 -7.20,-5.51 -7.24,-5.48 -7.29,-5.44 -7.33,-5.40 -7.37,-5.37 -7.41,-5.33 -7.45,-5.29 -7.49,-5.25 -7.53,-5.21 -7.57,-5.17 -7.60,-5.13 -7.64,-5.09 -7.67,-5.05 -7.71,-5.01 -7.74,-4.96 -7.77,-4.92 -7.81,-4.88 -7.84,-4.83 -7.87,-4.79 -7.89,-4.74 -7.92,-4.70 -7.95,-4.65 -7.98,-4.61 -8.00,-4.56 -8.03,-4.51 -8.05,-4.46 -8.07,-4.42 -8.10,-4.37 -8.12,-4.32 -8.14,-4.27 -8.16,-4.22 -8.18,-4.17 -8.20,-4.12 -8.21,-4.07 -8.23,-4.02 -8.25,-3.96 -8.26,-3.91 -8.27,-3.86 -8.29,-3.81 -8.30,-3.75 -8.31,-3.70 -8.32,-3.64 -8.33,-3.59 -8.34,-3.53 -8.35,-3.48 -8.36,-3.42 -8.36,-3.37 -8.37,-3.31 -8.37,-3.26 -8.38,-3.20 -8.38,-3.14 -8.38,-3.08 -8.39,-3.03 -8.39,-2.97 -8.39,-2.91 -8.39,-2.85 -8.39,-2.79 -8.38,-2.73 -8.38,-2.67 -8.38,-2.62 -8.37,-2.56 -8.37,-2.50 -8.36,-2.44 -8.35,-2.37 -8.35,-2.31 -8.34,-2.25 -8.33,-2.19 -8.32,-2.13 -8.31,-2.07 -8.30,-2.01 -8.29,-1.95 -8.27,-1.88 -8.26,-1.82 -8.25,-1.76 -8.23,-1.70 -8.22,-1.63 -8.20,-1.57 -8.18,-1.51 -8.16,-1.44 -8.15,-1.38 -8.13,-1.32 -8.11,-1.25 -8.09,-1.19 -8.07,-1.13 -8.05,-1.06 -8.02,-1.00 -8.00,-0.93 -7.98,-0.87 -7.95,-0.81 -7.93,-0.74 -7.90,-0.68 -7.88,-0.61 -7.85,-0.55 -7.82,-0.48 -7.79,-0.42 -7.77,-0.35 -7.74,-0.29 -7.71,-0.23 -7.68,-0.16 -7.65,-0.10 -7.62,-0.03 -7.58,0.03 -7.55,0.10 -7.52,0.16 -7.48,0.23 -7.45,0.29 -7.42,0.36 -7.38,0.42 -7.34,0.49 -7.31,0.55 -7.27,0.62 -7.23,0.68 -7.20,0.74 -7.16,0.81 -7.12,0.87 -7.08,0.94 -7.04,1.00 -7.00,1.07 -6.96,1.13 -6.92,1.19 -6.88,1.26 -6.84,1.32 -6.79,1.39 -6.75,1.45 -6.71,1.51 -6.67,1.58 -6.62,1.64 -6.58,1.70 -6.53,1.76 -6.49,1.83 -6.44,1.89 -6.40,1.95 -6.35,2.01 -6.30,2.08 -6.26,2.14 -6.21,2.20 -6.16,2.26 -6.11,2.32 -6.06,2.38 -6.02,2.45 -5.97,2.51 -5.92,2.57 -5.87,2.63 -5.82,2.69 -5.77,2.75 -5.72,2.81 -5.67,2.87 -5.61,2.93 -5.56,2.99 -5.51,3.04 -5.46,3.10 -5.41,3.16 -5.35,3.22 -5.30,3.28 -5.25,3.34 -5.19,3.39 -5.14,3.45 -5.09,3.51 -5.03,3.56 -4.98,3.62 -4.92,3.68 -4.87,3.73 -4.81,3.79 -4.76,3.84 -4.70,3.90 -4.65,3.95 -4.59,4.00 -4.54,4.06 -4.48,4.11 -4.42,4.16 -4.37,4.22 -4.31,4.27 -4.26,4.32 -4.20,4.37 -4.14,4.43 -4.08,4.48 -4.03,4.53 -3.97,4.58 -3.91,4.63 -3.85,4.68 -3.80,4.73 -3.74,4.78 -3.68,4.82 -3.62,4.87 -3.56,4.92 -3.50,4.97 -3.45,5.02 -3.39,5.06 -3.33,5.11 -3.27,5.15 -3.21,5.20 -3.15,5.24 -3.09,5.29 -3.03,5.33 -2.97,5.38 -2.91,5.42 -2.85,5.46 -2.79,5.51 -2.74,5.55 -2.68,5.59 -2.62,5.63 -2.56,5.67 -2.50,5.71 -2.44,5.75 -2.38,5.79 -2.32,5.83 -2.26,5.87 -2.20,5.91 -2.14,5.94 -2.08,5.98 -2.02,6.02 -1.96,6.05 -1.90,6.09 -1.84,6.13 -1.78,6.16 -1.72,6.19 -1.66,6.23 -1.59,6.26 -1.53,6.29 -1.47,6.33 -1.41,6.36 -1.35,6.39 -1.29,6.42 -1.23,6.45 -1.17,6.48 -1.11,6.51 -1.05,6.54 -0.99,6.57 -0.93,6.60 -0.87,6.62 -0.81,6.65 -0.75,6.68 -0.69,6.70 -0.63,6.73 -0.57,6.75 -0.51,6.78 -0.45,6.80 -0.39,6.82 -0.33,6.85 -0.27,6.87 -0.21,6.89 -0.15,6.91 -0.09,6.93 -0.03,6.95 0.03,6.97 0.09,6.99 0.15,7.01 0.20,7.03 0.26,7.04 0.32,7.06 0.38,7.08 0.44,7.09 0.50,7.11 0.56,7.12 0.62,7.14 0.68,7.15 0.74,7.16 0.80,7.17 0.86,7.19 0.91,7.20 0.97,7.21 1.03,7.22 1.09,7.23 1.15,7.24 1.21,7.24 1.26,7.25 1.32,7.26 1.38,7.27 1.44,7.27 1.50,7.28 1.55,7.28 1.61,7.29 1.67,7.29 1.73,7.29 1.79,7.30 1.84,7.30 1.90,7.30 1.96,7.30 2.01,7.30 2.07,7.30 2.13,7.30 2.18,7.30 2.24,7.30 2.30,7.30 2.35,7.29 2.41,7.29 2.47,7.28 2.52,7.28 2.58,7.27 2.63,7.27 2.69,7.26 2.75,7.26 2.80,7.25 2.86,7.24 2.91,7.23 2.97,7.22 3.02,7.21 3.08,7.20 3.13,7.19 3.18,7.18 3.24,7.17 3.29,7.15 3.35,7.14 3.40,7.13 3.45,7.11 3.51,7.10 3.56,7.08 3.61,7.07 3.67,7.05 3.72,7.03 3.77,7.02 3.83,7.00 3.88,6.98 3.93,6.96 3.98,6.94 4.03,6.92 4.09,6.90 4.14,6.88 4.19,6.85 4.24,6.83 4.29,6.81 4.34,6.78 4.39,6.76 4.44,6.73 4.49,6.71 4.54,6.68 4.59,6.66 4.64,6.63 4.69,6.60 4.74,6.57 4.79,6.55 4.84,6.52 4.89,6.49 4.93,6.46 4.98,6.43 5.03,6.40 5.08,6.36 5.12,6.33 5.17,6.30 5.22,6.27 5.26,6.23 5.31,6.20 5.35,6.16 5.40,6.13 5.45,6.09 5.49,6.06 5.54,6.02 5.58,5.98 5.62,5.94 5.67,5.91 5.71,5.87 5.75,5.83 5.80,5.79 5.84,5.75 5.88,5.71 5.92,5.67 5.97,5.62 6.01,5.58 6.05,5.54 6.09,5.50 6.13,5.45 6.17,5.41 6.21,5.37 6.25,5.32 6.29,5.28 6.32,5.23 6.36,5.18 6.40,5.14 6.44,5.09 6.48,5.04 6.51,5.00 6.55,4.95 6.58,4.90 6.62,4.85 6.65,4.80 6.69,4.75 6.72,4.70 6.76,4.65 6.79,4.60 6.82,4.55 6.86,4.50 6.89,4.44 6.92,4.39 6.95,4.34 6.98,4.29 7.01,4.23 7.04,4.18 7.07,4.12 7.10,4.07 7.13,4.01 7.16,3.96 7.18,3.90 7.21,3.85 7.24,3.79 7.26,3.73 7.29,3.68 7.31,3.62 7.34,3.56 7.36,3.50 7.38,3.45 7.41,3.39 7.43,3.33 7.45,3.27 7.47,3.21 7.49,3.15 7.51,3.09 7.53,3.03 7.55,2.97 7.57,2.91 7.59,2.85 7.61,2.79 7.62,2.73 7.64,2.66 7.65,2.60 7.67,2.54 7.68,2.48 7.70,2.42 7.71,2.35 7.72,2.29 7.73,2.23 7.74,2.16 7.75,2.10 7.76,2.03 7.77,1.97 7.78,1.91 7.79,1.84 7.80,1.78 7.80,1.71 7.81,1.65 7.81,1.58 7.82,1.52 7.82,1.45 7.83,1.39 7.83,1.32 7.83,1.26 7.83,1.19 7.83,1.12 7.83,1.06 7.83,0.99 7.83,0.93 7.83,0.86 7.82,0.79 7.82,0.73 7.81,0.66 7.81,0.59 7.80,0.53 7.80,0.46 7.79,0.39 7.78,0.33 7.77,0.26 7.76,0.19 7.75,0.13 7.74,0.06 7.73,-0.01 7.71,-0.07 7.70,-0.14 7.69,-0.21 7.67,-0.27 7.65,-0.34 7.64,-0.41 7.62,-0.47 7.60,-0.54 7.58,-0.61 7.56,-0.67 7.54,-0.74 7.52,-0.81 7.50,-0.87 7.48,-0.94 7.45,-1.00 7.43,-1.07 7.40,-1.14 7.38,-1.20 7.35,-1.27 7.32,-1.33 7.29,-1.40 7.27,-1.46 7.24,-1.53 7.20,-1.59 7.17,-1.66 7.14,-1.72 7.11,-1.79 7.07,-1.85 7.04,-1.91 7.00,-1.98 6.97,-2.04 6.93,-2.11 6.89,-2.17 6.85,-2.23 6.81,-2.29 6.77,-2.36 6.73,-2.42 6.69,-2.48 6.65,-2.54 6.60,-2.60 6.56,-2.67 6.51,-2.73 6.47,-2.79 6.42,-2.85 6.37,-2.91 6.33,-2.97 6.28,-3.03 6.23,-3.09 6.18,-3.14 6.13,-3.20" fill="none" stroke="#ff3b30" stroke-width="1" vector-effect="non-scaling-stroke" stroke-linejoin="round" stroke-linecap="round"/></svg>
