<svg xmlns="http://www.w3.org/2000/svg" viewBox="-11.2 -11.2 22.4 22.4"><title>June 2025 — libration loop, to scale</title><circle r="1" fill="#3a86ff"/><polyline points="-7.67,-4.28 -7.68,-4.23 -7.68,-4.18 -7.68,-4.13 -7.68,-4.08 -7.68,-4.03 -7.68,-3.98 -7.68,-3.93 -7.67,-3.88 -7.67,-3.83 -7.66,-3.77 -7.66,-3.72 -7.65,-3.67 -7.65,-3.61 -7.64,-3.56 -7.63,-3.51 -7.62,-3.45 -7.61,-3.40 -7.60,-3.34 -7.59,-3.29 -7.57,-3.23 -7.56,-3.17 -7.54,-3.12 -7.53,-3.06 -7.51,-3.00 -7.50,-2.95 -7.48,-2.89 -7.46,-2.83 -7.44,-2.77 -7.42,-2.71 -7.40,-2.66 -7.38,-2.60 -7.35,-2.54 -7.33,-2.48 -7.31,-2.42 -7.28,-2.36 -7.26,-2.30 -7.23,-2.24 -7.20,-2.18 -7.18,-2.12 -7.15,-2.06 -7.12,-2.00 -7.09,-1.94 -7.06,-1.88 -7.03,-1.82 -7.00,-1.75 -6.96,-1.69 -6.93,-1.63 -6.90,-1.57 -6.86,-1.51 -6.83,-1.45 -6.79,-1.38 -6.75,-1.32 -6.72,-1.26 -6.68,-1.20 -6.64,-1.13 -6.60,-1.07 -6.56,-1.01 -6.52,-0.94 -6.48,-0.88 -6.44,-0.82 -6.40,-0.75 -6.35,-0.69 -6.31,-0.63 -6.27,-0.56 -6.22,-0.50 -6.18,-0.44 -6.13,-0.37 -6.08,-0.31 -6.04,-0.25 -5.99,-0.18 -5.94,-0.12 -5.90,-0.06 -5.85,0.01 -5.80,0.07 -5.75,0.13 -5.70,0.20 -5.65,0.26 -5.60,0.33 -5.55,0.39 -5.49,0.45 -5.44,0.52 -5.39,0.58 -5.34,0.64 -5.28,0.71 -5.23,0.77 -5.17,0.83 -5.12,0.90 -5.06,0.96 -5.01,1.02 -4.95,1.08 -4.90,1.15 -4.84,1.21 -4.78,1.27 -4.73,1.34 -4.67,1.40 -4.61,1.46 -4.55,1.52 -4.49,1.59 -4.44,1.65 -4.38,1.71 -4.32,1.77 -4.26,1.83 -4.20,1.89 -4.14,1.96 -4.08,2.02 -4.02,2.08 -3.96,2.14 -3.90,2.20 -3.83,2.26 -3.77,2.32 -3.71,2.38 -3.65,2.44 -3.59,2.50 -3.53,2.56 -3.46,2.62 -3.40,2.68 -3.34,2.74 -3.28,2.79 -3.21,2.85 -3.15,2.91 -3.09,2.97 -3.02,3.03 -2.96,3.09 -2.90,3.14 -2.83,3.20 -2.77,3.26 -2.71,3.31 -2.64,3.37 -2.58,3.43 -2.52,3.48 -2.45,3.54 -2.39,3.59 -2.32,3.65 -2.26,3.70 -2.20,3.76 -2.13,3.81 -2.07,3.86 -2.00,3.92 -1.94,3.97 -1.88,4.02 -1.81,4.08 -1.75,4.13 -1.68,4.18 -1.62,4.23 -1.56,4.28 -1.49,4.33 -1.43,4.38 -1.37,4.43 -1.30,4.48 -1.24,4.53 -1.17,4.58 -1.11,4.63 -1.05,4.68 -0.99,4.73 -0.92,4.78 -0.86,4.82 -0.80,4.87 -0.73,4.92 -0.67,4.96 -0.61,5.01 -0.55,5.05 -0.48,5.10 -0.42,5.14 -0.36,5.19 -0.30,5.23 -0.24,5.28 -0.18,5.32 -0.12,5.36 -0.05,5.40 0.01,5.45 0.07,5.49 0.13,5.53 0.19,5.57 0.25,5.61 0.31,5.65 0.37,5.69 0.43,5.73 0.49,5.76 0.54,5.80 0.60,5.84 0.66,5.88 0.72,5.91 0.78,5.95 0.84,5.98 0.89,6.02 0.95,6.05 1.01,6.09 1.07,6.12 1.12,6.15 1.18,6.19 1.23,6.22 1.29,6.25 1.35,6.28 1.40,6.31 1.46,6.34 1.51,6.37 1.56,6.40 1.62,6.43 1.67,6.46 1.73,6.49 1.78,6.51 1.83,6.54 1.89,6.56 1.94,6.59 1.99,6.62 2.04,6.64 2.09,6.66 2.14,6.69 2.20,6.71 2.25,6.73 2.30,6.75 2.35,6.78 2.40,6.80 2.45,6.82 2.49,6.84 2.54,6.86 2.59,6.87 2.64,6.89 2.69,6.91 2.73,6.93 2.78,6.94 2.83,6.96 2.87,6.97 2.92,6.99 2.97,7.00 3.01,7.02 3.06,7.03 3.10,7.04 3.15,7.05 3.19,7.06 3.23,7.08 3.28,7.09 3.32,7.09 3.36,7.10 3.41,7.11 3.45,7.12 3.49,7.13 3.53,7.13 3.57,7.14 3.61,7.15 3.65,7.15 3.70,7.15 3.73,7.16 3.77,7.16 3.81,7.16 3.85,7.17 3.89,7.17 3.93,7.17 3.97,7.17 4.00,7.17 4.04,7.17 4.08,7.17 4.11,7.16 4.15,7.16 4.19,7.16 4.22,7.15 4.26,7.15 4.29,7.14 4.33,7.14 4.36,7.13 4.39,7.13 4.43,7.12 4.46,7.11 4.49,7.10 4.53,7.09 4.56,7.08 4.59,7.07 4.62,7.06 4.65,7.05 4.68,7.04 4.71,7.03 4.74,7.01 4.77,7.00 4.80,6.98 4.83,6.97 4.86,6.95 4.89,6.94 4.92,6.92 4.94,6.90 4.97,6.89 5.00,6.87 5.03,6.85 5.05,6.83 5.08,6.81 5.10,6.79 5.13,6.77 5.15,6.74 5.18,6.72 5.20,6.70 5.23,6.67 5.25,6.65 5.28,6.62 5.30,6.60 5.32,6.57 5.34,6.55 5.37,6.52 5.39,6.49 5.41,6.46 5.43,6.44 5.45,6.41 5.47,6.38 5.49,6.35 5.51,6.31 5.53,6.28 5.55,6.25 5.57,6.22 5.59,6.19 5.61,6.15 5.62,6.12 5.64,6.08 5.66,6.05 5.68,6.01 5.69,5.98 5.71,5.94 5.72,5.90 5.74,5.86 5.76,5.82 5.77,5.79 5.79,5.75 5.80,5.71 5.81,5.67 5.83,5.63 5.84,5.58 5.85,5.54 5.87,5.50 5.88,5.46 5.89,5.41 5.90,5.37 5.91,5.33 5.92,5.28 5.94,5.24 5.95,5.19 5.96,5.14 5.97,5.10 5.97,5.05 5.98,5.00 5.99,4.95 6.00,4.91 6.01,4.86 6.02,4.81 6.02,4.76 6.03,4.71 6.04,4.66 6.04,4.61 6.05,4.55 6.05,4.50 6.06,4.45 6.06,4.40 6.07,4.35 6.07,4.29 6.08,4.24 6.08,4.18 6.08,4.13 6.08,4.07 6.09,4.02 6.09,3.96 6.09,3.91 6.09,3.85 6.09,3.79 6.09,3.74 6.09,3.68 6.09,3.62 6.09,3.56 6.09,3.50 6.09,3.45 6.09,3.39 6.09,3.33 6.08,3.27 6.08,3.21 6.08,3.15 6.07,3.09 6.07,3.03 6.06,2.96 6.06,2.90 6.05,2.84 6.05,2.78 6.04,2.72 6.03,2.65 6.03,2.59 6.02,2.53 6.01,2.47 6.00,2.40 6.00,2.34 5.99,2.27 5.98,2.21 5.97,2.15 5.96,2.08 5.95,2.02 5.93,1.95 5.92,1.89 5.91,1.82 5.90,1.76 5.89,1.69 5.87,1.62 5.86,1.56 5.84,1.49 5.83,1.43 5.81,1.36 5.80,1.29 5.78,1.23 5.77,1.16 5.75,1.09 5.73,1.03 5.71,0.96 5.70,0.89 5.68,0.82 5.66,0.76 5.64,0.69 5.62,0.62 5.60,0.56 5.58,0.49 5.56,0.42 5.53,0.35 5.51,0.28 5.49,0.22 5.47,0.15 5.44,0.08 5.42,0.01 5.39,-0.05 5.37,-0.12 5.34,-0.19 5.32,-0.26 5.29,-0.32 5.26,-0.39 5.23,-0.46 5.21,-0.53 5.18,-0.59 5.15,-0.66 5.12,-0.73 5.09,-0.80 5.06,-0.86 5.03,-0.93 5.00,-1.00 4.96,-1.07 4.93,-1.13 4.90,-1.20 4.86,-1.27 4.83,-1.33 4.80,-1.40 4.76,-1.46 4.73,-1.53 4.69,-1.60 4.65,-1.66 4.62,-1.73 4.58,-1.79 4.54,-1.86 4.50,-1.92 4.46,-1.99 4.42,-2.05 4.38,-2.12 4.34,-2.18 4.30,-2.24 4.26,-2.31 4.22,-2.37 4.18,-2.43 4.14,-2.50 4.09,-2.56 4.05,-2.62 4.00,-2.68 3.96,-2.75 3.91,-2.81 3.87,-2.87 3.82,-2.93 3.78,-2.99 3.73,-3.05 3.68,-3.11 3.63,-3.17 3.59,-3.23 3.54,-3.29 3.49,-3.35 3.44,-3.40 3.39,-3.46 3.34,-3.52 3.29,-3.58 3.23,-3.63 3.18,-3.69 3.13,-3.75 3.08,-3.80 3.02,-3.86 2.97,-3.91 2.92,-3.96 2.86,-4.02 2.81,-4.07 2.75,-4.13 2.70,-4.18 2.64,-4.23 2.58,-4.28 2.53,-4.33 2.47,-4.38 2.41,-4.43 2.35,-4.48 2.29,-4.53 2.24,-4.58 2.18,-4.63 2.12,-4.68 2.06,-4.72 2.00,-4.77 1.94,-4.82 1.88,-4.86 1.81,-4.91 1.75,-4.95 1.69,-5.00 1.63,-5.04 1.57,-5.08 1.50,-5.13 1.44,-5.17 1.38,-5.21 1.31,-5.25 1.25,-5.29 1.19,-5.33 1.12,-5.37 1.06,-5.41 0.99,-5.44 0.93,-5.48 0.86,-5.52 0.79,-5.55 0.73,-5.59 0.66,-5.62 0.60,-5.66 0.53,-5.69 0.46,-5.73 0.40,-5.76 0.33,-5.79 0.26,-5.82 0.19,-5.85 0.13,-5.88 0.06,-5.91 -0.01,-5.94 -0.08,-5.97 -0.15,-5.99 -0.21,-6.02 -0.28,-6.05 -0.35,-6.07 -0.42,-6.09 -0.49,-6.12 -0.56,-6.14 -0.62,-6.16 -0.69,-6.19 -0.76,-6.21 -0.83,-6.23 -0.90,-6.25 -0.97,-6.27 -1.04,-6.28 -1.11,-6.30 -1.18,-6.32 -1.25,-6.34 -1.31,-6.35 -1.38,-6.37 -1.45,-6.38 -1.52,-6.39 -1.59,-6.41 -1.66,-6.42 -1.73,-6.43 -1.79,-6.44 -1.86,-6.45 -1.93,-6.46 -2.00,-6.47 -2.07,-6.48 -2.14,-6.48 -2.20,-6.49 -2.27,-6.50 -2.34,-6.50 -2.40,-6.51 -2.47,-6.51 -2.54,-6.51 -2.61,-6.51 -2.67,-6.52 -2.74,-6.52 -2.80,-6.52 -2.87,-6.52 -2.94,-6.51 -3.00,-6.51 -3.07,-6.51 -3.13,-6.51 -3.19,-6.50 -3.26,-6.50 -3.32,-6.49 -3.39,-6.49 -3.45,-6.48 -3.51,-6.47 -3.57,-6.46 -3.64,-6.45 -3.70,-6.44 -3.76,-6.43 -3.82,-6.42 -3.88,-6.41 -3.94,-6.40 -4.00,-6.38 -4.06,-6.37 -4.12,-6.36 -4.18,-6.34 -4.24,-6.33 -4.29,-6.31 -4.35,-6.29 -4.41,-6.27 -4.46,-6.25 -4.52,-6.24 -4.57,-6.22 -4.63,-6.20 -4.68,-6.17 -4.74,-6.15 -4.79,-6.13 -4.84,-6.11 -4.89,-6.08 -4.95,-6.06 -5.00,-6.03 -5.05,-6.01 -5.10,-5.98 -5.15,-5.95 -5.19,-5.93 -5.24,-5.90 -5.29,-5.87 -5.34,-5.84 -5.38,-5.81 -5.43,-5.78 -5.47,-5.75 -5.52,-5.72 -5.56,-5.69 -5.61,-5.65 -5.65,-5.62 -5.69,-5.58 -5.73,-5.55 -5.77,-5.52 -5.81,-5.48 -5.85,-5.44 -5.89,-5.41 -5.93,-5.37 -5.96,-5.33 -6.00,-5.29 -6.04,-5.25 -6.07,-5.21 -6.10,-5.17 -6.14,-5.13 -6.17,-5.09 -6.20,-5.05 -6.23,-5.01 -6.26,-4.97 -6.29,-4.92 -6.32,-4.88 -6.35,-4.84 -6.38,-4.79 -6.41,-4.75 -6.43,-4.70 -6.46,-4.65 -6.48,-4.61 -6.51,-4.56 -6.53,-4.51 -6.55,-4.47 -6.57,-4.42 -6.59,-4.37 -6.61,-4.32 -6.63,-4.27 -6.65,-4.22 -6.67,-4.17 -6.68,-4.12 -6.70,-4.07 -6.71,-4.02 -6.73,-3.97 -6.74,-3.91 -6.75,-3.86 -6.77,-3.81 -6.78,-3.75 -6.79,-3.70 -6.80,-3.65 -6.80,-3.59 -6.81,-3.54 -6.82,-3.48 -6.83,-3.43 -6.83,-3.37 -6.84,-3.32 -6.84,-3.26 -6.84,-3.20 -6.84,-3.15 -6.85,-3.09 -6.85,-3.03 -6.85,-2.97 -6.84,-2.92 -6.84,-2.86 -6.84,-2.80 -6.84,-2.74 -6.83,-2.68 -6.83,-2.62 -6.82,-2.56 -6.81,-2.50 -6.81,-2.44 -6.80,-2.38 -6.79,-2.32 -6.78,-2.26 -6.77,-2.20 -6.76,-2.14 -6.74,-2.08 -6.73,-2.02 -6.72,-1.95 -6.70,-1.89 -6.69,-1.83 -6.67,-1.77 -6.65,-1.71 -6.64,-1.64 -6.62,-1.58 -6.60,-1.52 -6.58,-1.46 -6.56,-1.39 -6.54,-1.33 -6.51,-1.27 -6.49,-1.20 -6.47,-1.14 -6.44,-1.08 -6.42,-1.01 -6.39,-0.95 -6.37,-0.88 -6.34,-0.82 -6.31,-0.76 -6.28,-0.69 -6.25,-0.63 -6.22,-0.56 -6.19,-0.50 -6.16,-0.43 -6.13,-0.37 -6.10,-0.31 -6.06,-0.24" fill="none" stroke="#ff3b30" stroke-width="1" vector-effect="non-scaling-stroke" stroke-linejoin="round" stroke-linecap="round"/></svg>
